SplineFontDB: 3.0
FontName: Roboto-GMM-Light
FullName: Roboto-GMM Light
FamilyName: Roboto-GMM Light
Weight: Light
Copyright: Copyright 2011 Google Inc. All Rights Reserved.
Version: 2.138
ItalicAngle: 0
UnderlinePosition: -200
UnderlineWidth: 100
Ascent: 1638
Descent: 410
InvalidEm: 0
sfntRevision: 0x00022354
LayerCount: 2
Layer: 0 1 "Back" 1
Layer: 1 1 "Fore" 0
XUID: [1021 847 435918304 11775]
StyleMap: 0x0040
FSType: 0
OS2Version: 4
OS2_WeightWidthSlopeOnly: 0
OS2_UseTypoMetrics: 0
CreationTime: 1221247774
ModificationTime: 1628024906
PfmFamily: 17
TTFWeight: 300
TTFWidth: 5
LineGap: 0
VLineGap: 0
Panose: 2 0 0 0 0 0 0 0 0 0
OS2TypoAscent: 2146
OS2TypoAOffset: 0
OS2TypoDescent: -555
OS2TypoDOffset: 0
OS2TypoLinegap: 0
OS2WinAscent: 2146
OS2WinAOffset: 0
OS2WinDescent: 555
OS2WinDOffset: 0
HheadAscent: 1900
HheadAOffset: 0
HheadDescent: -500
HheadDOffset: 0
OS2SubXSize: 1434
OS2SubYSize: 1331
OS2SubXOff: 0
OS2SubYOff: 287
OS2SupXSize: 1434
OS2SupYSize: 1331
OS2SupXOff: 0
OS2SupYOff: 977
OS2StrikeYSize: 102
OS2StrikeYPos: 512
OS2CapHeight: 1456
OS2XHeight: 1082
OS2Vendor: 'GOOG'
OS2CodePages: 2000019f.00000000
OS2UnicodeRanges: e0000aff.5000217f.00000021.00000000
Lookup: 1 0 0 "'c2sc' Capitals to Small Capitals lookup 0" { "'c2sc' Capitals to Small Capitals lookup 0 subtable"  } ['c2sc' ('DFLT' <'dflt' > 'cyrl' <'dflt' > 'grek' <'dflt' > 'latn' <'AZE ' 'CRT ' 'FRA ' 'MOL ' 'NAV ' 'ROM ' 'TRK ' 'dflt' > ) ]
Lookup: 1 0 0 "'smcp' Lowercase to Small Capitals lookup 1" { "'smcp' Lowercase to Small Capitals lookup 1 subtable"  } ['smcp' ('DFLT' <'dflt' > 'cyrl' <'dflt' > 'grek' <'dflt' > 'latn' <'AZE ' 'CRT ' 'FRA ' 'MOL ' 'NAV ' 'ROM ' 'TRK ' 'dflt' > ) ]
Lookup: 1 0 0 "'unic' Unicase lookup 2" { "'unic' Unicase lookup 2 subtable"  } ['unic' ('DFLT' <'dflt' > 'cyrl' <'dflt' > 'grek' <'dflt' > 'latn' <'AZE ' 'CRT ' 'FRA ' 'MOL ' 'NAV ' 'ROM ' 'TRK ' 'dflt' > ) ]

StartChar: .notdef
Encoding: 1114112 -1 0
Width: 908
Flags: W
LayerCount: 2
Fore
SplineSet
100 0 m 1,0,-1
 100 1456 l 1,1,-1
 808 1456 l 1,2,-1
 808 0 l 1,3,-1
 100 0 l 1,0,-1
194 1402 m 1,4,-1
 452 796 l 1,5,-1
 709 1402 l 1,6,-1
 194 1402 l 1,4,-1
480 728 m 1,7,-1
 754 84 l 1,8,-1
 754 1372 l 1,9,-1
 480 728 l 1,7,-1
154 1360 m 1,10,-1
 154 96 l 1,11,-1
 422 728 l 1,12,-1
 154 1360 l 1,10,-1
194 54 m 1,13,-1
 709 54 l 1,14,-1
 452 660 l 1,15,-1
 194 54 l 1,13,-1
EndSplineSet
EndChar

StartChar: exclam
Encoding: 33 33 6
Width: 462
Flags: W
LayerCount: 2
Fore
SplineSet
291 1456 m 1,0,-1
 284 406 l 1,1,-1
 174 406 l 1,2,-1
 167 1456 l 1,3,-1
 291 1456 l 1,0,-1
154 71 m 256,4,5
 154 151 154 151 236 151 c 0,6,7
 319 151 319 151 319 71 c 256,8,9
 319 -9 319 -9 236 -9 c 0,10,11
 154 -9 154 -9 154 71 c 256,4,5
EndSplineSet
EndChar

StartChar: quotedbl
Encoding: 34 34 7
Width: 589
Flags: W
LayerCount: 2
Fore
SplineSet
244 1536 m 1,0,-1
 244 1397 l 1,1,-1
 224 1083 l 1,2,-1
 143 1083 l 1,3,-1
 146 1390 l 1,4,-1
 146 1536 l 1,5,-1
 244 1536 l 1,0,-1
479 1536 m 1,6,-1
 479 1397 l 1,7,-1
 460 1083 l 1,8,-1
 379 1083 l 1,9,-1
 382 1394 l 1,10,-1
 382 1536 l 1,11,-1
 479 1536 l 1,6,-1
EndSplineSet
EndChar

StartChar: numbersign
Encoding: 35 35 8
Width: 1191
Flags: W
LayerCount: 2
Fore
SplineSet
676 0 m 1,0,-1
 753 410 l 1,1,-1
 440 410 l 1,2,-1
 363 0 l 1,3,-1
 263 0 l 1,4,-1
 340 410 l 1,5,-1
 85 410 l 1,6,-1
 85 504 l 1,7,-1
 358 504 l 1,8,-1
 441 945 l 1,9,-1
 161 945 l 1,10,-1
 161 1040 l 1,11,-1
 459 1040 l 1,12,-1
 537 1456 l 1,13,-1
 637 1456 l 1,14,-1
 559 1040 l 1,15,-1
 872 1040 l 1,16,-1
 951 1456 l 1,17,-1
 1051 1456 l 1,18,-1
 972 1040 l 1,19,-1
 1201 1040 l 1,20,-1
 1201 945 l 1,21,-1
 954 945 l 1,22,-1
 871 504 l 1,23,-1
 1126 504 l 1,24,-1
 1126 410 l 1,25,-1
 853 410 l 1,26,-1
 776 0 l 1,27,-1
 676 0 l 1,0,-1
458 504 m 1,28,-1
 771 504 l 1,29,-1
 854 945 l 1,30,-1
 541 945 l 1,31,-1
 458 504 l 1,28,-1
EndSplineSet
EndChar

StartChar: dollar
Encoding: 36 36 9
Width: 1136
Flags: W
LayerCount: 2
Fore
SplineSet
1021 361 m 0,0,1
 1021 194 1021 194 917 95 c 128,-1,2
 813 -4 813 -4 638 -19 c 1,3,-1
 638 -208 l 1,4,-1
 536 -208 l 1,5,-1
 536 -20 l 1,6,7
 376 -9 376 -9 246 89.5 c 128,-1,8
 116 188 116 188 116 419 c 1,9,-1
 235 419 l 1,10,11
 235 290 235 290 288 217 c 128,-1,12
 341 144 341 144 421 114.5 c 128,-1,13
 501 85 501 85 581 85 c 0,14,15
 732 85 732 85 817 165 c 128,-1,16
 902 245 902 245 902 359 c 0,17,18
 902 469 902 469 831 539.5 c 128,-1,19
 760 610 760 610 575 674 c 0,20,21
 385 736 385 736 276 826 c 128,-1,22
 167 916 167 916 167 1095 c 0,23,24
 167 1258 167 1258 267.5 1360 c 128,-1,25
 368 1462 368 1462 539 1475 c 1,26,-1
 539 1677 l 1,27,-1
 641 1677 l 1,28,-1
 641 1475 l 1,29,30
 815 1460 815 1460 913 1345.5 c 128,-1,31
 1011 1231 1011 1231 1011 1028 c 1,32,-1
 892 1028 l 1,33,34
 892 1176 892 1176 814 1273.5 c 128,-1,35
 736 1371 736 1371 588 1371 c 0,36,37
 434 1371 434 1371 360.5 1290 c 128,-1,38
 287 1209 287 1209 287 1098 c 0,39,40
 287 988 287 988 351.5 918 c 128,-1,41
 416 848 416 848 616 781 c 0,42,43
 804 718 804 718 912.5 629 c 128,-1,44
 1021 540 1021 540 1021 361 c 0,0,1
EndSplineSet
Substitution2: "'c2sc' Capitals to Small Capitals lookup 0 subtable" dollar.smcp
Position2: "'cpsp' Capital Spacing lookup 0 subtable" dx=36 dy=0 dh=72 dv=0
EndChar

StartChar: percent
Encoding: 37 37 10
Width: 1514
Flags: W
LayerCount: 2
Fore
SplineSet
110 1099 m 2,0,-1
 110 1176 l 2,1,2
 110 1300 110 1300 187 1388.5 c 128,-1,3
 264 1477 264 1477 395 1477 c 256,4,5
 526 1477 526 1477 603 1388.5 c 128,-1,6
 680 1300 680 1300 680 1176 c 2,7,-1
 680 1099 l 2,8,9
 680 977 680 977 603.5 888.5 c 128,-1,10
 527 800 527 800 397 800 c 0,11,12
 265 800 265 800 187.5 888.5 c 128,-1,13
 110 977 110 977 110 1099 c 2,0,-1
206 1176 m 2,14,-1
 206 1099 l 2,15,16
 206 1019 206 1019 253 953 c 128,-1,17
 300 887 300 887 397 887 c 0,18,19
 492 887 492 887 537.5 952.5 c 128,-1,20
 583 1018 583 1018 583 1099 c 2,21,-1
 583 1176 l 2,22,23
 583 1258 583 1258 536.5 1324 c 128,-1,24
 490 1390 490 1390 395 1390 c 256,25,26
 300 1390 300 1390 253 1324 c 128,-1,27
 206 1258 206 1258 206 1176 c 2,14,-1
1146 1259 m 1,28,-1
 435 121 l 1,29,-1
 360 169 l 1,30,-1
 1071 1307 l 1,31,-1
 1146 1259 l 1,28,-1
842 279 m 2,32,-1
 842 357 l 2,33,34
 842 480 842 480 919 568.5 c 128,-1,35
 996 657 996 657 1127 657 c 256,36,37
 1258 657 1258 657 1335 568.5 c 128,-1,38
 1412 480 1412 480 1412 357 c 2,39,-1
 1412 279 l 2,40,41
 1412 156 1412 156 1335.5 67.5 c 128,-1,42
 1259 -21 1259 -21 1129 -21 c 0,43,44
 997 -21 997 -21 919.5 67.5 c 128,-1,45
 842 156 842 156 842 279 c 2,32,-1
939 357 m 2,46,-1
 939 279 l 2,47,48
 939 198 939 198 985.5 132 c 128,-1,49
 1032 66 1032 66 1129 66 c 0,50,51
 1224 66 1224 66 1269.5 131.5 c 128,-1,52
 1315 197 1315 197 1315 279 c 2,53,-1
 1315 357 l 2,54,55
 1315 442 1315 442 1268.5 506 c 128,-1,56
 1222 570 1222 570 1127 570 c 0,57,58
 1033 570 1033 570 986 506 c 128,-1,59
 939 442 939 442 939 357 c 2,46,-1
EndSplineSet
EndChar

StartChar: ampersand
Encoding: 38 38 11
Width: 1261
Flags: W
LayerCount: 2
Fore
SplineSet
1087 0 m 1,0,-1
 961 146 l 1,1,2
 882 69 882 69 778.5 24.5 c 128,-1,3
 675 -20 675 -20 561 -20 c 0,4,5
 351 -20 351 -20 229.5 88 c 128,-1,6
 108 196 108 196 108 371 c 0,7,8
 108 502 108 502 190 598 c 128,-1,9
 272 694 272 694 390 785 c 2,10,-1
 404 796 l 1,11,12
 327 890 327 890 283 972.5 c 128,-1,13
 239 1055 239 1055 239 1145 c 0,14,15
 239 1298 239 1298 330 1387.5 c 128,-1,16
 421 1477 421 1477 573 1477 c 0,17,18
 720 1477 720 1477 802 1392 c 128,-1,19
 884 1307 884 1307 884 1191 c 0,20,21
 884 1093 884 1093 822.5 1017 c 128,-1,22
 761 941 761 941 690 886 c 2,23,-1
 558 785 l 1,24,-1
 959 318 l 1,25,26
 1001 386 1001 386 1025.5 470.5 c 128,-1,27
 1050 555 1050 555 1050 652 c 1,28,-1
 1161 652 l 1,29,30
 1161 403 1161 403 1032 233 c 1,31,-1
 1232 0 l 1,32,-1
 1087 0 l 1,0,-1
359 1149 m 0,33,34
 359 1027 359 1027 493 862 c 1,35,-1
 625 961 l 2,36,37
 688 1008 688 1008 729.5 1062.5 c 128,-1,38
 771 1117 771 1117 771 1191 c 0,39,40
 771 1262 771 1262 720 1318.5 c 128,-1,41
 669 1375 669 1375 573 1375 c 0,42,43
 468 1375 468 1375 413.5 1307.5 c 128,-1,44
 359 1240 359 1240 359 1149 c 0,33,34
228 371 m 0,45,46
 228 256 228 256 310 169 c 128,-1,47
 392 82 392 82 561 82 c 0,48,49
 749 82 749 82 890 229 c 1,50,-1
 484 701 l 2,51,52
 477 710 477 710 470 717 c 1,53,-1
 423 681 l 1,54,55
 295 576 295 576 261.5 498.5 c 128,-1,56
 228 421 228 421 228 371 c 0,45,46
EndSplineSet
Substitution2: "'smcp' Lowercase to Small Capitals lookup 1 subtable" ampersand.smcp
Substitution2: "'c2sc' Capitals to Small Capitals lookup 0 subtable" ampersand.smcp
Position2: "'cpsp' Capital Spacing lookup 0 subtable" dx=36 dy=0 dh=72 dv=0
EndChar

StartChar: quotesingle
Encoding: 39 39 12
Width: 349
Flags: W
LayerCount: 2
Fore
SplineSet
227 1536 m 1,0,-1
 227 1396 l 1,1,-1
 209 1091 l 1,2,-1
 120 1091 l 1,3,-1
 125 1387 l 1,4,-1
 125 1536 l 1,5,-1
 227 1536 l 1,0,-1
EndSplineSet
EndChar

StartChar: parenleft
Encoding: 40 40 13
Width: 654
Flags: W
LayerCount: 2
Fore
SplineSet
141 574 m 2,0,-1
 141 589 l 2,1,2
 141 849 141 849 211 1062.5 c 128,-1,3
 281 1276 281 1276 385.5 1423.5 c 128,-1,4
 490 1571 490 1571 593 1633 c 1,5,-1
 622 1551 l 1,6,7
 533 1489 533 1489 450 1352 c 128,-1,8
 367 1215 367 1215 314 1020.5 c 128,-1,9
 261 826 261 826 261 592 c 2,10,-1
 261 572 l 2,11,12
 261 338 261 338 314 143 c 128,-1,13
 367 -52 367 -52 450 -190 c 128,-1,14
 533 -328 533 -328 622 -393 c 1,15,-1
 593 -470 l 1,16,17
 490 -408 490 -408 385.5 -263.5 c 128,-1,18
 281 -119 281 -119 211 94 c 128,-1,19
 141 307 141 307 141 574 c 2,0,-1
EndSplineSet
EndChar

StartChar: parenright
Encoding: 41 41 14
Width: 668
Flags: W
LayerCount: 2
Fore
SplineSet
514 589 m 2,0,-1
 514 574 l 2,1,2
 514 307 514 307 444 94 c 128,-1,3
 374 -119 374 -119 270 -263.5 c 128,-1,4
 166 -408 166 -408 62 -470 c 1,5,-1
 33 -393 l 1,6,7
 122 -330 122 -330 205 -192 c 128,-1,8
 288 -54 288 -54 341 142 c 128,-1,9
 394 338 394 338 394 572 c 2,10,-1
 394 592 l 2,11,12
 394 826 394 826 339.5 1021.5 c 128,-1,13
 285 1217 285 1217 201.5 1355.5 c 128,-1,14
 118 1494 118 1494 33 1556 c 1,15,-1
 62 1633 l 1,16,17
 166 1571 166 1571 270 1423.5 c 128,-1,18
 374 1276 374 1276 444 1062.5 c 128,-1,19
 514 849 514 849 514 589 c 2,0,-1
EndSplineSet
EndChar

StartChar: asterisk
Encoding: 42 42 15
Width: 869
Flags: W
LayerCount: 2
Fore
SplineSet
144 700 m 1,0,-1
 362 1001 l 1,1,-1
 29 1108 l 1,2,-1
 62 1209 l 1,3,-1
 393 1087 l 1,4,-1
 389 1456 l 1,5,-1
 494 1456 l 1,6,-1
 485 1084 l 1,7,-1
 810 1211 l 1,8,-1
 843 1109 l 1,9,-1
 509 995 l 1,10,-1
 733 700 l 1,11,-1
 647 637 l 1,12,-1
 433 943 l 1,13,-1
 229 639 l 1,14,-1
 144 700 l 1,0,-1
EndSplineSet
EndChar

StartChar: plus
Encoding: 43 43 16
Width: 1156
Flags: W
LayerCount: 2
Fore
SplineSet
1074 628 m 1,0,-1
 630 628 l 1,1,-1
 630 146 l 1,2,-1
 510 146 l 1,3,-1
 510 628 l 1,4,-1
 76 628 l 1,5,-1
 76 741 l 1,6,-1
 510 741 l 1,7,-1
 510 1206 l 1,8,-1
 630 1206 l 1,9,-1
 630 741 l 1,10,-1
 1074 741 l 1,11,-1
 1074 628 l 1,0,-1
EndSplineSet
EndChar

StartChar: comma
Encoding: 44 44 17
Width: 393
Flags: W
LayerCount: 2
Fore
SplineSet
272 189 m 1,0,-1
 272 49 l 2,1,2
 272 -146 272 -146 132 -273 c 1,3,-1
 61 -221 l 1,4,5
 107 -159 107 -159 130.5 -96.5 c 128,-1,6
 154 -34 154 -34 154 46 c 2,7,-1
 154 189 l 1,8,-1
 272 189 l 1,0,-1
EndSplineSet
EndChar

StartChar: hyphen
Encoding: 45 45 18
Width: 586
Flags: W
LayerCount: 2
Fore
SplineSet
528 694 m 1,0,-1
 528 592 l 1,1,-1
 49 592 l 1,2,-1
 49 694 l 1,3,-1
 528 694 l 1,0,-1
EndSplineSet
EndChar

StartChar: period
Encoding: 46 46 19
Width: 489
Flags: W
LayerCount: 2
Fore
SplineSet
146 73 m 0,0,1
 146 156 146 156 230 156 c 0,2,3
 316 156 316 156 316 73 c 0,4,5
 316 -9 316 -9 230 -9 c 0,6,7
 146 -9 146 -9 146 73 c 0,0,1
EndSplineSet
EndChar

StartChar: slash
Encoding: 47 47 20
Width: 814
Flags: W
LayerCount: 2
Fore
SplineSet
747 1456 m 1,0,-1
 139 -125 l 1,1,-1
 30 -125 l 1,2,-1
 638 1456 l 1,3,-1
 747 1456 l 1,0,-1
EndSplineSet
Substitution2: "'frac' Diagonal Fractions lookup 31 subtable" fraction
EndChar

StartChar: zero
Encoding: 48 48 21
Width: 1136
Flags: W
LayerCount: 2
Fore
SplineSet
1015 853 m 2,0,-1
 1015 608 l 2,1,2
 1015 287 1015 287 897.5 133.5 c 128,-1,3
 780 -20 780 -20 569 -20 c 0,4,5
 360 -20 360 -20 240 133.5 c 128,-1,6
 120 287 120 287 120 608 c 2,7,-1
 120 853 l 2,8,9
 120 1173 120 1173 239 1325 c 128,-1,10
 358 1477 358 1477 567 1477 c 0,11,12
 778 1477 778 1477 896.5 1325 c 128,-1,13
 1015 1173 1015 1173 1015 853 c 2,0,-1
896 594 m 2,14,-1
 896 868 l 2,15,16
 896 1375 896 1375 567 1375 c 0,17,18
 240 1375 240 1375 240 868 c 2,19,-1
 240 594 l 2,20,21
 240 349 240 349 323 215.5 c 128,-1,22
 406 82 406 82 569 82 c 0,23,24
 734 82 734 82 815 215.5 c 128,-1,25
 896 349 896 349 896 594 c 2,14,-1
EndSplineSet
Substitution2: "'numr' Numerators lookup 34 subtable" zero.frac
Substitution2: "'dnom' Denominators lookup 33 subtable" zero.sup
Substitution2: "'pnum' Proportional Numbers lookup 28 subtable" zero.pnum
Substitution2: "'onum' Oldstyle Figures lookup 27 subtable" zero.tnum
Substitution2: "'c2sc' Capitals to Small Capitals lookup 0 subtable" zero.smcp
Position2: "'cpsp' Capital Spacing lookup 0 subtable" dx=36 dy=0 dh=72 dv=0
EndChar

StartChar: one
Encoding: 49 49 22
Width: 1136
Flags: W
LayerCount: 2
Fore
SplineSet
694 1462 m 1,0,-1
 694 0 l 1,1,-1
 574 0 l 1,2,-1
 574 1312 l 1,3,-1
 179 1165 l 1,4,-1
 179 1277 l 1,5,-1
 674 1462 l 1,6,-1
 694 1462 l 1,0,-1
EndSplineSet
Substitution2: "'numr' Numerators lookup 34 subtable" onesuperior
Substitution2: "'dnom' Denominators lookup 33 subtable" one.sup
Substitution2: "'pnum' Proportional Numbers lookup 28 subtable" one.pnum
Substitution2: "'onum' Oldstyle Figures lookup 27 subtable" one.tnum
Substitution2: "'c2sc' Capitals to Small Capitals lookup 0 subtable" one.smcp
Position2: "'cpsp' Capital Spacing lookup 0 subtable" dx=36 dy=0 dh=72 dv=0
EndChar

StartChar: two
Encoding: 50 50 23
Width: 1136
Flags: W
LayerCount: 2
Fore
SplineSet
1050 102 m 1,0,-1
 1050 0 l 1,1,-1
 137 0 l 1,2,-1
 137 93 l 1,3,-1
 614 633 l 2,4,5
 748 785 748 785 802.5 884.5 c 128,-1,6
 857 984 857 984 857 1075 c 0,7,8
 857 1207 857 1207 779 1290.5 c 128,-1,9
 701 1374 701 1374 553 1374 c 0,10,11
 401 1374 401 1374 313 1278.5 c 128,-1,12
 225 1183 225 1183 225 1036 c 1,13,-1
 105 1036 l 1,14,15
 105 1217 105 1217 224 1346.5 c 128,-1,16
 343 1476 343 1476 553 1476 c 0,17,18
 750 1476 750 1476 863.5 1372.5 c 128,-1,19
 977 1269 977 1269 977 1086 c 0,20,21
 977 954 977 954 889.5 820 c 128,-1,22
 802 686 802 686 691 560 c 2,23,-1
 284 102 l 1,24,-1
 1050 102 l 1,0,-1
EndSplineSet
Substitution2: "'numr' Numerators lookup 34 subtable" twosuperior
Substitution2: "'dnom' Denominators lookup 33 subtable" two.sup
Substitution2: "'pnum' Proportional Numbers lookup 28 subtable" two.pnum
Substitution2: "'onum' Oldstyle Figures lookup 27 subtable" two.tnum
Substitution2: "'c2sc' Capitals to Small Capitals lookup 0 subtable" two.smcp
Position2: "'cpsp' Capital Spacing lookup 0 subtable" dx=36 dy=0 dh=72 dv=0
EndChar

StartChar: three
Encoding: 51 51 24
Width: 1136
Flags: W
LayerCount: 2
Fore
SplineSet
525 691 m 2,0,-1
 404 691 l 1,1,-1
 404 794 l 1,2,-1
 525 794 l 2,3,4
 693 794 693 794 779.5 877 c 128,-1,5
 866 960 866 960 866 1077 c 0,6,7
 866 1208 866 1208 791.5 1291 c 128,-1,8
 717 1374 717 1374 560 1374 c 0,9,10
 423 1374 423 1374 331.5 1293.5 c 128,-1,11
 240 1213 240 1213 240 1074 c 1,12,-1
 121 1074 l 1,13,14
 121 1251 121 1251 246 1363.5 c 128,-1,15
 371 1476 371 1476 560 1476 c 0,16,17
 752 1476 752 1476 868.5 1371 c 128,-1,18
 985 1266 985 1266 985 1073 c 0,19,20
 985 975 985 975 922 883.5 c 128,-1,21
 859 792 859 792 736 746 c 1,22,23
 880 707 880 707 946 612.5 c 128,-1,24
 1012 518 1012 518 1012 396 c 0,25,26
 1012 197 1012 197 885 88.5 c 128,-1,27
 758 -20 758 -20 565 -20 c 0,28,29
 447 -20 447 -20 340.5 26 c 128,-1,30
 234 72 234 72 166.5 164 c 128,-1,31
 99 256 99 256 99 395 c 1,32,-1
 219 395 l 1,33,34
 219 256 219 256 315.5 169 c 128,-1,35
 412 82 412 82 565 82 c 0,36,37
 720 82 720 82 806.5 162 c 128,-1,38
 893 242 893 242 893 392 c 0,39,40
 893 550 893 550 791 620.5 c 128,-1,41
 689 691 689 691 525 691 c 2,0,-1
EndSplineSet
Substitution2: "'numr' Numerators lookup 34 subtable" threesuperior
Substitution2: "'dnom' Denominators lookup 33 subtable" three.sup
Substitution2: "'pnum' Proportional Numbers lookup 28 subtable" three.pnum
Substitution2: "'onum' Oldstyle Figures lookup 27 subtable" three.tnum
Substitution2: "'c2sc' Capitals to Small Capitals lookup 0 subtable" three.smcp
Position2: "'cpsp' Capital Spacing lookup 0 subtable" dx=36 dy=0 dh=72 dv=0
EndChar

StartChar: four
Encoding: 52 52 25
Width: 1136
Flags: W
LayerCount: 2
Fore
SplineSet
68 437 m 1,0,-1
 741 1456 l 1,1,-1
 872 1456 l 1,2,-1
 872 470 l 1,3,-1
 1099 470 l 1,4,-1
 1099 368 l 1,5,-1
 872 368 l 1,6,-1
 872 0 l 1,7,-1
 752 0 l 1,8,-1
 752 368 l 1,9,-1
 68 368 l 1,10,-1
 68 437 l 1,0,-1
215 470 m 1,11,-1
 752 470 l 1,12,-1
 752 1301 l 1,13,-1
 699 1209 l 1,14,-1
 215 470 l 1,11,-1
EndSplineSet
Substitution2: "'numr' Numerators lookup 34 subtable" four.frac
Substitution2: "'dnom' Denominators lookup 33 subtable" four.sup
Substitution2: "'pnum' Proportional Numbers lookup 28 subtable" four.pnum
Substitution2: "'onum' Oldstyle Figures lookup 27 subtable" four.tnum
Substitution2: "'c2sc' Capitals to Small Capitals lookup 0 subtable" four.smcp
Position2: "'cpsp' Capital Spacing lookup 0 subtable" dx=36 dy=0 dh=72 dv=0
EndChar

StartChar: five
Encoding: 53 53 26
Width: 1136
Flags: W
LayerCount: 2
Fore
SplineSet
313 720 m 1,0,-1
 219 747 l 1,1,-1
 290 1456 l 1,2,-1
 1018 1456 l 1,3,-1
 1018 1345 l 1,4,-1
 393 1345 l 1,5,-1
 341 853 l 1,6,7
 378 880 378 880 451 907 c 128,-1,8
 524 934 524 934 615 934 c 0,9,10
 810 934 810 934 928.5 808 c 128,-1,11
 1047 682 1047 682 1047 464 c 0,12,13
 1047 255 1047 255 942.5 117.5 c 128,-1,14
 838 -20 838 -20 611 -20 c 0,15,16
 438 -20 438 -20 312 79 c 128,-1,17
 186 178 186 178 168 383 c 1,18,-1
 283 383 l 1,19,20
 317 82 317 82 611 82 c 0,21,22
 766 82 766 82 846.5 181 c 128,-1,23
 927 280 927 280 927 462 c 0,24,25
 927 616 927 616 840.5 720.5 c 128,-1,26
 754 825 754 825 594 825 c 0,27,28
 490 825 490 825 428 796.5 c 128,-1,29
 366 768 366 768 313 720 c 1,0,-1
EndSplineSet
Substitution2: "'numr' Numerators lookup 34 subtable" five.frac
Substitution2: "'dnom' Denominators lookup 33 subtable" five.sup
Substitution2: "'pnum' Proportional Numbers lookup 28 subtable" five.pnum
Substitution2: "'onum' Oldstyle Figures lookup 27 subtable" five.tnum
Substitution2: "'c2sc' Capitals to Small Capitals lookup 0 subtable" five.smcp
Position2: "'cpsp' Capital Spacing lookup 0 subtable" dx=36 dy=0 dh=72 dv=0
EndChar

StartChar: six
Encoding: 54 54 27
Width: 1136
Flags: W
LayerCount: 2
Fore
SplineSet
1033 478 m 0,0,1
 1033 268 1033 268 918 124 c 128,-1,2
 803 -20 803 -20 602 -20 c 0,3,4
 382 -20 382 -20 256 137.5 c 128,-1,5
 130 295 130 295 130 515 c 2,6,-1
 130 643 l 2,7,8
 130 1016 130 1016 302 1241.5 c 128,-1,9
 474 1467 474 1467 826 1467 c 2,10,-1
 844 1467 l 1,11,-1
 844 1363 l 1,12,-1
 826 1363 l 2,13,14
 565 1363 565 1363 417 1207.5 c 128,-1,15
 269 1052 269 1052 252 781 c 1,16,17
 377 956 377 956 614 956 c 0,18,19
 823 956 823 956 928 813.5 c 128,-1,20
 1033 671 1033 671 1033 478 c 0,0,1
250 513 m 2,21,22
 250 311 250 311 352.5 196.5 c 128,-1,23
 455 82 455 82 602 82 c 0,24,25
 748 82 748 82 831 197 c 128,-1,26
 914 312 914 312 914 473 c 0,27,28
 914 628 914 628 835 741 c 128,-1,29
 756 854 756 854 595 854 c 0,30,31
 476 854 476 854 378.5 784.5 c 128,-1,32
 281 715 281 715 250 612 c 1,33,-1
 250 513 l 2,21,22
EndSplineSet
Substitution2: "'numr' Numerators lookup 34 subtable" six.frac
Substitution2: "'dnom' Denominators lookup 33 subtable" six.sup
Substitution2: "'lnum' Lining Figures lookup 30 subtable" six.pnum
Substitution2: "'tnum' Tabular Numbers lookup 29 subtable" six.tnum
Substitution2: "'pnum' Proportional Numbers lookup 28 subtable" six.pnum
Substitution2: "'onum' Oldstyle Figures lookup 27 subtable" six.tnum
Substitution2: "'c2sc' Capitals to Small Capitals lookup 0 subtable" six.smcp
Position2: "'cpsp' Capital Spacing lookup 0 subtable" dx=36 dy=0 dh=72 dv=0
EndChar

StartChar: seven
Encoding: 55 55 28
Width: 1136
Flags: W
LayerCount: 2
Fore
SplineSet
1034 1456 m 1,0,-1
 1034 1388 l 1,1,-1
 412 0 l 1,2,-1
 288 0 l 1,3,-1
 905 1354 l 1,4,-1
 77 1354 l 1,5,-1
 77 1456 l 1,6,-1
 1034 1456 l 1,0,-1
EndSplineSet
Substitution2: "'numr' Numerators lookup 34 subtable" seven.frac
Substitution2: "'dnom' Denominators lookup 33 subtable" seven.sup
Substitution2: "'pnum' Proportional Numbers lookup 28 subtable" seven.pnum
Substitution2: "'onum' Oldstyle Figures lookup 27 subtable" seven.tnum
Substitution2: "'c2sc' Capitals to Small Capitals lookup 0 subtable" seven.smcp
Position2: "'cpsp' Capital Spacing lookup 0 subtable" dx=36 dy=0 dh=72 dv=0
EndChar

StartChar: eight
Encoding: 56 56 29
Width: 1136
Flags: W
LayerCount: 2
Fore
SplineSet
1032 386 m 0,0,1
 1032 187 1032 187 898 83.5 c 128,-1,2
 764 -20 764 -20 569 -20 c 0,3,4
 373 -20 373 -20 239 83.5 c 128,-1,5
 105 187 105 187 105 386 c 0,6,7
 105 514 105 514 179.5 609.5 c 128,-1,8
 254 705 254 705 378 748 c 1,9,10
 271 791 271 791 207 879 c 128,-1,11
 143 967 143 967 143 1082 c 0,12,13
 143 1272 143 1272 264 1374 c 128,-1,14
 385 1476 385 1476 567 1476 c 256,15,16
 749 1476 749 1476 871.5 1374 c 128,-1,17
 994 1272 994 1272 994 1082 c 0,18,19
 994 966 994 966 928.5 878.5 c 128,-1,20
 863 791 863 791 756 748 c 1,21,22
 880 705 880 705 956 609.5 c 128,-1,23
 1032 514 1032 514 1032 386 c 0,0,1
875 1082 m 0,24,25
 875 1210 875 1210 786.5 1292 c 128,-1,26
 698 1374 698 1374 567 1374 c 0,27,28
 434 1374 434 1374 348 1296 c 128,-1,29
 262 1218 262 1218 262 1082 c 0,30,31
 262 952 262 952 348.5 875 c 128,-1,32
 435 798 435 798 568 798 c 0,33,34
 700 798 700 798 787.5 875 c 128,-1,35
 875 952 875 952 875 1082 c 0,24,25
912 386 m 0,36,37
 912 526 912 526 813.5 611 c 128,-1,38
 715 696 715 696 567 696 c 0,39,40
 417 696 417 696 321 611 c 128,-1,41
 225 526 225 526 225 386 c 0,42,43
 225 240 225 240 321 161 c 128,-1,44
 417 82 417 82 569 82 c 0,45,46
 719 82 719 82 815.5 161 c 128,-1,47
 912 240 912 240 912 386 c 0,36,37
EndSplineSet
Substitution2: "'numr' Numerators lookup 34 subtable" eight.frac
Substitution2: "'dnom' Denominators lookup 33 subtable" eight.sup
Substitution2: "'lnum' Lining Figures lookup 30 subtable" eight.pnum
Substitution2: "'tnum' Tabular Numbers lookup 29 subtable" eight.tnum
Substitution2: "'pnum' Proportional Numbers lookup 28 subtable" eight.pnum
Substitution2: "'onum' Oldstyle Figures lookup 27 subtable" eight.tnum
Substitution2: "'c2sc' Capitals to Small Capitals lookup 0 subtable" eight.smcp
Position2: "'cpsp' Capital Spacing lookup 0 subtable" dx=36 dy=0 dh=72 dv=0
EndChar

StartChar: nine
Encoding: 57 57 30
Width: 1136
Flags: W
LayerCount: 2
Fore
SplineSet
1005 779 m 2,0,1
 1005 563 1005 563 945.5 383.5 c 128,-1,2
 886 204 886 204 738.5 96.5 c 128,-1,3
 591 -11 591 -11 328 -11 c 2,4,-1
 302 -11 l 1,5,-1
 303 93 l 1,6,-1
 328 93 l 2,7,8
 635 93 635 93 757 259 c 128,-1,9
 879 425 879 425 885 675 c 1,10,11
 825 586 825 586 730 531.5 c 128,-1,12
 635 477 635 477 519 477 c 0,13,14
 383 477 383 477 290 547 c 128,-1,15
 197 617 197 617 149.5 728.5 c 128,-1,16
 102 840 102 840 102 965 c 0,17,18
 102 1175 102 1175 218 1325.5 c 128,-1,19
 334 1476 334 1476 541 1476 c 0,20,21
 776 1476 776 1476 890.5 1313 c 128,-1,22
 1005 1150 1005 1150 1005 895 c 2,23,-1
 1005 779 l 2,0,1
220 970 m 0,24,25
 220 821 220 821 300.5 700.5 c 128,-1,26
 381 580 381 580 534 580 c 0,27,28
 670 580 670 580 760.5 659.5 c 128,-1,29
 851 739 851 739 885 836 c 1,30,-1
 885 907 l 2,31,32
 885 1136 885 1136 789.5 1254.5 c 128,-1,33
 694 1373 694 1373 544 1373 c 0,34,35
 392 1373 392 1373 306 1252 c 128,-1,36
 220 1131 220 1131 220 970 c 0,24,25
EndSplineSet
Substitution2: "'numr' Numerators lookup 34 subtable" nine.frac
Substitution2: "'dnom' Denominators lookup 33 subtable" nine.sup
Substitution2: "'pnum' Proportional Numbers lookup 28 subtable" nine.pnum
Substitution2: "'onum' Oldstyle Figures lookup 27 subtable" nine.tnum
Substitution2: "'c2sc' Capitals to Small Capitals lookup 0 subtable" nine.smcp
Position2: "'cpsp' Capital Spacing lookup 0 subtable" dx=36 dy=0 dh=72 dv=0
EndChar

StartChar: less
Encoding: 60 60 33
Width: 1047
Flags: W
LayerCount: 2
Fore
SplineSet
905 230 m 1,0,-1
 77 609 l 1,1,-1
 77 705 l 1,2,-1
 905 1083 l 1,3,-1
 905 958 l 1,4,-1
 209 656 l 1,5,-1
 905 356 l 1,6,-1
 905 230 l 1,0,-1
EndSplineSet
EndChar

StartChar: equal
Encoding: 61 61 34
Width: 1133
Flags: W
LayerCount: 2
Fore
SplineSet
984 935 m 1,0,-1
 984 829 l 1,1,-1
 150 829 l 1,2,-1
 150 935 l 1,3,-1
 984 935 l 1,0,-1
984 524 m 1,4,-1
 984 418 l 1,5,-1
 150 418 l 1,6,-1
 150 524 l 1,7,-1
 984 524 l 1,4,-1
EndSplineSet
EndChar

StartChar: greater
Encoding: 62 62 35
Width: 1062
Flags: W
LayerCount: 2
Fore
SplineSet
124 1086 m 1,0,-1
 969 708 l 1,1,-1
 969 611 l 1,2,-1
 124 232 l 1,3,-1
 124 356 l 1,4,-1
 835 660 l 1,5,-1
 124 962 l 1,6,-1
 124 1086 l 1,0,-1
EndSplineSet
EndChar

StartChar: question
Encoding: 63 63 36
Width: 930
Flags: W
LayerCount: 2
Fore
SplineSet
496 405 m 1,0,-1
 376 405 l 1,1,2
 378 532 378 532 414 605 c 128,-1,3
 450 678 450 678 541 767 c 0,4,5
 621 846 621 846 672.5 914 c 128,-1,6
 724 982 724 982 724 1102 c 0,7,8
 724 1221 724 1221 660 1295.5 c 128,-1,9
 596 1370 596 1370 472 1370 c 0,10,11
 356 1370 356 1370 281 1302.5 c 128,-1,12
 206 1235 206 1235 204 1116 c 1,13,-1
 84 1116 l 1,14,15
 86 1287 86 1287 199 1381.5 c 128,-1,16
 312 1476 312 1476 472 1476 c 0,17,18
 651 1476 651 1476 747.5 1372.5 c 128,-1,19
 844 1269 844 1269 844 1103 c 0,20,21
 844 970 844 970 778 873 c 128,-1,22
 712 776 712 776 608 681 c 0,23,24
 544 626 544 626 520 555.5 c 128,-1,25
 496 485 496 485 496 405 c 1,0,-1
360 71 m 256,26,27
 360 151 360 151 442 151 c 0,28,29
 525 151 525 151 525 71 c 256,30,31
 525 -9 525 -9 442 -9 c 0,32,33
 360 -9 360 -9 360 71 c 256,26,27
EndSplineSet
EndChar

StartChar: at
Encoding: 64 64 37
Width: 1871
Flags: W
LayerCount: 2
Fore
SplineSet
1263 -364 m 1,0,1
 1196 -408 1196 -408 1092.5 -430.5 c 128,-1,2
 989 -453 989 -453 898 -453 c 0,3,4
 518 -453 518 -453 311 -202.5 c 128,-1,5
 104 48 104 48 121 478 c 0,6,7
 133 758 133 758 243 970.5 c 128,-1,8
 353 1183 353 1183 543 1302 c 128,-1,9
 733 1421 733 1421 984 1421 c 0,10,11
 1383 1421 1383 1421 1575 1175.5 c 128,-1,12
 1767 930 1767 930 1750 513 c 0,13,14
 1745 388 1745 388 1704.5 265 c 128,-1,15
 1664 142 1664 142 1580 61 c 128,-1,16
 1496 -20 1496 -20 1361 -20 c 0,17,18
 1163 -20 1163 -20 1122 176 c 1,19,20
 1013 -20 1013 -20 823 -20 c 0,21,22
 681 -20 681 -20 613 102.5 c 128,-1,23
 545 225 545 225 563 427 c 0,24,25
 586 685 586 685 711 837 c 128,-1,26
 836 989 836 989 998 989 c 0,27,28
 1099 989 1099 989 1157 956.5 c 128,-1,29
 1215 924 1215 924 1267 881 c 1,30,-1
 1217 311 l 2,31,32
 1208 204 1208 204 1234 151.5 c 128,-1,33
 1260 99 1260 99 1300.5 82.5 c 128,-1,34
 1341 66 1341 66 1373 66 c 0,35,36
 1506 66 1506 66 1577.5 194.5 c 128,-1,37
 1649 323 1649 323 1657 513 c 0,38,39
 1676 891 1676 891 1514 1109 c 128,-1,40
 1352 1327 1352 1327 980 1327 c 0,41,42
 657 1327 657 1327 448.5 1095.5 c 128,-1,43
 240 864 240 864 221 478 c 0,44,45
 203 105 203 105 381.5 -129.5 c 128,-1,46
 560 -364 560 -364 902 -364 c 0,47,48
 1096 -364 1096 -364 1233 -285 c 1,49,-1
 1263 -364 l 1,0,1
670 427 m 0,50,51
 653 272 653 272 697.5 175 c 128,-1,52
 742 78 742 78 845 78 c 0,53,54
 917 78 917 78 992 130 c 128,-1,55
 1067 182 1067 182 1118 332 c 1,56,-1
 1163 848 l 1,57,58
 1134 870 1134 870 1094 884 c 128,-1,59
 1054 898 1054 898 1004 898 c 0,60,61
 884 898 884 898 788.5 782 c 128,-1,62
 693 666 693 666 670 427 c 0,50,51
EndSplineSet
EndChar

StartChar: A
Encoding: 65 65 38
Width: 1280
GlyphClass: 2
Flags: W
AnchorPoint: "Anchor-5" 1280 1607 basechar 0
AnchorPoint: "Anchor-3" 1280 -407 basechar 0
AnchorPoint: "Anchor-2" 1280 1600 basechar 0
AnchorPoint: "Anchor-1" 662 0 basechar 0
AnchorPoint: "Anchor-0" 642 1607 basechar 0
LayerCount: 2
Fore
SplineSet
31 0 m 1,0,-1
 581 1456 l 1,1,-1
 698 1456 l 1,2,-1
 1249 0 l 1,3,-1
 1121 0 l 1,4,-1
 971 408 l 1,5,-1
 309 408 l 1,6,-1
 159 0 l 1,7,-1
 31 0 l 1,0,-1
348 513 m 1,8,-1
 932 513 l 1,9,-1
 640 1307 l 1,10,-1
 348 513 l 1,8,-1
EndSplineSet
Substitution2: "'unic' Unicase lookup 2 subtable" A.unic
Substitution2: "'c2sc' Capitals to Small Capitals lookup 0 subtable" A.smcp
Position2: "'cpsp' Capital Spacing lookup 0 subtable" dx=36 dy=0 dh=72 dv=0
EndChar

StartChar: B
Encoding: 66 66 39
Width: 1255
GlyphClass: 2
Flags: W
AnchorPoint: "Anchor-5" 1255 1612 basechar 0
AnchorPoint: "Anchor-3" 1255 -407 basechar 0
AnchorPoint: "Anchor-2" 1255 1600 basechar 0
AnchorPoint: "Anchor-1" 587 10 basechar 0
AnchorPoint: "Anchor-0" 583 1612 basechar 0
LayerCount: 2
Fore
SplineSet
1143 410 m 0,0,1
 1143 211 1143 211 1014.5 105.5 c 128,-1,2
 886 0 886 0 677 0 c 2,3,-1
 185 0 l 1,4,-1
 185 1456 l 1,5,-1
 615 1456 l 2,6,7
 836 1456 836 1456 963 1365 c 128,-1,8
 1090 1274 1090 1274 1090 1076 c 0,9,10
 1090 964 1090 964 1029.5 880 c 128,-1,11
 969 796 969 796 860 760 c 1,12,13
 989 732 989 732 1066 634.5 c 128,-1,14
 1143 537 1143 537 1143 410 c 0,0,1
308 1351 m 1,15,-1
 308 804 l 1,16,-1
 627 804 l 2,17,18
 788 804 788 804 877 873.5 c 128,-1,19
 966 943 966 943 966 1078 c 0,20,21
 966 1351 966 1351 615 1351 c 2,22,-1
 308 1351 l 1,15,-1
1019 408 m 0,23,24
 1019 532 1019 532 937.5 616.5 c 128,-1,25
 856 701 856 701 686 701 c 2,26,-1
 308 701 l 1,27,-1
 308 104 l 1,28,-1
 677 104 l 2,29,30
 838 104 838 104 928.5 185 c 128,-1,31
 1019 266 1019 266 1019 408 c 0,23,24
EndSplineSet
Substitution2: "'c2sc' Capitals to Small Capitals lookup 0 subtable" B.smcp
Position2: "'cpsp' Capital Spacing lookup 0 subtable" dx=36 dy=0 dh=72 dv=0
EndChar

StartChar: C
Encoding: 67 67 40
Width: 1330
GlyphClass: 2
Flags: W
AnchorPoint: "Anchor-5" 1330 1633 basechar 0
AnchorPoint: "Anchor-3" 1330 -407 basechar 0
AnchorPoint: "Anchor-2" 1330 1600 basechar 0
AnchorPoint: "Anchor-1" 679 -10 basechar 0
AnchorPoint: "Anchor-0" 679 1633 basechar 0
LayerCount: 2
Fore
SplineSet
1092 454 m 1,0,-1
 1215 454 l 1,1,2
 1192 232 1192 232 1056 106 c 128,-1,3
 920 -20 920 -20 680 -20 c 0,4,5
 431 -20 431 -20 281.5 161 c 128,-1,6
 132 342 132 342 132 637 c 2,7,-1
 132 819 l 2,8,9
 132 1114 132 1114 282.5 1295 c 128,-1,10
 433 1476 433 1476 688 1476 c 0,11,12
 921 1476 921 1476 1056.5 1350.5 c 128,-1,13
 1192 1225 1192 1225 1215 1001 c 1,14,-1
 1092 1001 l 1,15,16
 1070 1177 1070 1177 973 1274 c 128,-1,17
 876 1371 876 1371 688 1371 c 0,18,19
 486 1371 486 1371 370.5 1219.5 c 128,-1,20
 255 1068 255 1068 255 821 c 2,21,-1
 255 637 l 2,22,23
 255 396 255 396 366 240 c 128,-1,24
 477 84 477 84 680 84 c 0,25,26
 873 84 873 84 971 177 c 128,-1,27
 1069 270 1069 270 1092 454 c 1,0,-1
EndSplineSet
Substitution2: "'ss06' Style Set 6 lookup 25 subtable" C.ss06
Substitution2: "'c2sc' Capitals to Small Capitals lookup 0 subtable" C.smcp
Position2: "'cpsp' Capital Spacing lookup 0 subtable" dx=36 dy=0 dh=72 dv=0
EndChar

StartChar: D
Encoding: 68 68 41
Width: 1342
GlyphClass: 2
Flags: W
AnchorPoint: "Anchor-5" 1342 1612 basechar 0
AnchorPoint: "Anchor-3" 1342 -407 basechar 0
AnchorPoint: "Anchor-2" 1342 1600 basechar 0
AnchorPoint: "Anchor-1" 601 10 basechar 0
AnchorPoint: "Anchor-0" 599 1612 basechar 0
LayerCount: 2
Fore
SplineSet
185 0 m 1,0,-1
 185 1456 l 1,1,-1
 592 1456 l 2,2,3
 864 1456 864 1456 1038.5 1275 c 128,-1,4
 1213 1094 1213 1094 1213 795 c 2,5,-1
 1213 661 l 2,6,7
 1213 361 1213 361 1038.5 180.5 c 128,-1,8
 864 0 864 0 583 0 c 2,9,-1
 185 0 l 1,0,-1
592 1351 m 2,10,-1
 308 1351 l 1,11,-1
 308 104 l 1,12,-1
 583 104 l 2,13,14
 817 104 817 104 954 258.5 c 128,-1,15
 1091 413 1091 413 1091 661 c 2,16,-1
 1091 797 l 2,17,18
 1091 1049 1091 1049 954 1200 c 128,-1,19
 817 1351 817 1351 592 1351 c 2,10,-1
EndSplineSet
Substitution2: "'ss06' Style Set 6 lookup 25 subtable" D.ss06
Substitution2: "'c2sc' Capitals to Small Capitals lookup 0 subtable" D.smcp
Position2: "'cpsp' Capital Spacing lookup 0 subtable" dx=36 dy=0 dh=72 dv=0
EndChar

StartChar: E
Encoding: 69 69 42
Width: 1165
GlyphClass: 2
Flags: W
AnchorPoint: "Anchor-5" 1165 1612 basechar 0
AnchorPoint: "Anchor-3" 1165 -407 basechar 0
AnchorPoint: "Anchor-2" 1165 1600 basechar 0
AnchorPoint: "Anchor-1" 619 10 basechar 0
AnchorPoint: "Anchor-0" 619 1612 basechar 0
LayerCount: 2
Fore
SplineSet
185 0 m 1,0,-1
 185 1456 l 1,1,-1
 1085 1456 l 1,2,-1
 1085 1351 l 1,3,-1
 308 1351 l 1,4,-1
 308 803 l 1,5,-1
 988 803 l 1,6,-1
 988 698 l 1,7,-1
 308 698 l 1,8,-1
 308 104 l 1,9,-1
 1090 104 l 1,10,-1
 1090 0 l 1,11,-1
 185 0 l 1,0,-1
EndSplineSet
Substitution2: "'unic' Unicase lookup 2 subtable" E.unic
Substitution2: "'c2sc' Capitals to Small Capitals lookup 0 subtable" E.smcp
Position2: "'cpsp' Capital Spacing lookup 0 subtable" dx=36 dy=0 dh=72 dv=0
EndChar

StartChar: F
Encoding: 70 70 43
Width: 1152
GlyphClass: 2
Flags: W
AnchorPoint: "Anchor-5" 1152 1612 basechar 0
AnchorPoint: "Anchor-3" 1152 -407 basechar 0
AnchorPoint: "Anchor-2" 1152 1600 basechar 0
AnchorPoint: "Anchor-1" 531 10 basechar 0
AnchorPoint: "Anchor-0" 619 1612 basechar 0
LayerCount: 2
Fore
SplineSet
185 0 m 1,0,-1
 185 1456 l 1,1,-1
 1087 1456 l 1,2,-1
 1087 1351 l 1,3,-1
 308 1351 l 1,4,-1
 308 786 l 1,5,-1
 986 786 l 1,6,-1
 986 680 l 1,7,-1
 308 680 l 1,8,-1
 308 0 l 1,9,-1
 185 0 l 1,0,-1
EndSplineSet
Substitution2: "'c2sc' Capitals to Small Capitals lookup 0 subtable" F.smcp
Position2: "'cpsp' Capital Spacing lookup 0 subtable" dx=36 dy=0 dh=72 dv=0
EndChar

StartChar: G
Encoding: 71 71 44
Width: 1401
GlyphClass: 2
Flags: W
AnchorPoint: "Anchor-5" 1401 1633 basechar 0
AnchorPoint: "Anchor-3" 1401 -407 basechar 0
AnchorPoint: "Anchor-2" 1401 1600 basechar 0
AnchorPoint: "Anchor-1" 729 -5 basechar 0
AnchorPoint: "Anchor-0" 687 1633 basechar 0
LayerCount: 2
Fore
SplineSet
1235 692 m 1,0,-1
 1235 174 l 1,1,2
 1197 119 1197 119 1077.5 49.5 c 128,-1,3
 958 -20 958 -20 729 -20 c 0,4,5
 472 -20 472 -20 308.5 160 c 128,-1,6
 145 340 145 340 145 645 c 2,7,-1
 145 822 l 2,8,9
 145 1122 145 1122 296.5 1299 c 128,-1,10
 448 1476 448 1476 710 1476 c 0,11,12
 953 1476 953 1476 1081.5 1353 c 128,-1,13
 1210 1230 1210 1230 1234 1046 c 1,14,-1
 1111 1046 l 1,15,16
 1089 1176 1089 1176 998 1273.5 c 128,-1,17
 907 1371 907 1371 710 1371 c 0,18,19
 497 1371 497 1371 383 1220.5 c 128,-1,20
 269 1070 269 1070 269 824 c 2,21,-1
 269 645 l 2,22,23
 269 391 269 391 395.5 237.5 c 128,-1,24
 522 84 522 84 730 84 c 0,25,26
 896 84 896 84 989 128.5 c 128,-1,27
 1082 173 1082 173 1113 211 c 1,28,-1
 1113 587 l 1,29,-1
 722 587 l 1,30,-1
 722 692 l 1,31,-1
 1235 692 l 1,0,-1
EndSplineSet
Substitution2: "'ss06' Style Set 6 lookup 25 subtable" G.ss06
Substitution2: "'c2sc' Capitals to Small Capitals lookup 0 subtable" G.smcp
Position2: "'cpsp' Capital Spacing lookup 0 subtable" dx=36 dy=0 dh=72 dv=0
EndChar

StartChar: H
Encoding: 72 72 45
Width: 1449
GlyphClass: 2
Flags: W
AnchorPoint: "Anchor-5" 1449 1612 basechar 0
AnchorPoint: "Anchor-3" 1449 -407 basechar 0
AnchorPoint: "Anchor-2" 1449 1600 basechar 0
AnchorPoint: "Anchor-1" 715 10 basechar 0
AnchorPoint: "Anchor-0" 714 1612 basechar 0
LayerCount: 2
Fore
SplineSet
1140 0 m 1,0,-1
 1140 698 l 1,1,-1
 308 698 l 1,2,-1
 308 0 l 1,3,-1
 185 0 l 1,4,-1
 185 1456 l 1,5,-1
 308 1456 l 1,6,-1
 308 803 l 1,7,-1
 1140 803 l 1,8,-1
 1140 1456 l 1,9,-1
 1263 1456 l 1,10,-1
 1263 0 l 1,11,-1
 1140 0 l 1,0,-1
EndSplineSet
Substitution2: "'c2sc' Capitals to Small Capitals lookup 0 subtable" H.smcp
Position2: "'cpsp' Capital Spacing lookup 0 subtable" dx=36 dy=0 dh=72 dv=0
EndChar

StartChar: I
Encoding: 73 73 46
Width: 546
GlyphClass: 2
Flags: W
AnchorPoint: "Anchor-5" 546 1612 basechar 0
AnchorPoint: "Anchor-3" 546 -407 basechar 0
AnchorPoint: "Anchor-2" 546 1600 basechar 0
AnchorPoint: "Anchor-1" 273 5 basechar 0
AnchorPoint: "Anchor-0" 273 1612 basechar 0
LayerCount: 2
Fore
SplineSet
335 1456 m 1,0,-1
 335 0 l 1,1,-1
 212 0 l 1,2,-1
 212 1456 l 1,3,-1
 335 1456 l 1,0,-1
EndSplineSet
Substitution2: "'c2sc' Capitals to Small Capitals lookup 0 subtable" I.smcp
Position2: "'cpsp' Capital Spacing lookup 0 subtable" dx=36 dy=0 dh=72 dv=0
EndChar

StartChar: J
Encoding: 74 74 47
Width: 1128
GlyphClass: 2
Flags: W
AnchorPoint: "Anchor-5" 1128 1591 basechar 0
AnchorPoint: "Anchor-3" 1128 -407 basechar 0
AnchorPoint: "Anchor-2" 1128 1600 basechar 0
AnchorPoint: "Anchor-1" 512 -10 basechar 0
AnchorPoint: "Anchor-0" 877 1591 basechar 0
LayerCount: 2
Fore
SplineSet
828 434 m 2,0,-1
 828 1456 l 1,1,-1
 951 1456 l 1,2,-1
 951 434 l 2,3,4
 951 214 951 214 826 97 c 128,-1,5
 701 -20 701 -20 511 -20 c 0,6,7
 314 -20 314 -20 193 84 c 128,-1,8
 72 188 72 188 72 402 c 1,9,-1
 195 402 l 1,10,11
 195 244 195 244 278.5 164 c 128,-1,12
 362 84 362 84 511 84 c 0,13,14
 644 84 644 84 736 173 c 128,-1,15
 828 262 828 262 828 434 c 2,0,-1
EndSplineSet
Substitution2: "'c2sc' Capitals to Small Capitals lookup 0 subtable" J.smcp
Position2: "'cpsp' Capital Spacing lookup 0 subtable" dx=36 dy=0 dh=72 dv=0
EndChar

StartChar: K
Encoding: 75 75 48
Width: 1292
GlyphClass: 2
Flags: W
AnchorPoint: "Anchor-5" 1292 1559 basechar 0
AnchorPoint: "Anchor-3" 1292 -407 basechar 0
AnchorPoint: "Anchor-2" 1292 1600 basechar 0
AnchorPoint: "Anchor-1" 641 100 basechar 0
AnchorPoint: "Anchor-0" 603 1559 basechar 0
LayerCount: 2
Fore
SplineSet
1106 0 m 1,0,-1
 513 723 l 1,1,-1
 308 522 l 1,2,-1
 308 0 l 1,3,-1
 185 0 l 1,4,-1
 185 1456 l 1,5,-1
 308 1456 l 1,6,-1
 308 673 l 1,7,-1
 506 879 l 1,8,-1
 1053 1456 l 1,9,-1
 1208 1456 l 1,10,-1
 598 808 l 1,11,-1
 1256 0 l 1,12,-1
 1106 0 l 1,0,-1
EndSplineSet
Substitution2: "'ss05' Style Set 5 lookup 24 subtable" K.alt2
Substitution2: "'ss04' Style Set 4 lookup 23 subtable" K.alt
Substitution2: "'salt' Stylistic Alternatives lookup 19 subtable" K.alt
Substitution2: "'c2sc' Capitals to Small Capitals lookup 0 subtable" K.smcp
Position2: "'cpsp' Capital Spacing lookup 0 subtable" dx=36 dy=0 dh=72 dv=0
EndChar

StartChar: L
Encoding: 76 76 49
Width: 1080
GlyphClass: 2
Flags: W
AnchorPoint: "Anchor-5" 1080 1572 basechar 0
AnchorPoint: "Anchor-3" 1080 -407 basechar 0
AnchorPoint: "Anchor-2" 1080 1600 basechar 0
AnchorPoint: "Anchor-1" 622 10 basechar 0
AnchorPoint: "Anchor-0" 248 1572 basechar 0
LayerCount: 2
Fore
SplineSet
1027 104 m 1,0,-1
 1027 0 l 1,1,-1
 185 0 l 1,2,-1
 185 1456 l 1,3,-1
 309 1456 l 1,4,-1
 309 104 l 1,5,-1
 1027 104 l 1,0,-1
EndSplineSet
Substitution2: "'c2sc' Capitals to Small Capitals lookup 0 subtable" L.smcp
Position2: "'cpsp' Capital Spacing lookup 0 subtable" dx=36 dy=0 dh=72 dv=0
EndChar

StartChar: M
Encoding: 77 77 50
Width: 1772
GlyphClass: 2
Flags: W
AnchorPoint: "Anchor-5" 1772 1607 basechar 0
AnchorPoint: "Anchor-3" 1772 -407 basechar 0
AnchorPoint: "Anchor-2" 1772 1600 basechar 0
AnchorPoint: "Anchor-1" 886 10 basechar 0
AnchorPoint: "Anchor-0" 890 1607 basechar 0
LayerCount: 2
Fore
SplineSet
885 172 m 1,0,-1
 1423 1456 l 1,1,-1
 1587 1456 l 1,2,-1
 1587 0 l 1,3,-1
 1464 0 l 1,4,-1
 1464 637 l 1,5,-1
 1475 1286 l 1,6,-1
 932 0 l 1,7,-1
 837 0 l 1,8,-1
 297 1281 l 1,9,-1
 308 637 l 1,10,-1
 308 0 l 1,11,-1
 185 0 l 1,12,-1
 185 1456 l 1,13,-1
 347 1456 l 1,14,-1
 885 172 l 1,0,-1
EndSplineSet
Substitution2: "'unic' Unicase lookup 2 subtable" M.unic
Substitution2: "'c2sc' Capitals to Small Capitals lookup 0 subtable" M.smcp
Position2: "'cpsp' Capital Spacing lookup 0 subtable" dx=36 dy=0 dh=72 dv=0
EndChar

StartChar: N
Encoding: 78 78 51
Width: 1455
GlyphClass: 2
Flags: W
AnchorPoint: "Anchor-5" 1455 1607 basechar 0
AnchorPoint: "Anchor-3" 1455 -407 basechar 0
AnchorPoint: "Anchor-2" 1455 1600 basechar 0
AnchorPoint: "Anchor-1" 723 10 basechar 0
AnchorPoint: "Anchor-0" 726 1607 basechar 0
LayerCount: 2
Fore
SplineSet
1269 1456 m 1,0,-1
 1269 0 l 1,1,-1
 1145 0 l 1,2,-1
 309 1246 l 1,3,-1
 309 0 l 1,4,-1
 185 0 l 1,5,-1
 185 1456 l 1,6,-1
 309 1456 l 1,7,-1
 1146 210 l 1,8,-1
 1146 1456 l 1,9,-1
 1269 1456 l 1,0,-1
EndSplineSet
Substitution2: "'unic' Unicase lookup 2 subtable" N.unic
Substitution2: "'c2sc' Capitals to Small Capitals lookup 0 subtable" N.smcp
Position2: "'cpsp' Capital Spacing lookup 0 subtable" dx=36 dy=0 dh=72 dv=0
EndChar

StartChar: O
Encoding: 79 79 52
Width: 1387
GlyphClass: 2
Flags: W
AnchorPoint: "Anchor-5" 1387 1618 basechar 0
AnchorPoint: "Anchor-3" 1387 -407 basechar 0
AnchorPoint: "Anchor-2" 1387 1600 basechar 0
AnchorPoint: "Anchor-1" 695 -1 basechar 0
AnchorPoint: "Anchor-0" 691 1618 basechar 0
LayerCount: 2
Fore
SplineSet
1260 806 m 2,0,-1
 1260 650 l 2,1,2
 1260 344 1260 344 1106.5 162 c 128,-1,3
 953 -20 953 -20 694 -20 c 0,4,5
 440 -20 440 -20 283 162 c 128,-1,6
 126 344 126 344 126 650 c 2,7,-1
 126 806 l 2,8,9
 126 1111 126 1111 282 1293.5 c 128,-1,10
 438 1476 438 1476 692 1476 c 0,11,12
 951 1476 951 1476 1105.5 1293.5 c 128,-1,13
 1260 1111 1260 1111 1260 806 c 2,0,-1
1138 650 m 2,14,-1
 1138 808 l 2,15,16
 1138 1066 1138 1066 1021 1217 c 128,-1,17
 904 1368 904 1368 692 1368 c 0,18,19
 486 1368 486 1368 367.5 1217 c 128,-1,20
 249 1066 249 1066 249 808 c 2,21,-1
 249 650 l 2,22,23
 249 390 249 390 368.5 239 c 128,-1,24
 488 88 488 88 694 88 c 0,25,26
 906 88 906 88 1022 239 c 128,-1,27
 1138 390 1138 390 1138 650 c 2,14,-1
EndSplineSet
Substitution2: "'ss06' Style Set 6 lookup 25 subtable" O.ss06
Substitution2: "'c2sc' Capitals to Small Capitals lookup 0 subtable" O.smcp
Position2: "'cpsp' Capital Spacing lookup 0 subtable" dx=36 dy=0 dh=72 dv=0
EndChar

StartChar: P
Encoding: 80 80 53
Width: 1261
GlyphClass: 2
Flags: W
AnchorPoint: "Anchor-5" 1261 1612 basechar 0
AnchorPoint: "Anchor-3" 1261 -407 basechar 0
AnchorPoint: "Anchor-2" 1261 1600 basechar 0
AnchorPoint: "Anchor-1" 530 10 basechar 0
AnchorPoint: "Anchor-0" 583 1612 basechar 0
LayerCount: 2
Fore
SplineSet
681 593 m 2,0,-1
 308 593 l 1,1,-1
 308 0 l 1,2,-1
 185 0 l 1,3,-1
 185 1456 l 1,4,-1
 681 1456 l 2,5,6
 921 1456 921 1456 1046 1335.5 c 128,-1,7
 1171 1215 1171 1215 1171 1022 c 0,8,9
 1171 820 1171 820 1046 706.5 c 128,-1,10
 921 593 921 593 681 593 c 2,0,-1
308 1351 m 1,11,-1
 308 698 l 1,12,-1
 681 698 l 2,13,14
 875 698 875 698 961.5 791 c 128,-1,15
 1048 884 1048 884 1048 1020 c 0,16,17
 1048 1154 1048 1154 961.5 1252.5 c 128,-1,18
 875 1351 875 1351 681 1351 c 2,19,-1
 308 1351 l 1,11,-1
EndSplineSet
Substitution2: "'c2sc' Capitals to Small Capitals lookup 0 subtable" P.smcp
Position2: "'cpsp' Capital Spacing lookup 0 subtable" dx=36 dy=0 dh=72 dv=0
EndChar

StartChar: Q
Encoding: 81 81 54
Width: 1387
GlyphClass: 2
Flags: W
AnchorPoint: "Anchor-5" 1387 1600 basechar 0
AnchorPoint: "Anchor-3" 1387 -407 basechar 0
AnchorPoint: "Anchor-2" 1387 1600 basechar 0
AnchorPoint: "Anchor-1" 698 -10 basechar 0
AnchorPoint: "Anchor-0" 700 1600 basechar 0
LayerCount: 2
Fore
SplineSet
1239 -178 m 1,0,-1
 1154 -255 l 1,1,-1
 858 3 l 1,2,3
 779 -20 779 -20 690 -20 c 0,4,5
 435 -20 435 -20 278 162 c 128,-1,6
 121 344 121 344 121 650 c 2,7,-1
 121 806 l 2,8,9
 121 1111 121 1111 277 1293.5 c 128,-1,10
 433 1476 433 1476 688 1476 c 0,11,12
 947 1476 947 1476 1101.5 1293.5 c 128,-1,13
 1256 1111 1256 1111 1256 806 c 2,14,-1
 1256 650 l 2,15,16
 1256 440 1256 440 1181.5 286 c 128,-1,17
 1107 132 1107 132 974 53 c 1,18,-1
 1239 -178 l 1,0,-1
1133 650 m 2,19,-1
 1133 808 l 2,20,21
 1133 1066 1133 1066 1016.5 1217 c 128,-1,22
 900 1368 900 1368 688 1368 c 0,23,24
 482 1368 482 1368 363.5 1217 c 128,-1,25
 245 1066 245 1066 245 808 c 2,26,-1
 245 650 l 2,27,28
 245 390 245 390 364.5 239 c 128,-1,29
 484 88 484 88 690 88 c 0,30,31
 902 88 902 88 1017.5 239 c 128,-1,32
 1133 390 1133 390 1133 650 c 2,19,-1
EndSplineSet
Substitution2: "'ss06' Style Set 6 lookup 25 subtable" Q.ss06
Substitution2: "'c2sc' Capitals to Small Capitals lookup 0 subtable" Q.smcp
Position2: "'cpsp' Capital Spacing lookup 0 subtable" dx=36 dy=0 dh=72 dv=0
EndChar

StartChar: R
Encoding: 82 82 55
Width: 1301
GlyphClass: 2
Flags: W
AnchorPoint: "Anchor-5" 1301 1607 basechar 0
AnchorPoint: "Anchor-3" 1301 -407 basechar 0
AnchorPoint: "Anchor-2" 1301 1600 basechar 0
AnchorPoint: "Anchor-1" 608 10 basechar 0
AnchorPoint: "Anchor-0" 608 1607 basechar 0
LayerCount: 2
Fore
SplineSet
1080 0 m 1,0,-1
 729 607 l 1,1,-1
 305 607 l 1,2,-1
 305 0 l 1,3,-1
 182 0 l 1,4,-1
 182 1456 l 1,5,-1
 655 1456 l 2,6,7
 882 1456 882 1456 1015.5 1346 c 128,-1,8
 1149 1236 1149 1236 1149 1027 c 0,9,10
 1149 882 1149 882 1065.5 776.5 c 128,-1,11
 982 671 982 671 848 632 c 1,12,-1
 1212 13 l 1,13,-1
 1212 0 l 1,14,-1
 1080 0 l 1,0,-1
305 1351 m 1,15,-1
 305 711 l 1,16,-1
 682 711 l 2,17,18
 854 711 854 711 940 806.5 c 128,-1,19
 1026 902 1026 902 1026 1027 c 0,20,21
 1026 1177 1026 1177 930.5 1264 c 128,-1,22
 835 1351 835 1351 655 1351 c 2,23,-1
 305 1351 l 1,15,-1
EndSplineSet
Substitution2: "'ss03' Style Set 3 lookup 22 subtable" R.alt
Substitution2: "'c2sc' Capitals to Small Capitals lookup 0 subtable" R.smcp
Position2: "'cpsp' Capital Spacing lookup 0 subtable" dx=36 dy=0 dh=72 dv=0
EndChar

StartChar: S
Encoding: 83 83 56
Width: 1213
GlyphClass: 2
Flags: W
AnchorPoint: "Anchor-5" 1213 1618 basechar 0
AnchorPoint: "Anchor-3" 1213 -407 basechar 0
AnchorPoint: "Anchor-2" 1213 1600 basechar 0
AnchorPoint: "Anchor-1" 630 -6 basechar 0
AnchorPoint: "Anchor-0" 627 1618 basechar 0
LayerCount: 2
Fore
SplineSet
1009 358 m 0,0,1
 1009 479 1009 479 923.5 550 c 128,-1,2
 838 621 838 621 611 685 c 0,3,4
 391 746 391 746 263 837 c 128,-1,5
 135 928 135 928 135 1100 c 0,6,7
 135 1268 135 1268 272 1372 c 128,-1,8
 409 1476 409 1476 624 1476 c 0,9,10
 854 1476 854 1476 988.5 1349.5 c 128,-1,11
 1123 1223 1123 1223 1123 1041 c 1,12,-1
 1000 1041 l 1,13,14
 1000 1184 1000 1184 901 1277.5 c 128,-1,15
 802 1371 802 1371 624 1371 c 0,16,17
 443 1371 443 1371 351 1291.5 c 128,-1,18
 259 1212 259 1212 259 1103 c 0,19,20
 259 998 259 998 343.5 925 c 128,-1,21
 428 852 428 852 649 793 c 0,22,23
 881 730 881 730 1007 633.5 c 128,-1,24
 1133 537 1133 537 1133 360 c 0,25,26
 1133 182 1133 182 991.5 81 c 128,-1,27
 850 -20 850 -20 632 -20 c 0,28,29
 502 -20 502 -20 377 25 c 128,-1,30
 252 70 252 70 170 166 c 128,-1,31
 88 262 88 262 88 416 c 1,32,-1
 212 416 l 1,33,34
 212 293 212 293 275.5 220.5 c 128,-1,35
 339 148 339 148 435.5 116 c 128,-1,36
 532 84 532 84 632 84 c 0,37,38
 804 84 804 84 906.5 159.5 c 128,-1,39
 1009 235 1009 235 1009 358 c 0,0,1
EndSplineSet
Substitution2: "'c2sc' Capitals to Small Capitals lookup 0 subtable" S.smcp
Position2: "'cpsp' Capital Spacing lookup 0 subtable" dx=36 dy=0 dh=72 dv=0
EndChar

StartChar: T
Encoding: 84 84 57
Width: 1223
GlyphClass: 2
Flags: W
AnchorPoint: "Anchor-5" 1223 1602 basechar 0
AnchorPoint: "Anchor-3" 1223 -407 basechar 0
AnchorPoint: "Anchor-2" 1223 1600 basechar 0
AnchorPoint: "Anchor-1" 613 0 basechar 0
AnchorPoint: "Anchor-0" 610 1602 basechar 0
LayerCount: 2
Fore
SplineSet
52 1351 m 1,0,-1
 52 1456 l 1,1,-1
 1172 1456 l 1,2,-1
 1172 1351 l 1,3,-1
 673 1351 l 1,4,-1
 673 0 l 1,5,-1
 551 0 l 1,6,-1
 551 1351 l 1,7,-1
 52 1351 l 1,0,-1
EndSplineSet
Substitution2: "'c2sc' Capitals to Small Capitals lookup 0 subtable" T.smcp
Position2: "'cpsp' Capital Spacing lookup 0 subtable" dx=36 dy=0 dh=72 dv=0
EndChar

StartChar: U
Encoding: 85 85 58
Width: 1347
GlyphClass: 2
Flags: W
AnchorPoint: "Anchor-5" 1347 1607 basechar 0
AnchorPoint: "Anchor-3" 1347 -407 basechar 0
AnchorPoint: "Anchor-2" 1347 1600 basechar 0
AnchorPoint: "Anchor-1" 674 0 basechar 0
AnchorPoint: "Anchor-0" 682 1607 basechar 0
LayerCount: 2
Fore
SplineSet
1064 1456 m 1,0,-1
 1187 1456 l 1,1,-1
 1187 470 l 2,2,3
 1187 224 1187 224 1037 102 c 128,-1,4
 887 -20 887 -20 674 -20 c 0,5,6
 456 -20 456 -20 309.5 102 c 128,-1,7
 163 224 163 224 163 470 c 2,8,-1
 163 1456 l 1,9,-1
 285 1456 l 1,10,-1
 285 470 l 2,11,12
 285 279 285 279 395 181.5 c 128,-1,13
 505 84 505 84 674 84 c 0,14,15
 844 84 844 84 954 181.5 c 128,-1,16
 1064 279 1064 279 1064 470 c 2,17,-1
 1064 1456 l 1,0,-1
EndSplineSet
Substitution2: "'unic' Unicase lookup 2 subtable" U.unic
Substitution2: "'c2sc' Capitals to Small Capitals lookup 0 subtable" U.smcp
Position2: "'cpsp' Capital Spacing lookup 0 subtable" dx=36 dy=0 dh=72 dv=0
EndChar

StartChar: V
Encoding: 86 86 59
Width: 1264
GlyphClass: 2
Flags: W
AnchorPoint: "Anchor-5" 1264 1612 basechar 0
AnchorPoint: "Anchor-3" 1264 -407 basechar 0
AnchorPoint: "Anchor-2" 1264 1600 basechar 0
AnchorPoint: "Anchor-1" 635 10 basechar 0
AnchorPoint: "Anchor-0" 633 1612 basechar 0
LayerCount: 2
Fore
SplineSet
1233 1456 m 1,0,-1
 691 0 l 1,1,-1
 573 0 l 1,2,-1
 32 1456 l 1,3,-1
 166 1456 l 1,4,-1
 623 181 l 1,5,-1
 632 150 l 1,6,-1
 640 181 l 1,7,-1
 1099 1456 l 1,8,-1
 1233 1456 l 1,0,-1
EndSplineSet
Substitution2: "'c2sc' Capitals to Small Capitals lookup 0 subtable" V.smcp
Position2: "'cpsp' Capital Spacing lookup 0 subtable" dx=36 dy=0 dh=72 dv=0
EndChar

StartChar: W
Encoding: 87 87 60
Width: 1836
GlyphClass: 2
Flags: W
AnchorPoint: "Anchor-5" 1836 1607 basechar 0
AnchorPoint: "Anchor-3" 1836 -407 basechar 0
AnchorPoint: "Anchor-2" 1836 1600 basechar 0
AnchorPoint: "Anchor-1" 924 10 basechar 0
AnchorPoint: "Anchor-0" 925 1607 basechar 0
LayerCount: 2
Fore
SplineSet
1783 1456 m 1,0,-1
 1411 0 l 1,1,-1
 1293 0 l 1,2,-1
 962 1139 l 1,3,-1
 926 1284 l 1,4,-1
 889 1139 l 1,5,-1
 552 0 l 1,6,-1
 434 0 l 1,7,-1
 61 1456 l 1,8,-1
 187 1456 l 1,9,-1
 453 393 l 1,10,-1
 499 167 l 1,11,-1
 554 384 l 1,12,-1
 870 1456 l 1,13,-1
 981 1456 l 1,14,-1
 1292 384 l 1,15,-1
 1347 166 l 1,16,-1
 1394 394 l 1,17,-1
 1657 1456 l 1,18,-1
 1783 1456 l 1,0,-1
EndSplineSet
Substitution2: "'c2sc' Capitals to Small Capitals lookup 0 subtable" W.smcp
Position2: "'cpsp' Capital Spacing lookup 0 subtable" dx=36 dy=0 dh=72 dv=0
EndChar

StartChar: X
Encoding: 88 88 61
Width: 1254
GlyphClass: 2
Flags: W
AnchorPoint: "Anchor-5" 1254 1612 basechar 0
AnchorPoint: "Anchor-3" 1254 -407 basechar 0
AnchorPoint: "Anchor-2" 1254 1600 basechar 0
AnchorPoint: "Anchor-1" 650 10 basechar 0
AnchorPoint: "Anchor-0" 658 1612 basechar 0
LayerCount: 2
Fore
SplineSet
218 1456 m 1,0,-1
 628 840 l 1,1,-1
 1037 1456 l 1,2,-1
 1184 1456 l 1,3,-1
 702 739 l 1,4,-1
 1199 0 l 1,5,-1
 1052 0 l 1,6,-1
 628 636 l 1,7,-1
 202 0 l 1,8,-1
 56 0 l 1,9,-1
 553 739 l 1,10,-1
 71 1456 l 1,11,-1
 218 1456 l 1,0,-1
EndSplineSet
Substitution2: "'c2sc' Capitals to Small Capitals lookup 0 subtable" X.smcp
Position2: "'cpsp' Capital Spacing lookup 0 subtable" dx=36 dy=0 dh=72 dv=0
EndChar

StartChar: Y
Encoding: 89 89 62
Width: 1227
GlyphClass: 2
Flags: W
AnchorPoint: "Anchor-5" 1227 1601 basechar 0
AnchorPoint: "Anchor-3" 1227 -407 basechar 0
AnchorPoint: "Anchor-2" 1227 1600 basechar 0
AnchorPoint: "Anchor-1" 613 6 basechar 0
AnchorPoint: "Anchor-0" 613 1601 basechar 0
LayerCount: 2
Fore
SplineSet
170 1456 m 1,0,-1
 611 662 l 1,1,-1
 1056 1456 l 1,2,-1
 1199 1456 l 1,3,-1
 673 549 l 1,4,-1
 673 0 l 1,5,-1
 550 0 l 1,6,-1
 550 549 l 1,7,-1
 24 1456 l 1,8,-1
 170 1456 l 1,0,-1
EndSplineSet
Substitution2: "'c2sc' Capitals to Small Capitals lookup 0 subtable" Y.smcp
Position2: "'cpsp' Capital Spacing lookup 0 subtable" dx=36 dy=0 dh=72 dv=0
EndChar

StartChar: Z
Encoding: 90 90 63
Width: 1225
GlyphClass: 2
Flags: W
AnchorPoint: "Anchor-5" 1225 1607 basechar 0
AnchorPoint: "Anchor-3" 1225 -407 basechar 0
AnchorPoint: "Anchor-2" 1225 1600 basechar 0
AnchorPoint: "Anchor-1" 628 10 basechar 0
AnchorPoint: "Anchor-0" 613 1607 basechar 0
LayerCount: 2
Fore
SplineSet
117 1352 m 1,0,-1
 117 1456 l 1,1,-1
 1106 1456 l 1,2,-1
 1106 1368 l 1,3,-1
 239 104 l 1,4,-1
 1138 104 l 1,5,-1
 1138 0 l 1,6,-1
 90 0 l 1,7,-1
 90 93 l 1,8,-1
 956 1352 l 1,9,-1
 117 1352 l 1,0,-1
EndSplineSet
Substitution2: "'c2sc' Capitals to Small Capitals lookup 0 subtable" Z.smcp
Position2: "'cpsp' Capital Spacing lookup 0 subtable" dx=36 dy=0 dh=72 dv=0
EndChar

StartChar: bracketleft
Encoding: 91 91 64
Width: 491
Flags: W
LayerCount: 2
Fore
SplineSet
494 1664 m 1,0,-1
 494 1562 l 1,1,-1
 284 1562 l 1,2,-1
 284 -210 l 1,3,-1
 494 -210 l 1,4,-1
 494 -312 l 1,5,-1
 164 -312 l 1,6,-1
 164 1664 l 1,7,-1
 494 1664 l 1,0,-1
EndSplineSet
EndChar

StartChar: backslash
Encoding: 92 92 65
Width: 807
Flags: W
LayerCount: 2
Fore
SplineSet
657 -125 m 1,0,-1
 49 1456 l 1,1,-1
 166 1456 l 1,2,-1
 774 -125 l 1,3,-1
 657 -125 l 1,0,-1
EndSplineSet
EndChar

StartChar: bracketright
Encoding: 93 93 66
Width: 491
Flags: W
LayerCount: 2
Fore
SplineSet
1 1562 m 1,0,-1
 1 1664 l 1,1,-1
 331 1664 l 1,2,-1
 331 -312 l 1,3,-1
 1 -312 l 1,4,-1
 1 -210 l 1,5,-1
 211 -210 l 1,6,-1
 211 1562 l 1,7,-1
 1 1562 l 1,0,-1
EndSplineSet
EndChar

StartChar: asciicircum
Encoding: 94 94 67
Width: 853
Flags: W
LayerCount: 2
Fore
SplineSet
78 729 m 1,0,-1
 377 1456 l 1,1,-1
 466 1456 l 1,2,-1
 765 729 l 1,3,-1
 649 729 l 1,4,-1
 421 1298 l 1,5,-1
 193 729 l 1,6,-1
 78 729 l 1,0,-1
EndSplineSet
EndChar

StartChar: underscore
Encoding: 95 95 68
Width: 885
Flags: W
LayerCount: 2
Fore
SplineSet
883 0 m 1,0,-1
 883 -102 l 1,1,-1
 2 -102 l 1,2,-1
 2 0 l 1,3,-1
 883 0 l 1,0,-1
EndSplineSet
EndChar

StartChar: grave
Encoding: 96 96 69
Width: 585
Flags: W
LayerCount: 2
Fore
SplineSet
248 1536 m 1,0,-1
 439 1257 l 1,1,-1
 330 1257 l 1,2,-1
 103 1536 l 1,3,-1
 248 1536 l 1,0,-1
EndSplineSet
EndChar

StartChar: a
Encoding: 97 97 70
Width: 1098
GlyphClass: 2
Flags: W
AnchorPoint: "Anchor-5" 1098 1291 basechar 0
AnchorPoint: "Anchor-4" 878 654 basechar 0
AnchorPoint: "Anchor-3" 1098 -407 basechar 0
AnchorPoint: "Anchor-2" 1098 1600 basechar 0
AnchorPoint: "Anchor-1" 504 0 basechar 0
AnchorPoint: "Anchor-0" 579 1291 basechar 0
LayerCount: 2
Fore
SplineSet
840 0 m 1,0,1
 830 28 830 28 824 69 c 128,-1,2
 818 110 818 110 816 151 c 1,3,4
 762 82 762 82 670 31 c 128,-1,5
 578 -20 578 -20 450 -20 c 0,6,7
 291 -20 291 -20 196 67.5 c 128,-1,8
 101 155 101 155 101 287 c 0,9,10
 101 446 101 446 233 538 c 128,-1,11
 365 630 365 630 594 630 c 2,12,-1
 815 630 l 1,13,-1
 815 752 l 2,14,15
 815 868 815 868 743 935 c 128,-1,16
 671 1002 671 1002 536 1002 c 0,17,18
 410 1002 410 1002 328 938 c 128,-1,19
 246 874 246 874 246 783 c 1,20,-1
 126 784 l 1,21,22
 126 906 126 906 241 1004 c 128,-1,23
 356 1102 356 1102 541 1102 c 0,24,25
 714 1102 714 1102 824.5 1014 c 128,-1,26
 935 926 935 926 935 750 c 2,27,-1
 935 227 l 2,28,29
 935 171 935 171 943.5 110.5 c 128,-1,30
 952 50 952 50 968 13 c 1,31,-1
 968 0 l 1,32,-1
 840 0 l 1,0,1
463 86 m 0,33,34
 593 86 593 86 684.5 148 c 128,-1,35
 776 210 776 210 815 299 c 1,36,-1
 815 538 l 1,37,-1
 610 538 l 2,38,39
 426 538 426 538 323 474 c 128,-1,40
 220 410 220 410 220 297 c 0,41,42
 220 209 220 209 285 147.5 c 128,-1,43
 350 86 350 86 463 86 c 0,33,34
EndSplineSet
Substitution2: "'unic' Unicase lookup 2 subtable" A.unic
Substitution2: "'smcp' Lowercase to Small Capitals lookup 1 subtable" A.smcp
EndChar

StartChar: b
Encoding: 98 98 71
Width: 1135
GlyphClass: 2
Flags: W
AnchorPoint: "Anchor-5" 1135 1612 basechar 0
AnchorPoint: "Anchor-3" 1135 -407 basechar 0
AnchorPoint: "Anchor-2" 1135 1600 basechar 0
AnchorPoint: "Anchor-1" 591 -10 basechar 0
AnchorPoint: "Anchor-0" 605 1612 basechar 0
LayerCount: 2
Fore
SplineSet
1028 530 m 2,0,1
 1028 288 1028 288 919.5 134 c 128,-1,2
 811 -20 811 -20 615 -20 c 0,3,4
 497 -20 497 -20 411.5 25.5 c 128,-1,5
 326 71 326 71 273 149 c 1,6,-1
 267 0 l 1,7,-1
 155 0 l 1,8,-1
 155 1536 l 1,9,-1
 275 1536 l 1,10,-1
 275 926 l 1,11,12
 329 1009 329 1009 412.5 1055.5 c 128,-1,13
 496 1102 496 1102 613 1102 c 0,14,15
 811 1102 811 1102 919.5 952.5 c 128,-1,16
 1028 803 1028 803 1028 551 c 2,17,-1
 1028 530 l 2,0,1
590 998 m 0,18,19
 455 998 455 998 381.5 930.5 c 128,-1,20
 308 863 308 863 275 777 c 1,21,-1
 275 288 l 1,22,23
 312 202 312 202 390 143 c 128,-1,24
 468 84 468 84 592 84 c 0,25,26
 756 84 756 84 831.5 212.5 c 128,-1,27
 907 341 907 341 907 530 c 2,28,-1
 907 551 l 2,29,30
 907 740 907 740 832.5 869 c 128,-1,31
 758 998 758 998 590 998 c 0,18,19
EndSplineSet
Substitution2: "'ss06' Style Set 6 lookup 25 subtable" b.ss06
Substitution2: "'unic' Unicase lookup 2 subtable" B
Substitution2: "'smcp' Lowercase to Small Capitals lookup 1 subtable" B.smcp
EndChar

StartChar: c
Encoding: 99 99 72
Width: 1056
GlyphClass: 2
Flags: W
AnchorPoint: "Anchor-5" 1056 1290 basechar 0
AnchorPoint: "Anchor-3" 1056 -407 basechar 0
AnchorPoint: "Anchor-2" 1056 1600 basechar 0
AnchorPoint: "Anchor-1" 540 -10 basechar 0
AnchorPoint: "Anchor-0" 540 1290 basechar 0
LayerCount: 2
Fore
SplineSet
557 82 m 0,0,1
 670 82 670 82 759.5 146.5 c 128,-1,2
 849 211 849 211 858 335 c 1,3,-1
 972 335 l 1,4,5
 964 180 964 180 843 80 c 128,-1,6
 722 -20 722 -20 557 -20 c 0,7,8
 329 -20 329 -20 212 136 c 128,-1,9
 95 292 95 292 95 520 c 2,10,-1
 95 562 l 2,11,12
 95 790 95 790 212 946 c 128,-1,13
 329 1102 329 1102 555 1102 c 0,14,15
 729 1102 729 1102 846.5 998 c 128,-1,16
 964 894 964 894 972 718 c 1,17,-1
 858 718 l 1,18,19
 850 849 850 849 764 924.5 c 128,-1,20
 678 1000 678 1000 555 1000 c 0,21,22
 370 1000 370 1000 292 867 c 128,-1,23
 214 734 214 734 214 562 c 2,24,-1
 214 520 l 2,25,26
 214 347 214 347 292 214.5 c 128,-1,27
 370 82 370 82 557 82 c 0,0,1
EndSplineSet
Substitution2: "'ss06' Style Set 6 lookup 25 subtable" c.ss06
Substitution2: "'unic' Unicase lookup 2 subtable" C
Substitution2: "'smcp' Lowercase to Small Capitals lookup 1 subtable" C.smcp
EndChar

StartChar: d
Encoding: 100 100 73
Width: 1138
GlyphClass: 2
Flags: W
AnchorPoint: "Anchor-5" 1138 1616 basechar 0
AnchorPoint: "Anchor-3" 1138 -407 basechar 0
AnchorPoint: "Anchor-2" 1138 1600 basechar 0
AnchorPoint: "Anchor-1" 607 0 basechar 0
AnchorPoint: "Anchor-0" 542 1616 basechar 0
LayerCount: 2
Fore
SplineSet
868 0 m 1,0,-1
 862 145 l 1,1,2
 809 68 809 68 725 24 c 128,-1,3
 641 -20 641 -20 524 -20 c 0,4,5
 333 -20 333 -20 221 134 c 128,-1,6
 109 288 109 288 109 530 c 2,7,-1
 109 551 l 2,8,9
 109 803 109 803 221 952.5 c 128,-1,10
 333 1102 333 1102 526 1102 c 0,11,12
 641 1102 641 1102 723.5 1057 c 128,-1,13
 806 1012 806 1012 860 931 c 1,14,-1
 860 1536 l 1,15,-1
 980 1536 l 1,16,-1
 980 0 l 1,17,-1
 868 0 l 1,0,-1
229 530 m 2,18,19
 229 341 229 341 306.5 212.5 c 128,-1,20
 384 84 384 84 547 84 c 0,21,22
 669 84 669 84 744.5 139.5 c 128,-1,23
 820 195 820 195 860 279 c 1,24,-1
 860 790 l 1,25,26
 825 872 825 872 752 935 c 128,-1,27
 679 998 679 998 549 998 c 0,28,29
 384 998 384 998 306.5 869 c 128,-1,30
 229 740 229 740 229 551 c 2,31,-1
 229 530 l 2,18,19
EndSplineSet
Substitution2: "'ss06' Style Set 6 lookup 25 subtable" d.ss06
Substitution2: "'unic' Unicase lookup 2 subtable" D
Substitution2: "'smcp' Lowercase to Small Capitals lookup 1 subtable" D.smcp
EndChar

StartChar: e
Encoding: 101 101 74
Width: 1059
GlyphClass: 2
Flags: W
AnchorPoint: "Anchor-5" 1059 1291 basechar 0
AnchorPoint: "Anchor-4" 919 654 basechar 0
AnchorPoint: "Anchor-3" 1059 -407 basechar 0
AnchorPoint: "Anchor-2" 1059 1600 basechar 0
AnchorPoint: "Anchor-1" 566 2 basechar 0
AnchorPoint: "Anchor-0" 566 1291 basechar 0
LayerCount: 2
Fore
SplineSet
959 172 m 1,0,1
 906 93 906 93 813 36.5 c 128,-1,2
 720 -20 720 -20 575 -20 c 0,3,4
 364 -20 364 -20 227 129 c 128,-1,5
 90 278 90 278 90 511 c 2,6,-1
 90 554 l 2,7,8
 90 804 90 804 229.5 953 c 128,-1,9
 369 1102 369 1102 554 1102 c 0,10,11
 760 1102 760 1102 871 962.5 c 128,-1,12
 982 823 982 823 982 607 c 2,13,-1
 982 534 l 1,14,-1
 210 534 l 1,15,-1
 210 511 l 2,16,17
 210 332 210 332 312.5 206.5 c 128,-1,18
 415 81 415 81 580 81 c 0,19,20
 771 81 771 81 883 229 c 1,21,-1
 959 172 l 1,0,1
554 1000 m 0,22,23
 417 1000 417 1000 325.5 900 c 128,-1,24
 234 800 234 800 215 636 c 1,25,-1
 862 636 l 1,26,-1
 862 649 l 2,27,28
 859 785 859 785 782.5 892.5 c 128,-1,29
 706 1000 706 1000 554 1000 c 0,22,23
EndSplineSet
Substitution2: "'ss07' Style Set 7 lookup 26 subtable" e.ss07
Substitution2: "'unic' Unicase lookup 2 subtable" E.unic
Substitution2: "'smcp' Lowercase to Small Capitals lookup 1 subtable" E.smcp
EndChar

StartChar: f
Encoding: 102 102 75
Width: 678
GlyphClass: 2
Flags: W
AnchorPoint: "Anchor-5" 678 1716 basechar 0
AnchorPoint: "Anchor-3" 678 -407 basechar 0
AnchorPoint: "Anchor-2" 678 1600 basechar 0
AnchorPoint: "Anchor-1" 330 10 basechar 0
AnchorPoint: "Anchor-0" 510 1716 basechar 0
LayerCount: 2
Fore
SplineSet
621 984 m 1,0,-1
 362 984 l 1,1,-1
 362 0 l 1,2,-1
 243 0 l 1,3,-1
 243 984 l 1,4,-1
 63 984 l 1,5,-1
 63 1082 l 1,6,-1
 243 1082 l 1,7,-1
 243 1217 l 2,8,9
 243 1381 243 1381 328.5 1469 c 128,-1,10
 414 1557 414 1557 562 1557 c 0,11,12
 630 1557 630 1557 690 1540 c 1,13,-1
 681 1440 l 1,14,15
 632 1452 632 1452 571 1452 c 0,16,17
 474 1452 474 1452 418 1391 c 128,-1,18
 362 1330 362 1330 362 1217 c 2,19,-1
 362 1082 l 1,20,-1
 621 1082 l 1,21,-1
 621 984 l 1,0,-1
EndSplineSet
Substitution2: "'unic' Unicase lookup 2 subtable" F
Substitution2: "'smcp' Lowercase to Small Capitals lookup 1 subtable" F.smcp
EndChar

StartChar: g
Encoding: 103 103 76
Width: 1137
GlyphClass: 2
Flags: W
AnchorPoint: "Anchor-5" 1137 1290 basechar 0
AnchorPoint: "Anchor-3" 1137 -407 basechar 0
AnchorPoint: "Anchor-2" 1137 1600 basechar 0
AnchorPoint: "Anchor-1" 554 -447 basechar 0
AnchorPoint: "Anchor-0" 562 1290 basechar 0
LayerCount: 2
Fore
SplineSet
980 19 m 2,0,1
 980 -192 980 -192 861.5 -312 c 128,-1,2
 743 -432 743 -432 546 -432 c 0,3,4
 445 -432 445 -432 339.5 -385.5 c 128,-1,5
 234 -339 234 -339 169 -247 c 1,6,-1
 236 -174 l 1,7,8
 361 -330 361 -330 539 -330 c 0,9,10
 692 -330 692 -330 776 -239 c 128,-1,11
 860 -148 860 -148 860 15 c 2,12,-1
 860 141 l 1,13,14
 806 66 806 66 722.5 23 c 128,-1,15
 639 -20 639 -20 524 -20 c 0,16,17
 331 -20 331 -20 220 134 c 128,-1,18
 109 288 109 288 109 530 c 2,19,-1
 109 551 l 2,20,21
 109 803 109 803 220 952.5 c 128,-1,22
 331 1102 331 1102 526 1102 c 0,23,24
 642 1102 642 1102 725.5 1055.5 c 128,-1,25
 809 1009 809 1009 863 927 c 1,26,-1
 868 1082 l 1,27,-1
 980 1082 l 1,28,-1
 980 19 l 2,0,1
229 530 m 2,29,30
 229 341 229 341 306.5 212.5 c 128,-1,31
 384 84 384 84 547 84 c 0,32,33
 670 84 670 84 745.5 141 c 128,-1,34
 821 198 821 198 860 284 c 1,35,-1
 860 784 l 1,36,37
 826 867 826 867 753.5 932.5 c 128,-1,38
 681 998 681 998 549 998 c 0,39,40
 384 998 384 998 306.5 869 c 128,-1,41
 229 740 229 740 229 551 c 2,42,-1
 229 530 l 2,29,30
EndSplineSet
Substitution2: "'ss07' Style Set 7 lookup 26 subtable" g.ss07
Substitution2: "'ss06' Style Set 6 lookup 25 subtable" g.ss06
Substitution2: "'ss01' Style Set 1 lookup 20 subtable" g.alt
Substitution2: "'salt' Stylistic Alternatives lookup 19 subtable" g.alt
Substitution2: "'unic' Unicase lookup 2 subtable" G
Substitution2: "'smcp' Lowercase to Small Capitals lookup 1 subtable" G.smcp
EndChar

StartChar: h
Encoding: 104 104 77
Width: 1125
GlyphClass: 2
Flags: W
AnchorPoint: "Anchor-5" 1125 1611 basechar 0
AnchorPoint: "Anchor-3" 1125 -407 basechar 0
AnchorPoint: "Anchor-2" 1125 1600 basechar 0
AnchorPoint: "Anchor-1" 580 10 basechar 0
AnchorPoint: "Anchor-0" 487 1611 basechar 0
LayerCount: 2
Fore
SplineSet
598 999 m 0,0,1
 472 999 472 999 391.5 920.5 c 128,-1,2
 311 842 311 842 276 744 c 1,3,-1
 276 0 l 1,4,-1
 156 0 l 1,5,-1
 156 1536 l 1,6,-1
 276 1536 l 1,7,-1
 276 901 l 1,8,9
 332 992 332 992 422 1047 c 128,-1,10
 512 1102 512 1102 628 1102 c 0,11,12
 789 1102 789 1102 881 1010.5 c 128,-1,13
 973 919 973 919 973 705 c 2,14,-1
 973 0 l 1,15,-1
 853 0 l 1,16,-1
 853 705 l 2,17,18
 853 873 853 873 784.5 936 c 128,-1,19
 716 999 716 999 598 999 c 0,0,1
EndSplineSet
Substitution2: "'unic' Unicase lookup 2 subtable" H
Substitution2: "'smcp' Lowercase to Small Capitals lookup 1 subtable" H.smcp
EndChar

StartChar: i
Encoding: 105 105 78
Width: 460
GlyphClass: 2
Flags: W
AnchorPoint: "Anchor-5" 460 1600 basechar 0
AnchorPoint: "Anchor-4" 244 654 basechar 0
AnchorPoint: "Anchor-3" 460 -407 basechar 0
AnchorPoint: "Anchor-2" 460 1600 basechar 0
AnchorPoint: "Anchor-1" 229 10 basechar 0
AnchorPoint: "Anchor-0" 235 1600 basechar 0
LayerCount: 2
Fore
SplineSet
149 1395 m 0,0,1
 149 1476 149 1476 231 1476 c 0,2,3
 314 1476 314 1476 314 1395 c 0,4,5
 314 1316 314 1316 231 1316 c 0,6,7
 149 1316 149 1316 149 1395 c 0,0,1
290 1082 m 1,8,-1
 290 0 l 1,9,-1
 171 0 l 1,10,-1
 171 1082 l 1,11,-1
 290 1082 l 1,8,-1
EndSplineSet
Substitution2: "Single Substitution lookup 5 subtable" uni0069.ccmp
Substitution2: "'unic' Unicase lookup 2 subtable" I
Substitution2: "'smcp' Lowercase to Small Capitals lookup 1 subtable" I.smcp
EndChar

StartChar: j
Encoding: 106 106 79
Width: 468
GlyphClass: 2
Flags: W
AnchorPoint: "Anchor-5" 468 1600 basechar 0
AnchorPoint: "Anchor-3" 468 -407 basechar 0
AnchorPoint: "Anchor-2" 468 1600 basechar 0
AnchorPoint: "Anchor-1" 190 -459 basechar 0
AnchorPoint: "Anchor-0" 223 1600 basechar 0
LayerCount: 2
Fore
SplineSet
145 1395 m 0,0,1
 145 1476 145 1476 227 1476 c 0,2,3
 265 1476 265 1476 287.5 1452.5 c 128,-1,4
 310 1429 310 1429 310 1395 c 0,5,6
 310 1316 310 1316 227 1316 c 0,7,8
 145 1316 145 1316 145 1395 c 0,0,1
166 1082 m 1,9,-1
 286 1082 l 1,10,-1
 286 -129 l 2,11,12
 286 -437 286 -437 2 -437 c 0,13,14
 -55 -437 -55 -437 -104 -418 c 1,15,-1
 -103 -319 l 1,16,17
 -85 -324 -85 -324 -60.5 -328.5 c 128,-1,18
 -36 -333 -36 -333 -13 -333 c 0,19,20
 166 -333 166 -333 166 -129 c 2,21,-1
 166 1082 l 1,9,-1
EndSplineSet
Substitution2: "Single Substitution lookup 5 subtable" uni006A.ccmp
Substitution2: "'unic' Unicase lookup 2 subtable" J
Substitution2: "'smcp' Lowercase to Small Capitals lookup 1 subtable" J.smcp
EndChar

StartChar: k
Encoding: 107 107 80
Width: 1004
GlyphClass: 2
Flags: W
AnchorPoint: "Anchor-5" 874 1612 basechar 0
AnchorPoint: "Anchor-3" 1004 -407 basechar 0
AnchorPoint: "Anchor-2" 1004 1600 basechar 0
AnchorPoint: "Anchor-1" 523 93 basechar 0
AnchorPoint: "Anchor-0" 547 1612 basechar 0
LayerCount: 2
Fore
SplineSet
851 0 m 1,0,-1
 413 545 l 1,1,-1
 276 413 l 1,2,-1
 276 0 l 1,3,-1
 157 0 l 1,4,-1
 157 1536 l 1,5,-1
 276 1536 l 1,6,-1
 276 554 l 1,7,-1
 389 676 l 1,8,-1
 804 1082 l 1,9,-1
 955 1082 l 1,10,-1
 496 626 l 1,11,-1
 995 0 l 1,12,-1
 851 0 l 1,0,-1
EndSplineSet
Substitution2: "'ss05' Style Set 5 lookup 24 subtable" k.alt2
Substitution2: "'ss04' Style Set 4 lookup 23 subtable" k.alt
Substitution2: "'unic' Unicase lookup 2 subtable" K
Substitution2: "'smcp' Lowercase to Small Capitals lookup 1 subtable" K.smcp
EndChar

StartChar: l
Encoding: 108 108 81
Width: 460
GlyphClass: 2
Flags: W
AnchorPoint: "Anchor-5" 460 1685 basechar 0
AnchorPoint: "Anchor-3" 460 -407 basechar 0
AnchorPoint: "Anchor-2" 460 1600 basechar 0
AnchorPoint: "Anchor-1" 232 10 basechar 0
AnchorPoint: "Anchor-0" 232 1685 basechar 0
LayerCount: 2
Fore
SplineSet
290 1536 m 1,0,-1
 290 0 l 1,1,-1
 171 0 l 1,2,-1
 171 1536 l 1,3,-1
 290 1536 l 1,0,-1
EndSplineSet
Substitution2: "'unic' Unicase lookup 2 subtable" L
Substitution2: "'smcp' Lowercase to Small Capitals lookup 1 subtable" L.smcp
EndChar

StartChar: m
Encoding: 109 109 82
Width: 1816
GlyphClass: 2
Flags: W
AnchorPoint: "Anchor-5" 1816 1290 basechar 0
AnchorPoint: "Anchor-3" 1816 -407 basechar 0
AnchorPoint: "Anchor-2" 1816 1600 basechar 0
AnchorPoint: "Anchor-1" 908 10 basechar 0
AnchorPoint: "Anchor-0" 913 1290 basechar 0
LayerCount: 2
Fore
SplineSet
585 999 m 0,0,1
 449 999 449 999 374 920 c 128,-1,2
 299 841 299 841 270 744 c 1,3,-1
 270 0 l 1,4,-1
 150 0 l 1,5,-1
 150 1082 l 1,6,-1
 266 1082 l 1,7,-1
 269 906 l 1,8,9
 323 995 323 995 411.5 1048.5 c 128,-1,10
 500 1102 500 1102 620 1102 c 0,11,12
 739 1102 739 1102 823.5 1052.5 c 128,-1,13
 908 1003 908 1003 944 892 c 1,14,15
 996 984 996 984 1090 1043 c 128,-1,16
 1184 1102 1184 1102 1314 1102 c 0,17,18
 1483 1102 1483 1102 1575.5 1009 c 128,-1,19
 1668 916 1668 916 1668 705 c 2,20,-1
 1668 0 l 1,21,-1
 1549 0 l 1,22,-1
 1549 706 l 2,23,24
 1549 878 1549 878 1475.5 939 c 128,-1,25
 1402 1000 1402 1000 1285 999 c 0,26,27
 1134 998 1134 998 1055.5 904.5 c 128,-1,28
 977 811 977 811 968 716 c 1,29,-1
 968 0 l 1,30,-1
 848 0 l 1,31,-1
 848 716 l 2,32,33
 848 877 848 877 775 938 c 128,-1,34
 702 999 702 999 585 999 c 0,0,1
EndSplineSet
Substitution2: "'unic' Unicase lookup 2 subtable" M.unic
Substitution2: "'smcp' Lowercase to Small Capitals lookup 1 subtable" M.smcp
EndChar

StartChar: n
Encoding: 110 110 83
Width: 1126
GlyphClass: 2
Flags: W
AnchorPoint: "Anchor-5" 1126 1290 basechar 0
AnchorPoint: "Anchor-3" 1126 -407 basechar 0
AnchorPoint: "Anchor-2" 1126 1600 basechar 0
AnchorPoint: "Anchor-1" 570 10 basechar 0
AnchorPoint: "Anchor-0" 575 1290 basechar 0
LayerCount: 2
Fore
SplineSet
598 999 m 0,0,1
 472 999 472 999 391.5 920.5 c 128,-1,2
 311 842 311 842 276 744 c 1,3,-1
 276 0 l 1,4,-1
 156 0 l 1,5,-1
 156 1082 l 1,6,-1
 271 1082 l 1,7,-1
 275 899 l 1,8,9
 331 991 331 991 421.5 1046.5 c 128,-1,10
 512 1102 512 1102 628 1102 c 0,11,12
 789 1102 789 1102 881 1010.5 c 128,-1,13
 973 919 973 919 973 705 c 2,14,-1
 973 0 l 1,15,-1
 853 0 l 1,16,-1
 853 705 l 2,17,18
 853 873 853 873 784.5 936 c 128,-1,19
 716 999 716 999 598 999 c 0,0,1
EndSplineSet
Substitution2: "'unic' Unicase lookup 2 subtable" N.unic
Substitution2: "'smcp' Lowercase to Small Capitals lookup 1 subtable" N.smcp
EndChar

StartChar: o
Encoding: 111 111 84
Width: 1148
GlyphClass: 2
Flags: W
AnchorPoint: "Anchor-5" 1148 1290 basechar 0
AnchorPoint: "Anchor-4" 999 654 basechar 0
AnchorPoint: "Anchor-3" 1148 -407 basechar 0
AnchorPoint: "Anchor-2" 1148 1600 basechar 0
AnchorPoint: "Anchor-1" 576 -6 basechar 0
AnchorPoint: "Anchor-0" 571 1290 basechar 0
LayerCount: 2
Fore
SplineSet
91 525 m 2,0,-1
 91 557 l 2,1,2
 91 793 91 793 223 947.5 c 128,-1,3
 355 1102 355 1102 573 1102 c 0,4,5
 794 1102 794 1102 925.5 947.5 c 128,-1,6
 1057 793 1057 793 1057 557 c 2,7,-1
 1057 525 l 2,8,9
 1057 288 1057 288 925.5 134 c 128,-1,10
 794 -20 794 -20 575 -20 c 0,11,12
 355 -20 355 -20 223 134 c 128,-1,13
 91 288 91 288 91 525 c 2,0,-1
211 557 m 2,14,-1
 211 525 l 2,15,16
 211 346 211 346 304.5 214 c 128,-1,17
 398 82 398 82 575 82 c 0,18,19
 750 82 750 82 843.5 214 c 128,-1,20
 937 346 937 346 937 525 c 2,21,-1
 937 557 l 2,22,23
 937 732 937 732 843 866 c 128,-1,24
 749 1000 749 1000 573 1000 c 0,25,26
 398 1000 398 1000 304.5 866 c 128,-1,27
 211 732 211 732 211 557 c 2,14,-1
EndSplineSet
Substitution2: "'ss06' Style Set 6 lookup 25 subtable" o.ss06
Substitution2: "'unic' Unicase lookup 2 subtable" O
Substitution2: "'smcp' Lowercase to Small Capitals lookup 1 subtable" O.smcp
EndChar

StartChar: p
Encoding: 112 112 85
Width: 1135
GlyphClass: 2
Flags: W
AnchorPoint: "Anchor-5" 1135 1280 basechar 0
AnchorPoint: "Anchor-3" 1135 -407 basechar 0
AnchorPoint: "Anchor-2" 1135 1600 basechar 0
AnchorPoint: "Anchor-1" 213 -407 basechar 0
AnchorPoint: "Anchor-0" 606 1280 basechar 0
LayerCount: 2
Fore
SplineSet
614 -20 m 0,0,1
 499 -20 499 -20 414.5 22 c 128,-1,2
 330 64 330 64 275 137 c 1,3,-1
 275 -416 l 1,4,-1
 155 -416 l 1,5,-1
 155 1082 l 1,6,-1
 267 1082 l 1,7,-1
 273 929 l 1,8,9
 328 1011 328 1011 412.5 1056.5 c 128,-1,10
 497 1102 497 1102 612 1102 c 0,11,12
 810 1102 810 1102 918.5 952.5 c 128,-1,13
 1027 803 1027 803 1027 551 c 2,14,-1
 1027 530 l 2,15,16
 1027 288 1027 288 918.5 134 c 128,-1,17
 810 -20 810 -20 614 -20 c 0,0,1
585 998 m 0,18,19
 456 998 456 998 383 935.5 c 128,-1,20
 310 873 310 873 275 792 c 1,21,-1
 275 270 l 1,22,23
 314 189 314 189 390 135.5 c 128,-1,24
 466 82 466 82 587 82 c 0,25,26
 750 82 750 82 828.5 211.5 c 128,-1,27
 907 341 907 341 907 530 c 2,28,-1
 907 551 l 2,29,30
 907 740 907 740 828.5 869 c 128,-1,31
 750 998 750 998 585 998 c 0,18,19
EndSplineSet
Substitution2: "'ss06' Style Set 6 lookup 25 subtable" p.ss06
Substitution2: "'unic' Unicase lookup 2 subtable" P
Substitution2: "'smcp' Lowercase to Small Capitals lookup 1 subtable" P.smcp
EndChar

StartChar: q
Encoding: 113 113 86
Width: 1143
GlyphClass: 2
Flags: W
AnchorPoint: "Anchor-5" 1143 1290 basechar 0
AnchorPoint: "Anchor-3" 1143 -407 basechar 0
AnchorPoint: "Anchor-2" 1143 1600 basechar 0
AnchorPoint: "Anchor-1" 921 -407 basechar 0
AnchorPoint: "Anchor-0" 537 1290 basechar 0
LayerCount: 2
Fore
SplineSet
979 1082 m 1,0,-1
 979 -416 l 1,1,-1
 860 -416 l 1,2,-1
 860 134 l 1,3,4
 805 62 805 62 722 21 c 128,-1,5
 639 -20 639 -20 526 -20 c 0,6,7
 330 -20 330 -20 219.5 134 c 128,-1,8
 109 288 109 288 109 530 c 2,9,-1
 109 551 l 2,10,11
 109 803 109 803 219.5 952.5 c 128,-1,12
 330 1102 330 1102 528 1102 c 0,13,14
 641 1102 641 1102 724 1058 c 128,-1,15
 807 1014 807 1014 862 936 c 1,16,-1
 867 1082 l 1,17,-1
 979 1082 l 1,0,-1
229 530 m 2,18,19
 229 341 229 341 307.5 211.5 c 128,-1,20
 386 82 386 82 549 82 c 0,21,22
 668 82 668 82 743.5 135.5 c 128,-1,23
 819 189 819 189 860 270 c 1,24,-1
 860 798 l 1,25,26
 823 877 823 877 749.5 938.5 c 128,-1,27
 676 1000 676 1000 551 1000 c 0,28,29
 386 1000 386 1000 307.5 870 c 128,-1,30
 229 740 229 740 229 551 c 2,31,-1
 229 530 l 2,18,19
EndSplineSet
Substitution2: "'ss06' Style Set 6 lookup 25 subtable" q.ss06
Substitution2: "'unic' Unicase lookup 2 subtable" Q
Substitution2: "'smcp' Lowercase to Small Capitals lookup 1 subtable" Q.smcp
EndChar

StartChar: r
Encoding: 114 114 87
Width: 690
GlyphClass: 2
Flags: W
AnchorPoint: "Anchor-5" 690 1290 basechar 0
AnchorPoint: "Anchor-3" 690 -407 basechar 0
AnchorPoint: "Anchor-2" 690 1600 basechar 0
AnchorPoint: "Anchor-1" 222 15 basechar 0
AnchorPoint: "Anchor-0" 410 1290 basechar 0
LayerCount: 2
Fore
SplineSet
576 988 m 0,0,1
 455 988 455 988 380.5 920.5 c 128,-1,2
 306 853 306 853 276 746 c 1,3,-1
 276 0 l 1,4,-1
 156 0 l 1,5,-1
 156 1082 l 1,6,-1
 273 1082 l 1,7,-1
 276 913 l 1,8,9
 320 1000 320 1000 395.5 1051 c 128,-1,10
 471 1102 471 1102 580 1102 c 0,11,12
 628 1102 628 1102 660 1090 c 1,13,-1
 656 981 l 1,14,15
 636 984 636 984 617 986 c 128,-1,16
 598 988 598 988 576 988 c 0,0,1
EndSplineSet
Substitution2: "'unic' Unicase lookup 2 subtable" R
Substitution2: "'smcp' Lowercase to Small Capitals lookup 1 subtable" R.smcp
EndChar

StartChar: s
Encoding: 115 115 88
Width: 1038
GlyphClass: 2
Flags: W
AnchorPoint: "Anchor-5" 1038 1290 basechar 0
AnchorPoint: "Anchor-3" 1038 -407 basechar 0
AnchorPoint: "Anchor-2" 1038 1600 basechar 0
AnchorPoint: "Anchor-1" 537 -7 basechar 0
AnchorPoint: "Anchor-0" 537 1290 basechar 0
LayerCount: 2
Fore
SplineSet
805 276 m 0,0,1
 805 343 805 343 750.5 404.5 c 128,-1,2
 696 466 696 466 515 504 c 256,3,4
 334 542 334 542 236 608 c 128,-1,5
 138 674 138 674 138 808 c 0,6,7
 138 929 138 929 240.5 1015.5 c 128,-1,8
 343 1102 343 1102 519 1102 c 0,9,10
 707 1102 707 1102 813 1010 c 128,-1,11
 919 918 919 918 919 779 c 1,12,-1
 798 779 l 1,13,14
 798 863 798 863 726 931.5 c 128,-1,15
 654 1000 654 1000 519 1000 c 0,16,17
 379 1000 379 1000 318 940 c 128,-1,18
 257 880 257 880 257 812 c 0,19,20
 257 740 257 740 310.5 691 c 128,-1,21
 364 642 364 642 546 601 c 0,22,23
 742 556 742 556 833.5 483.5 c 128,-1,24
 925 411 925 411 925 282 c 0,25,26
 925 148 925 148 816.5 64 c 128,-1,27
 708 -20 708 -20 526 -20 c 0,28,29
 320 -20 320 -20 211 78.5 c 128,-1,30
 102 177 102 177 102 304 c 1,31,-1
 221 304 l 1,32,33
 229 176 229 176 326 129 c 128,-1,34
 423 82 423 82 526 82 c 0,35,36
 662 82 662 82 733.5 141 c 128,-1,37
 805 200 805 200 805 276 c 0,0,1
EndSplineSet
Substitution2: "'unic' Unicase lookup 2 subtable" S
Substitution2: "'smcp' Lowercase to Small Capitals lookup 1 subtable" S.smcp
EndChar

StartChar: t
Encoding: 116 116 89
Width: 659
GlyphClass: 2
Flags: W
AnchorPoint: "Anchor-5" 659 1511 basechar 0
AnchorPoint: "Anchor-3" 659 -407 basechar 0
AnchorPoint: "Anchor-2" 659 1600 basechar 0
AnchorPoint: "Anchor-1" 433 0 basechar 0
AnchorPoint: "Anchor-0" 289 1511 basechar 0
LayerCount: 2
Fore
SplineSet
586 -4 m 1,0,1
 540 -20 540 -20 458 -20 c 0,2,3
 354 -20 354 -20 288 40.5 c 128,-1,4
 222 101 222 101 222 264 c 2,5,-1
 222 984 l 1,6,-1
 24 984 l 1,7,-1
 24 1082 l 1,8,-1
 222 1082 l 1,9,-1
 222 1360 l 1,10,-1
 343 1360 l 1,11,-1
 343 1082 l 1,12,-1
 566 1082 l 1,13,-1
 566 984 l 1,14,-1
 343 984 l 1,15,-1
 343 264 l 2,16,17
 343 150 343 150 385.5 117.5 c 128,-1,18
 428 85 428 85 483 85 c 0,19,20
 511 85 511 85 535.5 88.5 c 128,-1,21
 560 92 560 92 581 96 c 1,22,-1
 586 -4 l 1,0,1
EndSplineSet
Substitution2: "'unic' Unicase lookup 2 subtable" T
Substitution2: "'smcp' Lowercase to Small Capitals lookup 1 subtable" T.smcp
EndChar

StartChar: u
Encoding: 117 117 90
Width: 1125
GlyphClass: 2
Flags: W
AnchorPoint: "Anchor-5" 1125 1292 basechar 0
AnchorPoint: "Anchor-4" 922 654 basechar 0
AnchorPoint: "Anchor-3" 1125 -407 basechar 0
AnchorPoint: "Anchor-2" 1125 1600 basechar 0
AnchorPoint: "Anchor-1" 561 0 basechar 0
AnchorPoint: "Anchor-0" 574 1292 basechar 0
LayerCount: 2
Fore
SplineSet
855 0 m 1,0,-1
 852 137 l 1,1,2
 802 64 802 64 717 22 c 128,-1,3
 632 -20 632 -20 508 -20 c 0,4,5
 349 -20 349 -20 250.5 74 c 128,-1,6
 152 168 152 168 152 390 c 2,7,-1
 152 1082 l 1,8,-1
 272 1082 l 1,9,-1
 272 388 l 2,10,11
 272 215 272 215 345.5 149.5 c 128,-1,12
 419 84 419 84 522 84 c 0,13,14
 665 84 665 84 742.5 144.5 c 128,-1,15
 820 205 820 205 850 297 c 1,16,-1
 850 1082 l 1,17,-1
 970 1082 l 1,18,-1
 970 0 l 1,19,-1
 855 0 l 1,0,-1
EndSplineSet
Substitution2: "'unic' Unicase lookup 2 subtable" U.unic
Substitution2: "'smcp' Lowercase to Small Capitals lookup 1 subtable" U.smcp
EndChar

StartChar: v
Encoding: 118 118 91
Width: 985
GlyphClass: 2
Flags: W
AnchorPoint: "Anchor-5" 985 1280 basechar 0
AnchorPoint: "Anchor-3" 985 -407 basechar 0
AnchorPoint: "Anchor-2" 985 1600 basechar 0
AnchorPoint: "Anchor-1" 497 10 basechar 0
AnchorPoint: "Anchor-0" 499 1280 basechar 0
LayerCount: 2
Fore
SplineSet
946 1082 m 1,0,-1
 541 0 l 1,1,-1
 444 0 l 1,2,-1
 38 1082 l 1,3,-1
 162 1082 l 1,4,-1
 494 164 l 1,5,-1
 822 1082 l 1,6,-1
 946 1082 l 1,0,-1
EndSplineSet
Substitution2: "'unic' Unicase lookup 2 subtable" V
Substitution2: "'smcp' Lowercase to Small Capitals lookup 1 subtable" V.smcp
EndChar

StartChar: w
Encoding: 119 119 92
Width: 1545
GlyphClass: 2
Flags: W
AnchorPoint: "Anchor-5" 1545 1292 basechar 0
AnchorPoint: "Anchor-3" 1545 -407 basechar 0
AnchorPoint: "Anchor-2" 1545 1600 basechar 0
AnchorPoint: "Anchor-1" 768 10 basechar 0
AnchorPoint: "Anchor-0" 765 1292 basechar 0
LayerCount: 2
Fore
SplineSet
1474 1082 m 1,0,-1
 1159 0 l 1,1,-1
 1057 0 l 1,2,-1
 778 859 l 1,3,-1
 766 918 l 1,4,-1
 752 858 l 1,5,-1
 479 0 l 1,6,-1
 377 0 l 1,7,-1
 63 1082 l 1,8,-1
 186 1082 l 1,9,-1
 416 249 l 1,10,-1
 434 158 l 1,11,-1
 457 254 l 1,12,-1
 717 1082 l 1,13,-1
 820 1082 l 1,14,-1
 1076 261 l 1,15,-1
 1105 148 l 1,16,-1
 1127 252 l 1,17,-1
 1350 1082 l 1,18,-1
 1474 1082 l 1,0,-1
EndSplineSet
Substitution2: "'unic' Unicase lookup 2 subtable" W
Substitution2: "'smcp' Lowercase to Small Capitals lookup 1 subtable" W.smcp
EndChar

StartChar: x
Encoding: 120 120 93
Width: 997
GlyphClass: 2
Flags: W
AnchorPoint: "Anchor-5" 997 1280 basechar 0
AnchorPoint: "Anchor-3" 997 -407 basechar 0
AnchorPoint: "Anchor-2" 997 1600 basechar 0
AnchorPoint: "Anchor-1" 513 10 basechar 0
AnchorPoint: "Anchor-0" 507 1280 basechar 0
LayerCount: 2
Fore
SplineSet
205 1082 m 1,0,-1
 496 644 l 1,1,-1
 789 1082 l 1,2,-1
 931 1082 l 1,3,-1
 564 551 l 1,4,-1
 946 0 l 1,5,-1
 806 0 l 1,6,-1
 497 458 l 1,7,-1
 190 0 l 1,8,-1
 48 0 l 1,9,-1
 431 551 l 1,10,-1
 64 1082 l 1,11,-1
 205 1082 l 1,0,-1
EndSplineSet
Substitution2: "'unic' Unicase lookup 2 subtable" X
Substitution2: "'smcp' Lowercase to Small Capitals lookup 1 subtable" X.smcp
EndChar

StartChar: y
Encoding: 121 121 94
Width: 974
GlyphClass: 2
Flags: W
AnchorPoint: "Anchor-5" 974 1292 basechar 0
AnchorPoint: "Anchor-4" 744 654 basechar 0
AnchorPoint: "Anchor-3" 974 -407 basechar 0
AnchorPoint: "Anchor-2" 974 1600 basechar 0
AnchorPoint: "Anchor-1" 714 -158 basechar 0
AnchorPoint: "Anchor-0" 514 1292 basechar 0
LayerCount: 2
Fore
SplineSet
486 -174 m 2,0,1
 468 -223 468 -223 435 -284.5 c 128,-1,2
 402 -346 402 -346 342 -391.5 c 128,-1,3
 282 -437 282 -437 183 -437 c 0,4,5
 130 -437 130 -437 91 -424 c 1,6,-1
 91 -324 l 1,7,8
 102 -327 102 -327 123 -329 c 128,-1,9
 144 -331 144 -331 152 -331 c 0,10,11
 250 -331 250 -331 302 -281.5 c 128,-1,12
 354 -232 354 -232 388 -135 c 2,13,-1
 441 9 l 1,14,-1
 33 1082 l 1,15,-1
 163 1082 l 1,16,-1
 500 172 l 1,17,-1
 815 1082 l 1,18,-1
 944 1082 l 1,19,-1
 486 -174 l 2,0,1
EndSplineSet
Substitution2: "'unic' Unicase lookup 2 subtable" Y
Substitution2: "'smcp' Lowercase to Small Capitals lookup 1 subtable" Y.smcp
EndChar

StartChar: z
Encoding: 122 122 95
Width: 997
GlyphClass: 2
Flags: W
AnchorPoint: "Anchor-5" 997 1292 basechar 0
AnchorPoint: "Anchor-3" 997 -407 basechar 0
AnchorPoint: "Anchor-2" 997 1600 basechar 0
AnchorPoint: "Anchor-1" 532 10 basechar 0
AnchorPoint: "Anchor-0" 512 1292 basechar 0
LayerCount: 2
Fore
SplineSet
108 979 m 1,0,-1
 108 1082 l 1,1,-1
 894 1082 l 1,2,-1
 894 994 l 1,3,-1
 237 102 l 1,4,-1
 939 102 l 1,5,-1
 939 0 l 1,6,-1
 88 0 l 1,7,-1
 88 89 l 1,8,-1
 743 979 l 1,9,-1
 108 979 l 1,0,-1
EndSplineSet
Substitution2: "'unic' Unicase lookup 2 subtable" Z
Substitution2: "'smcp' Lowercase to Small Capitals lookup 1 subtable" Z.smcp
EndChar

StartChar: braceleft
Encoding: 123 123 96
Width: 677
Flags: W
LayerCount: 2
Fore
SplineSet
300 285 m 2,0,1
 300 403 300 403 245.5 473 c 128,-1,2
 191 543 191 543 69 543 c 1,3,-1
 69 648 l 1,4,5
 191 648 191 648 245.5 717.5 c 128,-1,6
 300 787 300 787 300 905 c 2,7,-1
 300 1132 l 2,8,9
 300 1290 300 1290 372 1414.5 c 128,-1,10
 444 1539 444 1539 637 1597 c 1,11,-1
 664 1518 l 1,12,13
 530 1476 530 1476 474.5 1372 c 128,-1,14
 419 1268 419 1268 419 1132 c 2,15,-1
 419 905 l 2,16,17
 419 800 419 800 376 717.5 c 128,-1,18
 333 635 333 635 237 595 c 1,19,20
 333 556 333 556 376 473 c 128,-1,21
 419 390 419 390 419 285 c 2,22,-1
 419 59 l 2,23,24
 419 -78 419 -78 476.5 -179.5 c 128,-1,25
 534 -281 534 -281 667 -325 c 1,26,-1
 637 -405 l 1,27,28
 444 -347 444 -347 372 -222.5 c 128,-1,29
 300 -98 300 -98 300 59 c 2,30,-1
 300 285 l 2,0,1
EndSplineSet
EndChar

StartChar: bar
Encoding: 124 124 97
Width: 453
Flags: W
LayerCount: 2
Fore
SplineSet
280 1456 m 1,0,-1
 280 -270 l 1,1,-1
 178 -270 l 1,2,-1
 178 1456 l 1,3,-1
 280 1456 l 1,0,-1
EndSplineSet
EndChar

StartChar: braceright
Encoding: 125 125 98
Width: 677
Flags: W
LayerCount: 2
Fore
SplineSet
376 905 m 2,0,1
 376 787 376 787 430.5 717.5 c 128,-1,2
 485 648 485 648 607 648 c 1,3,-1
 607 543 l 1,4,5
 485 543 485 543 430.5 473 c 128,-1,6
 376 403 376 403 376 285 c 2,7,-1
 376 59 l 2,8,9
 376 -98 376 -98 304.5 -222.5 c 128,-1,10
 233 -347 233 -347 39 -405 c 1,11,-1
 10 -325 l 1,12,13
 142 -281 142 -281 199.5 -179.5 c 128,-1,14
 257 -78 257 -78 257 59 c 2,15,-1
 257 285 l 2,16,17
 257 393 257 393 303 476 c 128,-1,18
 349 559 349 559 450 595 c 1,19,20
 349 632 349 632 303 714.5 c 128,-1,21
 257 797 257 797 257 905 c 2,22,-1
 257 1132 l 2,23,24
 257 1268 257 1268 201.5 1372 c 128,-1,25
 146 1476 146 1476 13 1518 c 1,26,-1
 39 1597 l 1,27,28
 233 1539 233 1539 304.5 1414.5 c 128,-1,29
 376 1290 376 1290 376 1132 c 2,30,-1
 376 905 l 2,0,1
EndSplineSet
EndChar

StartChar: asciitilde
Encoding: 126 126 99
Width: 1403
Flags: W
LayerCount: 2
Fore
SplineSet
1150 765 m 1,0,-1
 1255 765 l 1,1,2
 1255 627 1255 627 1176.5 525 c 128,-1,3
 1098 423 1098 423 958 423 c 0,4,5
 870 423 870 423 805 460.5 c 128,-1,6
 740 498 740 498 660 568 c 0,7,8
 597 625 597 625 549.5 653 c 128,-1,9
 502 681 502 681 441 681 c 0,10,11
 254 681 254 681 254 450 c 1,12,-1
 146 449 l 1,13,14
 146 591 146 591 223 689.5 c 128,-1,15
 300 788 300 788 441 788 c 0,16,17
 530 788 530 788 597 749.5 c 128,-1,18
 664 711 664 711 740 643 c 0,19,20
 805 583 805 583 853 556.5 c 128,-1,21
 901 530 901 530 958 530 c 0,22,23
 1049 530 1049 530 1099.5 594 c 128,-1,24
 1150 658 1150 658 1150 765 c 1,0,-1
EndSplineSet
EndChar

StartChar: exclamdown
Encoding: 161 161 100
Width: 453
Flags: W
LayerCount: 2
Fore
SplineSet
306 1023 m 0,0,1
 306 942 306 942 224 942 c 0,2,3
 141 942 141 942 141 1023 c 0,4,5
 141 1102 141 1102 224 1102 c 0,6,7
 306 1102 306 1102 306 1023 c 0,0,1
168 -360 m 1,8,-1
 175 690 l 1,9,-1
 286 690 l 1,10,-1
 292 -360 l 1,11,-1
 168 -360 l 1,8,-1
EndSplineSet
EndChar

StartChar: cent
Encoding: 162 162 101
Width: 1115
Flags: W
LayerCount: 2
Fore
SplineSet
996 335 m 1,0,1
 989 193 989 193 885.5 96.5 c 128,-1,2
 782 0 782 0 636 -17 c 1,3,-1
 636 -245 l 1,4,-1
 516 -245 l 1,5,-1
 516 -16 l 1,6,7
 320 7 320 7 219.5 158 c 128,-1,8
 119 309 119 309 119 520 c 2,9,-1
 119 562 l 2,10,11
 119 774 119 774 219.5 924.5 c 128,-1,12
 320 1075 320 1075 516 1098 c 1,13,-1
 516 1318 l 1,14,-1
 636 1318 l 1,15,-1
 636 1099 l 1,16,17
 788 1082 788 1082 888.5 980.5 c 128,-1,18
 989 879 989 879 996 718 c 1,19,-1
 882 718 l 1,20,21
 875 849 875 849 788 924.5 c 128,-1,22
 701 1000 701 1000 579 1000 c 0,23,24
 395 1000 395 1000 316.5 867 c 128,-1,25
 238 734 238 734 238 562 c 2,26,-1
 238 520 l 2,27,28
 238 347 238 347 316 214.5 c 128,-1,29
 394 82 394 82 580 82 c 0,30,31
 693 82 693 82 783 146.5 c 128,-1,32
 873 211 873 211 882 335 c 1,33,-1
 996 335 l 1,0,1
EndSplineSet
EndChar

StartChar: sterling
Encoding: 163 163 102
Width: 1170
Flags: W
LayerCount: 2
Fore
SplineSet
97 0 m 1,0,-1
 97 104 l 1,1,-1
 196 104 l 1,2,3
 248 119 248 119 270 204 c 128,-1,4
 292 289 292 289 290 368 c 2,5,-1
 281 645 l 1,6,-1
 93 645 l 1,7,-1
 93 750 l 1,8,-1
 278 750 l 1,9,-1
 269 1039 l 1,10,11
 269 1246 269 1246 382 1361 c 128,-1,12
 495 1476 495 1476 674 1476 c 0,13,14
 862 1476 862 1476 964.5 1368 c 128,-1,15
 1067 1260 1067 1260 1067 1088 c 1,16,-1
 945 1088 l 1,17,18
 945 1240 945 1240 861.5 1306 c 128,-1,19
 778 1372 778 1372 666 1372 c 0,20,21
 544 1372 544 1372 468 1286 c 128,-1,22
 392 1200 392 1200 392 1039 c 1,23,-1
 401 750 l 1,24,-1
 746 750 l 1,25,-1
 746 645 l 1,26,-1
 405 645 l 1,27,-1
 414 368 l 2,28,29
 417 196 417 196 349 104 c 1,30,-1
 1094 104 l 1,31,-1
 1094 0 l 1,32,-1
 97 0 l 1,0,-1
EndSplineSet
Substitution2: "'c2sc' Capitals to Small Capitals lookup 0 subtable" sterling.smcp
Position2: "'cpsp' Capital Spacing lookup 0 subtable" dx=36 dy=0 dh=72 dv=0
EndChar

StartChar: currency
Encoding: 164 164 103
Width: 1481
Flags: W
LayerCount: 2
Fore
SplineSet
1376 60 m 1,0,-1
 1289 -27 l 1,1,-1
 1132 133 l 1,2,3
 1054 61 1054 61 953.5 20.5 c 128,-1,4
 853 -20 853 -20 740 -20 c 0,5,6
 517 -20 517 -20 350 132 c 1,7,-1
 195 -26 l 1,8,-1
 110 60 l 1,9,-1
 269 222 l 1,10,11
 211 301 211 301 178 399.5 c 128,-1,12
 145 498 145 498 145 608 c 0,13,14
 145 723 145 723 180.5 824.5 c 128,-1,15
 216 926 216 926 278 1006 c 1,16,-1
 110 1178 l 1,17,-1
 195 1264 l 1,18,-1
 362 1094 l 1,19,20
 525 1234 525 1234 740 1234 c 0,21,22
 956 1234 956 1234 1120 1093 c 1,23,-1
 1289 1265 l 1,24,-1
 1376 1178 l 1,25,-1
 1205 1003 l 1,26,27
 1266 923 1266 923 1300.5 822.5 c 128,-1,28
 1335 722 1335 722 1335 608 c 0,29,30
 1335 393 1335 393 1214 225 c 1,31,-1
 1376 60 l 1,0,-1
258 608 m 0,32,33
 258 465 258 465 323.5 347.5 c 128,-1,34
 389 230 389 230 498.5 160.5 c 128,-1,35
 608 91 608 91 740 91 c 256,36,37
 872 91 872 91 981 160.5 c 128,-1,38
 1090 230 1090 230 1155.5 347.5 c 128,-1,39
 1221 465 1221 465 1221 608 c 0,40,41
 1221 750 1221 750 1155.5 867 c 128,-1,42
 1090 984 1090 984 981 1053.5 c 128,-1,43
 872 1123 872 1123 740 1123 c 256,44,45
 608 1123 608 1123 498.5 1053.5 c 128,-1,46
 389 984 389 984 323.5 867 c 128,-1,47
 258 750 258 750 258 608 c 0,32,33
EndSplineSet
EndChar

StartChar: yen
Encoding: 165 165 104
Width: 1057
Flags: W
LayerCount: 2
Fore
SplineSet
945 324 m 1,0,-1
 587 324 l 1,1,-1
 587 0 l 1,2,-1
 463 0 l 1,3,-1
 463 324 l 1,4,-1
 109 324 l 1,5,-1
 109 413 l 1,6,-1
 463 413 l 1,7,-1
 463 617 l 1,8,-1
 109 617 l 1,9,-1
 109 706 l 1,10,-1
 423 706 l 1,11,-1
 24 1456 l 1,12,-1
 163 1456 l 1,13,-1
 528 731 l 1,14,-1
 893 1456 l 1,15,-1
 1030 1456 l 1,16,-1
 631 706 l 1,17,-1
 945 706 l 1,18,-1
 945 617 l 1,19,-1
 587 617 l 1,20,-1
 587 413 l 1,21,-1
 945 413 l 1,22,-1
 945 324 l 1,0,-1
EndSplineSet
Substitution2: "'c2sc' Capitals to Small Capitals lookup 0 subtable" yen.smcp
Position2: "'cpsp' Capital Spacing lookup 0 subtable" dx=36 dy=0 dh=72 dv=0
EndChar

StartChar: brokenbar
Encoding: 166 166 105
Width: 445
Flags: W
LayerCount: 2
Fore
SplineSet
280 1456 m 1,0,-1
 280 698 l 1,1,-1
 160 698 l 1,2,-1
 160 1456 l 1,3,-1
 280 1456 l 1,0,-1
280 -270 m 1,4,-1
 160 -270 l 1,5,-1
 160 501 l 1,6,-1
 280 501 l 1,7,-1
 280 -270 l 1,4,-1
EndSplineSet
EndChar

StartChar: section
Encoding: 167 167 106
Width: 1240
Flags: W
LayerCount: 2
Fore
SplineSet
1075 -139 m 0,0,1
 1075 -308 1075 -308 947 -401.5 c 128,-1,2
 819 -495 819 -495 606 -495 c 0,3,4
 482 -495 482 -495 366.5 -454.5 c 128,-1,5
 251 -414 251 -414 177 -320 c 128,-1,6
 103 -226 103 -226 103 -64 c 1,7,-1
 223 -62 l 1,8,9
 223 -188 223 -188 281.5 -260 c 128,-1,10
 340 -332 340 -332 428 -362.5 c 128,-1,11
 516 -393 516 -393 606 -393 c 0,12,13
 773 -393 773 -393 864 -321.5 c 128,-1,14
 955 -250 955 -250 955 -141 c 0,15,16
 955 -38 955 -38 879.5 24 c 128,-1,17
 804 86 804 86 585 147 c 1,18,19
 366 202 366 202 237.5 287.5 c 128,-1,20
 109 373 109 373 109 551 c 0,21,22
 109 755 109 755 332 826 c 1,23,24
 246 873 246 873 200 943 c 128,-1,25
 154 1013 154 1013 154 1120 c 0,26,27
 154 1281 154 1281 282 1378.5 c 128,-1,28
 410 1476 410 1476 624 1476 c 0,29,30
 845 1476 845 1476 971 1365 c 128,-1,31
 1097 1254 1097 1254 1097 1045 c 1,32,-1
 978 1045 l 1,33,34
 978 1182 978 1182 887 1278.5 c 128,-1,35
 796 1375 796 1375 624 1375 c 0,36,37
 442 1375 442 1375 358 1300.5 c 128,-1,38
 274 1226 274 1226 274 1123 c 0,39,40
 274 1010 274 1010 347.5 951.5 c 128,-1,41
 421 893 421 893 646 829 c 1,42,43
 870 770 870 770 995 689.5 c 128,-1,44
 1120 609 1120 609 1120 431 c 0,45,46
 1120 332 1120 332 1058 262 c 128,-1,47
 996 192 996 192 887 159 c 1,48,49
 979 112 979 112 1027 42 c 128,-1,50
 1075 -28 1075 -28 1075 -139 c 0,0,1
630 251 m 0,51,52
 701 232 701 232 754 214 c 1,53,54
 872 228 872 228 936 287.5 c 128,-1,55
 1000 347 1000 347 1000 428 c 0,56,57
 1000 537 1000 537 914 600 c 128,-1,58
 828 663 828 663 596 730 c 0,59,60
 515 751 515 751 456 772 c 1,61,62
 339 758 339 758 284 697.5 c 128,-1,63
 229 637 229 637 229 553 c 0,64,65
 229 437 229 437 308.5 378 c 128,-1,66
 388 319 388 319 630 251 c 0,51,52
EndSplineSet
EndChar

StartChar: dieresis
Encoding: 168 168 107
Width: 881
Flags: W
LayerCount: 2
Fore
SplineSet
138 1397 m 256,0,1
 138 1477 138 1477 220 1477 c 0,2,3
 303 1477 303 1477 303 1397 c 256,4,5
 303 1317 303 1317 220 1317 c 0,6,7
 138 1317 138 1317 138 1397 c 256,0,1
575 1396 m 0,8,9
 575 1477 575 1477 657 1477 c 0,10,11
 740 1477 740 1477 740 1396 c 0,12,13
 740 1317 740 1317 657 1317 c 0,14,15
 575 1317 575 1317 575 1396 c 0,8,9
EndSplineSet
EndChar

StartChar: copyright
Encoding: 169 169 108
Width: 1638
Flags: W
LayerCount: 2
Fore
SplineSet
107 729 m 256,0,1
 107 940 107 940 203 1109.5 c 128,-1,2
 299 1279 299 1279 460.5 1377.5 c 128,-1,3
 622 1476 622 1476 817 1476 c 0,4,5
 1013 1476 1013 1476 1174 1377.5 c 128,-1,6
 1335 1279 1335 1279 1431 1109.5 c 128,-1,7
 1527 940 1527 940 1527 729 c 256,8,9
 1527 518 1527 518 1431 348 c 128,-1,10
 1335 178 1335 178 1174 78.5 c 128,-1,11
 1013 -21 1013 -21 817 -21 c 0,12,13
 622 -21 622 -21 460.5 78.5 c 128,-1,14
 299 178 299 178 203 348 c 128,-1,15
 107 518 107 518 107 729 c 256,0,1
193 729 m 256,16,17
 193 543 193 543 277.5 392.5 c 128,-1,18
 362 242 362 242 504 154 c 128,-1,19
 646 66 646 66 817 66 c 256,20,21
 988 66 988 66 1130 154 c 128,-1,22
 1272 242 1272 242 1356.5 392.5 c 128,-1,23
 1441 543 1441 543 1441 729 c 256,24,25
 1441 915 1441 915 1356.5 1064.5 c 128,-1,26
 1272 1214 1272 1214 1130 1302 c 128,-1,27
 988 1390 988 1390 817 1390 c 256,28,29
 646 1390 646 1390 504 1302 c 128,-1,30
 362 1214 362 1214 277.5 1064.5 c 128,-1,31
 193 915 193 915 193 729 c 256,16,17
1023 607 m 1,32,-1
 1122 607 l 1,33,34
 1122 450 1122 450 1036.5 371.5 c 128,-1,35
 951 293 951 293 807 293 c 0,36,37
 656 293 656 293 565 400.5 c 128,-1,38
 474 508 474 508 474 680 c 2,39,-1
 474 777 l 2,40,41
 474 949 474 949 565 1056.5 c 128,-1,42
 656 1164 656 1164 807 1164 c 0,43,44
 951 1164 951 1164 1037 1086 c 128,-1,45
 1123 1008 1123 1008 1123 851 c 1,46,-1
 1024 851 l 1,47,48
 1024 1074 1024 1074 807 1074 c 0,49,50
 694 1074 694 1074 634 989 c 128,-1,51
 574 904 574 904 574 778 c 2,52,-1
 574 680 l 2,53,54
 574 552 574 552 634 468 c 128,-1,55
 694 384 694 384 807 384 c 0,56,57
 1023 384 1023 384 1023 607 c 1,32,-1
EndSplineSet
EndChar

StartChar: ordfeminine
Encoding: 170 170 109
Width: 907
Flags: W
LayerCount: 2
Fore
SplineSet
649 705 m 1,0,1
 635 749 635 749 629 799 c 1,2,3
 596 756 596 756 539.5 723.5 c 128,-1,4
 483 691 483 691 407 691 c 0,5,6
 286 691 286 691 222 751 c 128,-1,7
 158 811 158 811 158 909 c 0,8,9
 158 1141 158 1141 487 1141 c 2,10,-1
 626 1141 l 1,11,-1
 626 1201 l 2,12,13
 626 1380 626 1380 464 1380 c 0,14,15
 376 1380 376 1380 324 1344.5 c 128,-1,16
 272 1309 272 1309 272 1237 c 1,17,-1
 164 1243 l 1,18,19
 164 1344 164 1344 246 1410 c 128,-1,20
 328 1476 328 1476 464 1476 c 0,21,22
 585 1476 585 1476 660 1406.5 c 128,-1,23
 735 1337 735 1337 735 1200 c 2,24,-1
 735 886 l 2,25,26
 735 789 735 789 761 705 c 1,27,-1
 649 705 l 1,0,1
427 787 m 0,28,29
 485 787 485 787 542 819 c 128,-1,30
 599 851 599 851 626 891 c 1,31,-1
 626 1058 l 1,32,-1
 488 1058 l 2,33,34
 266 1058 266 1058 266 913 c 0,35,36
 266 787 266 787 427 787 c 0,28,29
EndSplineSet
EndChar

StartChar: logicalnot
Encoding: 172 172 111
Width: 1118
Flags: W
LayerCount: 2
Fore
SplineSet
125 776 m 1,0,-1
 937 776 l 1,1,-1
 937 386 l 1,2,-1
 817 386 l 1,3,-1
 817 670 l 1,4,-1
 125 670 l 1,5,-1
 125 776 l 1,0,-1
EndSplineSet
EndChar

StartChar: registered
Encoding: 174 174 112
Width: 1642
Flags: W
LayerCount: 2
Fore
SplineSet
103 729 m 256,0,1
 103 940 103 940 199 1109.5 c 128,-1,2
 295 1279 295 1279 456 1377.5 c 128,-1,3
 617 1476 617 1476 813 1476 c 0,4,5
 1008 1476 1008 1476 1169 1377.5 c 128,-1,6
 1330 1279 1330 1279 1426 1109.5 c 128,-1,7
 1522 940 1522 940 1522 729 c 256,8,9
 1522 518 1522 518 1426 348 c 128,-1,10
 1330 178 1330 178 1169 78.5 c 128,-1,11
 1008 -21 1008 -21 813 -21 c 0,12,13
 617 -21 617 -21 456 78.5 c 128,-1,14
 295 178 295 178 199 348 c 128,-1,15
 103 518 103 518 103 729 c 256,0,1
188 729 m 256,16,17
 188 543 188 543 272.5 392.5 c 128,-1,18
 357 242 357 242 499 154 c 128,-1,19
 641 66 641 66 813 66 c 0,20,21
 984 66 984 66 1126 154 c 128,-1,22
 1268 242 1268 242 1352.5 392.5 c 128,-1,23
 1437 543 1437 543 1437 729 c 256,24,25
 1437 915 1437 915 1352.5 1064.5 c 128,-1,26
 1268 1214 1268 1214 1126 1302 c 128,-1,27
 984 1390 984 1390 813 1390 c 0,28,29
 641 1390 641 1390 499 1302 c 128,-1,30
 357 1214 357 1214 272.5 1064.5 c 128,-1,31
 188 915 188 915 188 729 c 256,16,17
838 667 m 2,32,-1
 651 667 l 1,33,-1
 651 322 l 1,34,-1
 553 322 l 1,35,-1
 553 1161 l 1,36,-1
 810 1161 l 2,37,38
 1116 1161 1116 1161 1116 913 c 0,39,40
 1116 780 1116 780 974 716 c 1,41,42
 1047 691 1047 691 1075 635.5 c 128,-1,43
 1103 580 1103 580 1103 510 c 2,44,-1
 1103 465 l 2,45,46
 1103 380 1103 380 1120 338 c 1,47,-1
 1120 322 l 1,48,-1
 1018 322 l 1,49,50
 1008 348 1008 348 1006 396 c 128,-1,51
 1004 444 1004 444 1004 466 c 2,52,-1
 1004 509 l 2,53,54
 1004 592 1004 592 966.5 629.5 c 128,-1,55
 929 667 929 667 838 667 c 2,32,-1
651 1070 m 1,56,-1
 651 758 l 1,57,-1
 831 758 l 2,58,59
 907 759 907 759 962.5 797.5 c 128,-1,60
 1018 836 1018 836 1018 911 c 0,61,62
 1018 995 1018 995 972.5 1032.5 c 128,-1,63
 927 1070 927 1070 810 1070 c 2,64,-1
 651 1070 l 1,56,-1
EndSplineSet
EndChar

StartChar: macron
Encoding: 175 175 113
Width: 875
Flags: W
LayerCount: 2
Fore
SplineSet
757 1441 m 1,0,-1
 757 1344 l 1,1,-1
 137 1344 l 1,2,-1
 137 1441 l 1,3,-1
 757 1441 l 1,0,-1
EndSplineSet
EndChar

StartChar: degree
Encoding: 176 176 114
Width: 774
Flags: W
LayerCount: 2
Fore
SplineSet
143 1227 m 0,0,1
 143 1329 143 1329 215.5 1402.5 c 128,-1,2
 288 1476 288 1476 389 1476 c 0,3,4
 488 1476 488 1476 559 1402.5 c 128,-1,5
 630 1329 630 1329 630 1227 c 0,6,7
 630 1124 630 1124 559 1052 c 128,-1,8
 488 980 488 980 389 980 c 0,9,10
 288 980 288 980 215.5 1052 c 128,-1,11
 143 1124 143 1124 143 1227 c 0,0,1
233 1227 m 0,12,13
 233 1160 233 1160 278.5 1115.5 c 128,-1,14
 324 1071 324 1071 389 1071 c 256,15,16
 454 1071 454 1071 497.5 1115.5 c 128,-1,17
 541 1160 541 1160 541 1227 c 0,18,19
 541 1295 541 1295 497.5 1340.5 c 128,-1,20
 454 1386 454 1386 389 1386 c 256,21,22
 324 1386 324 1386 278.5 1340.5 c 128,-1,23
 233 1295 233 1295 233 1227 c 0,12,13
EndSplineSet
EndChar

StartChar: plusminus
Encoding: 177 177 115
Width: 1086
Flags: W
LayerCount: 2
Fore
SplineSet
1001 728 m 1,0,-1
 610 728 l 1,1,-1
 610 289 l 1,2,-1
 499 289 l 1,3,-1
 499 728 l 1,4,-1
 85 728 l 1,5,-1
 85 829 l 1,6,-1
 499 829 l 1,7,-1
 499 1267 l 1,8,-1
 610 1267 l 1,9,-1
 610 829 l 1,10,-1
 1001 829 l 1,11,-1
 1001 728 l 1,0,-1
964 102 m 1,12,-1
 964 0 l 1,13,-1
 129 0 l 1,14,-1
 129 102 l 1,15,-1
 964 102 l 1,12,-1
EndSplineSet
EndChar

StartChar: twosuperior
Encoding: 178 178 116
Width: 740
Flags: W
LayerCount: 2
Fore
SplineSet
667 753 m 1,0,-1
 667 665 l 1,1,-1
 96 665 l 1,2,-1
 96 741 l 1,3,-1
 385 1024 l 2,4,5
 460 1095 460 1095 491 1145.5 c 128,-1,6
 522 1196 522 1196 522 1238 c 0,7,8
 522 1300 522 1300 481.5 1338.5 c 128,-1,9
 441 1377 441 1377 363 1377 c 0,10,11
 272 1377 272 1377 227 1331.5 c 128,-1,12
 182 1286 182 1286 182 1216 c 1,13,-1
 76 1216 l 1,14,15
 76 1318 76 1318 152 1391.5 c 128,-1,16
 228 1465 228 1465 361 1465 c 0,17,18
 484 1465 484 1465 556 1405 c 128,-1,19
 628 1345 628 1345 628 1239 c 0,20,21
 628 1162 628 1162 574.5 1094 c 128,-1,22
 521 1026 521 1026 443 951 c 2,23,-1
 230 753 l 1,24,-1
 667 753 l 1,0,-1
EndSplineSet
EndChar

StartChar: threesuperior
Encoding: 179 179 117
Width: 740
Flags: W
LayerCount: 2
Fore
SplineSet
346 1026 m 2,0,-1
 268 1026 l 1,1,-1
 268 1107 l 1,2,-1
 346 1107 l 2,3,4
 437 1107 437 1107 483.5 1146 c 128,-1,5
 530 1185 530 1185 530 1242 c 256,6,7
 530 1299 530 1299 490 1338 c 128,-1,8
 450 1377 450 1377 362 1377 c 0,9,10
 289 1377 289 1377 240 1342 c 128,-1,11
 191 1307 191 1307 191 1246 c 1,12,-1
 85 1246 l 1,13,14
 85 1346 85 1346 165.5 1405.5 c 128,-1,15
 246 1465 246 1465 361 1465 c 0,16,17
 485 1465 485 1465 560.5 1407.5 c 128,-1,18
 636 1350 636 1350 636 1244 c 0,19,20
 636 1120 636 1120 492 1069 c 1,21,22
 652 1027 652 1027 652 881 c 0,23,24
 652 772 652 772 569.5 713 c 128,-1,25
 487 654 487 654 364 654 c 0,26,27
 256 654 256 654 163.5 710 c 128,-1,28
 71 766 71 766 71 885 c 1,29,-1
 177 885 l 1,30,31
 177 822 177 822 230.5 781.5 c 128,-1,32
 284 741 284 741 367 741 c 0,33,34
 546 741 546 741 546 884 c 0,35,36
 546 960 546 960 490.5 993 c 128,-1,37
 435 1026 435 1026 346 1026 c 2,0,-1
EndSplineSet
EndChar

StartChar: acute
Encoding: 180 180 118
Width: 577
Flags: W
LayerCount: 2
Fore
SplineSet
125 1257 m 1,0,-1
 316 1536 l 1,1,-1
 461 1536 l 1,2,-1
 229 1257 l 1,3,-1
 125 1257 l 1,0,-1
EndSplineSet
EndChar

StartChar: mu
Encoding: 181 181 119
Width: 1141
Flags: W
LayerCount: 2
Fore
SplineSet
553 -20 m 0,0,1
 470 -20 470 -20 399.5 8.5 c 128,-1,2
 329 37 329 37 281 106 c 1,3,-1
 281 -416 l 1,4,-1
 163 -416 l 1,5,-1
 163 1082 l 1,6,-1
 281 1082 l 1,7,-1
 281 450 l 2,8,9
 281 226 281 226 360.5 153.5 c 128,-1,10
 440 81 440 81 544 81 c 0,11,12
 691 81 691 81 763 146 c 128,-1,13
 835 211 835 211 860 317 c 1,14,-1
 860 1082 l 1,15,-1
 980 1082 l 1,16,-1
 980 0 l 1,17,-1
 871 0 l 1,18,-1
 864 155 l 1,19,20
 818 73 818 73 741.5 26.5 c 128,-1,21
 665 -20 665 -20 553 -20 c 0,0,1
EndSplineSet
EndChar

StartChar: paragraph
Encoding: 182 182 120
Width: 974
Flags: W
LayerCount: 2
Fore
SplineSet
802 0 m 1,0,-1
 681 0 l 1,1,-1
 681 520 l 1,2,-1
 575 520 l 2,3,4
 336 520 336 520 209.5 653 c 128,-1,5
 83 786 83 786 83 988 c 0,6,7
 83 1189 83 1189 209.5 1322.5 c 128,-1,8
 336 1456 336 1456 575 1456 c 2,9,-1
 802 1456 l 1,10,-1
 802 0 l 1,0,-1
EndSplineSet
EndChar

StartChar: periodcentered
Encoding: 183 183 121
Width: 504
Flags: W
LayerCount: 2
Fore
SplineSet
163 717 m 0,0,1
 163 801 163 801 248 801 c 0,2,3
 288 801 288 801 311 776.5 c 128,-1,4
 334 752 334 752 334 717 c 0,5,6
 334 636 334 636 248 636 c 0,7,8
 163 636 163 636 163 717 c 0,0,1
EndSplineSet
EndChar

StartChar: cedilla
Encoding: 184 184 122
Width: 499
GlyphClass: 2
Flags: W
AnchorPoint: "Anchor-11" 196 -437 basemark 0
LayerCount: 2
Fore
SplineSet
153 0 m 1,0,-1
 246 0 l 1,1,-1
 235 -65 l 1,2,3
 296 -73 296 -73 348 -110 c 128,-1,4
 400 -147 400 -147 400 -236 c 256,5,6
 400 -325 400 -325 323 -380 c 128,-1,7
 246 -435 246 -435 106 -435 c 1,8,-1
 99 -358 l 1,9,10
 173 -358 173 -358 236.5 -329.5 c 128,-1,11
 300 -301 300 -301 300 -237 c 0,12,13
 300 -179 300 -179 257 -157.5 c 128,-1,14
 214 -136 214 -136 125 -128 c 1,15,-1
 153 0 l 1,0,-1
EndSplineSet
EndChar

StartChar: onesuperior
Encoding: 185 185 123
Width: 740
Flags: W
LayerCount: 2
Fore
SplineSet
464 1455 m 1,0,-1
 464 665 l 1,1,-1
 359 665 l 1,2,-1
 359 1328 l 1,3,-1
 127 1259 l 1,4,-1
 127 1349 l 1,5,-1
 451 1455 l 1,6,-1
 464 1455 l 1,0,-1
EndSplineSet
EndChar

StartChar: ordmasculine
Encoding: 186 186 124
Width: 923
Flags: W
LayerCount: 2
Fore
SplineSet
135 1033 m 2,0,-1
 135 1132 l 2,1,2
 135 1283 135 1283 222.5 1379.5 c 128,-1,3
 310 1476 310 1476 458 1476 c 0,4,5
 610 1476 610 1476 696 1379.5 c 128,-1,6
 782 1283 782 1283 782 1132 c 2,7,-1
 782 1033 l 2,8,9
 782 883 782 883 696 786.5 c 128,-1,10
 610 690 610 690 460 690 c 256,11,12
 310 690 310 690 222.5 786.5 c 128,-1,13
 135 883 135 883 135 1033 c 2,0,-1
244 1132 m 2,14,-1
 244 1033 l 2,15,16
 244 930 244 930 296 858 c 128,-1,17
 348 786 348 786 460 786 c 0,18,19
 568 786 568 786 621 858 c 128,-1,20
 674 930 674 930 674 1033 c 2,21,-1
 674 1132 l 2,22,23
 674 1236 674 1236 621 1308 c 128,-1,24
 568 1380 568 1380 458 1380 c 0,25,26
 350 1380 350 1380 297 1308 c 128,-1,27
 244 1236 244 1236 244 1132 c 2,14,-1
EndSplineSet
EndChar

StartChar: questiondown
Encoding: 191 191 129
Width: 941
Flags: W
LayerCount: 2
Fore
SplineSet
567 1022 m 0,0,1
 567 941 567 941 485 941 c 0,2,3
 447 941 447 941 424.5 964.5 c 128,-1,4
 402 988 402 988 402 1022 c 0,5,6
 402 1101 402 1101 485 1101 c 0,7,8
 567 1101 567 1101 567 1022 c 0,0,1
432 688 m 1,9,-1
 551 688 l 1,10,11
 550 560 550 560 522.5 501 c 128,-1,12
 495 442 495 442 404 352 c 0,13,14
 327 273 327 273 267.5 197.5 c 128,-1,15
 208 122 208 122 208 -9 c 0,16,17
 208 -277 208 -277 470 -277 c 0,18,19
 586 -277 586 -277 659 -208.5 c 128,-1,20
 732 -140 732 -140 733 -21 c 1,21,-1
 852 -21 l 1,22,23
 850 -196 850 -196 740 -289.5 c 128,-1,24
 630 -383 630 -383 470 -383 c 0,25,26
 288 -383 288 -383 188 -282.5 c 128,-1,27
 88 -182 88 -182 88 -11 c 0,28,29
 88 134 88 134 162 239 c 128,-1,30
 236 344 236 344 337 438 c 1,31,32
 402 493 402 493 417 550.5 c 128,-1,33
 432 608 432 608 432 688 c 1,9,-1
EndSplineSet
EndChar

StartChar: AE
Encoding: 198 198 130
Width: 1865
GlyphClass: 2
Flags: W
AnchorPoint: "Anchor-5" 1865 1612 basechar 0
AnchorPoint: "Anchor-2" 1865 1600 basechar 0
AnchorPoint: "Anchor-0" 955 1612 basechar 0
LayerCount: 2
Fore
SplineSet
1824 102 m 1,0,-1
 1824 0 l 1,1,-1
 1006 0 l 1,2,-1
 990 390 l 1,3,-1
 394 390 l 1,4,-1
 164 0 l 1,5,-1
 18 0 l 1,6,-1
 899 1456 l 1,7,-1
 1762 1456 l 1,8,-1
 1762 1354 l 1,9,-1
 1069 1354 l 1,10,-1
 1092 809 l 1,11,-1
 1681 809 l 1,12,-1
 1681 708 l 1,13,-1
 1096 708 l 1,14,-1
 1122 102 l 1,15,-1
 1824 102 l 1,0,-1
461 502 m 1,16,-1
 985 502 l 1,17,-1
 950 1331 l 1,18,-1
 461 502 l 1,16,-1
EndSplineSet
Substitution2: "'c2sc' Capitals to Small Capitals lookup 0 subtable" AE.smcp
Position2: "'cpsp' Capital Spacing lookup 0 subtable" dx=36 dy=0 dh=72 dv=0
EndChar

StartChar: multiply
Encoding: 215 215 131
Width: 1072
Flags: W
LayerCount: 2
Fore
SplineSet
967 180 m 1,0,-1
 888 100 l 1,1,-1
 530 464 l 1,2,-1
 173 100 l 1,3,-1
 94 180 l 1,4,-1
 451 545 l 1,5,-1
 108 894 l 1,6,-1
 187 975 l 1,7,-1
 530 625 l 1,8,-1
 873 975 l 1,9,-1
 952 894 l 1,10,-1
 609 545 l 1,11,-1
 967 180 l 1,0,-1
EndSplineSet
EndChar

StartChar: Oslash
Encoding: 216 216 132
Width: 1387
GlyphClass: 2
Flags: W
AnchorPoint: "Anchor-5" 1387 1674 basechar 0
AnchorPoint: "Anchor-2" 1387 1600 basechar 0
AnchorPoint: "Anchor-0" 713 1674 basechar 0
LayerCount: 2
Fore
SplineSet
694 -20 m 0,0,1
 512 -20 512 -20 376 77 c 1,2,-1
 275 -84 l 1,3,-1
 171 -84 l 1,4,-1
 308 134 l 1,5,6
 126 319 126 319 126 650 c 2,7,-1
 126 806 l 2,8,9
 126 1111 126 1111 282 1293.5 c 128,-1,10
 438 1476 438 1476 692 1476 c 0,11,12
 916 1476 916 1476 1065 1336 c 1,13,-1
 1171 1505 l 1,14,-1
 1275 1505 l 1,15,-1
 1126 1268 l 1,16,17
 1260 1089 1260 1089 1260 806 c 2,18,-1
 1260 650 l 2,19,20
 1260 344 1260 344 1106.5 162 c 128,-1,21
 953 -20 953 -20 694 -20 c 0,0,1
249 650 m 2,22,23
 249 386 249 386 372 235 c 1,24,-1
 1003 1238 l 1,25,26
 886 1368 886 1368 692 1368 c 0,27,28
 486 1368 486 1368 367.5 1217 c 128,-1,29
 249 1066 249 1066 249 808 c 2,30,-1
 249 650 l 2,22,23
1138 808 m 2,31,32
 1138 1020 1138 1020 1058 1161 c 1,33,-1
 436 172 l 1,34,35
 543 88 543 88 694 88 c 0,36,37
 906 88 906 88 1022 239 c 128,-1,38
 1138 390 1138 390 1138 650 c 2,39,-1
 1138 808 l 2,31,32
EndSplineSet
Substitution2: "'c2sc' Capitals to Small Capitals lookup 0 subtable" Oslash.smcp
Position2: "'cpsp' Capital Spacing lookup 0 subtable" dx=36 dy=0 dh=72 dv=0
EndChar

StartChar: Thorn
Encoding: 222 222 133
Width: 1215
Flags: W
LayerCount: 2
Fore
SplineSet
627 324 m 2,0,-1
 303 324 l 1,1,-1
 303 0 l 1,2,-1
 183 0 l 1,3,-1
 183 1456 l 1,4,-1
 303 1456 l 1,5,-1
 303 1153 l 1,6,-1
 627 1153 l 2,7,8
 854 1153 854 1153 975 1034.5 c 128,-1,9
 1096 916 1096 916 1096 738 c 256,10,11
 1096 560 1096 560 975 442 c 128,-1,12
 854 324 854 324 627 324 c 2,0,-1
627 1051 m 2,13,-1
 303 1051 l 1,14,-1
 303 426 l 1,15,-1
 627 426 l 2,16,17
 813 426 813 426 894.5 524.5 c 128,-1,18
 976 623 976 623 976 736 c 0,19,20
 976 854 976 854 894.5 952.5 c 128,-1,21
 813 1051 813 1051 627 1051 c 2,13,-1
EndSplineSet
Substitution2: "'c2sc' Capitals to Small Capitals lookup 0 subtable" Thorn.smcp
Position2: "'cpsp' Capital Spacing lookup 0 subtable" dx=36 dy=0 dh=72 dv=0
EndChar

StartChar: germandbls
Encoding: 223 223 134
Width: 1201
Flags: W
LayerCount: 2
Fore
SplineSet
271 1128 m 2,0,-1
 271 0 l 1,1,-1
 152 0 l 1,2,-1
 152 1128 l 2,3,4
 152 1332 152 1332 249 1438 c 128,-1,5
 346 1544 346 1544 513 1544 c 0,6,7
 654 1544 654 1544 755.5 1465 c 128,-1,8
 857 1386 857 1386 857 1237 c 0,9,10
 857 1136 857 1136 826 1077.5 c 128,-1,11
 795 1019 795 1019 764 965.5 c 128,-1,12
 733 912 733 912 733 825 c 0,13,14
 733 752 733 752 788 698 c 128,-1,15
 843 644 843 644 914.5 592 c 128,-1,16
 986 540 986 540 1041 473 c 128,-1,17
 1096 406 1096 406 1096 307 c 0,18,19
 1096 146 1096 146 981 62.5 c 128,-1,20
 866 -21 866 -21 720 -21 c 0,21,22
 635 -21 635 -21 544.5 3.5 c 128,-1,23
 454 28 454 28 415 60 c 1,24,-1
 448 161 l 1,25,26
 485 134 485 134 558.5 107.5 c 128,-1,27
 632 81 632 81 706 81 c 0,28,29
 836 81 836 81 906.5 148 c 128,-1,30
 977 215 977 215 977 307 c 0,31,32
 977 386 977 386 922 441.5 c 128,-1,33
 867 497 867 497 795 548.5 c 128,-1,34
 723 600 723 600 668 665 c 128,-1,35
 613 730 613 730 613 827 c 0,36,37
 613 918 613 918 644.5 977 c 128,-1,38
 676 1036 676 1036 707.5 1092 c 128,-1,39
 739 1148 739 1148 739 1231 c 0,40,41
 739 1328 739 1328 674.5 1385.5 c 128,-1,42
 610 1443 610 1443 523 1443 c 0,43,44
 407 1443 407 1443 339 1369 c 128,-1,45
 271 1295 271 1295 271 1128 c 2,0,-1
EndSplineSet
Substitution2: "'smcp' Lowercase to Small Capitals lookup 1 subtable" Germandbls.smcp
EndChar

StartChar: ae
Encoding: 230 230 135
Width: 1732
GlyphClass: 2
Flags: W
AnchorPoint: "Anchor-5" 1732 1291 basechar 0
AnchorPoint: "Anchor-2" 1732 1600 basechar 0
AnchorPoint: "Anchor-0" 859 1291 basechar 0
LayerCount: 2
Fore
SplineSet
1636 112 m 1,0,1
 1593 72 1593 72 1505.5 26 c 128,-1,2
 1418 -20 1418 -20 1265 -20 c 0,3,4
 1127 -20 1127 -20 1027 35.5 c 128,-1,5
 927 91 927 91 868 188 c 1,6,7
 824 114 824 114 718 47 c 128,-1,8
 612 -20 612 -20 441 -20 c 0,9,10
 269 -20 269 -20 177.5 66 c 128,-1,11
 86 152 86 152 86 294 c 0,12,13
 86 449 86 449 197.5 541 c 128,-1,14
 309 633 309 633 525 633 c 2,15,-1
 781 633 l 1,16,-1
 781 720 l 2,17,18
 781 852 781 852 717.5 926 c 128,-1,19
 654 1000 654 1000 528 1000 c 0,20,21
 389 1000 389 1000 311 932 c 128,-1,22
 233 864 233 864 233 766 c 1,23,-1
 114 778 l 1,24,25
 114 918 114 918 227 1010 c 128,-1,26
 340 1102 340 1102 528 1102 c 0,27,28
 652 1102 652 1102 741.5 1049 c 128,-1,29
 831 996 831 996 871 890 c 1,30,31
 931 989 931 989 1025.5 1045.5 c 128,-1,32
 1120 1102 1120 1102 1236 1102 c 0,33,34
 1438 1102 1438 1102 1548.5 977.5 c 128,-1,35
 1659 853 1659 853 1659 638 c 2,36,-1
 1659 538 l 1,37,-1
 902 538 l 1,38,-1
 902 510 l 2,39,40
 902 332 902 332 988 206.5 c 128,-1,41
 1074 81 1074 81 1265 81 c 0,42,43
 1378 81 1378 81 1456.5 117.5 c 128,-1,44
 1535 154 1535 154 1589 200 c 1,45,-1
 1636 112 l 1,0,1
1236 1000 m 0,46,47
 1094 1000 1094 1000 1008 895.5 c 128,-1,48
 922 791 922 791 906 636 c 1,49,-1
 1539 636 l 1,50,-1
 1539 668 l 2,51,52
 1539 806 1539 806 1466 903 c 128,-1,53
 1393 1000 1393 1000 1236 1000 c 0,46,47
458 80 m 0,54,55
 561 80 561 80 651.5 130.5 c 128,-1,56
 742 181 742 181 781 235 c 1,57,-1
 781 536 l 1,58,-1
 527 536 l 2,59,60
 364 536 364 536 285 462 c 128,-1,61
 206 388 206 388 206 290 c 0,62,63
 206 196 206 196 270 138 c 128,-1,64
 334 80 334 80 458 80 c 0,54,55
EndSplineSet
Substitution2: "'unic' Unicase lookup 2 subtable" AE
Substitution2: "'smcp' Lowercase to Small Capitals lookup 1 subtable" AE.smcp
EndChar

StartChar: eth
Encoding: 240 240 136
Width: 1192
Flags: W
LayerCount: 2
Fore
SplineSet
1055 535 m 2,0,1
 1055 288 1055 288 931 134 c 128,-1,2
 807 -20 807 -20 616 -20 c 0,3,4
 410 -20 410 -20 280 121.5 c 128,-1,5
 150 263 150 263 150 466 c 0,6,7
 150 698 150 698 270 831.5 c 128,-1,8
 390 965 390 965 588 965 c 0,9,10
 794 965 794 965 920 822 c 1,11,12
 897 957 897 957 842.5 1060.5 c 128,-1,13
 788 1164 788 1164 710 1241 c 1,14,-1
 484 1101 l 1,15,-1
 434 1175 l 1,16,-1
 640 1303 l 1,17,18
 566 1361 566 1361 479 1403 c 128,-1,19
 392 1445 392 1445 297 1475 c 1,20,-1
 335 1579 l 1,21,22
 580 1506 580 1506 744 1367 c 1,23,-1
 939 1488 l 1,24,-1
 990 1415 l 1,25,-1
 811 1304 l 1,26,27
 930 1180 930 1180 992.5 1010.5 c 128,-1,28
 1055 841 1055 841 1055 624 c 2,29,-1
 1055 535 l 2,0,1
270 466 m 0,30,31
 270 324 270 324 360.5 204 c 128,-1,32
 451 84 451 84 620 84 c 0,33,34
 766 84 766 84 851 212 c 128,-1,35
 936 340 936 340 936 535 c 2,36,-1
 936 626 l 2,37,38
 936 654 936 654 935 681 c 1,39,40
 903 749 903 749 822.5 805 c 128,-1,41
 742 861 742 861 610 861 c 0,42,43
 438 861 438 861 354 749.5 c 128,-1,44
 270 638 270 638 270 466 c 0,30,31
EndSplineSet
Substitution2: "'unic' Unicase lookup 2 subtable" Eth
Substitution2: "'smcp' Lowercase to Small Capitals lookup 1 subtable" Eth.smcp
EndChar

StartChar: divide
Encoding: 247 247 137
Width: 1164
Flags: W
LayerCount: 2
Fore
SplineSet
495 1088 m 0,0,1
 495 1172 495 1172 580 1172 c 0,2,3
 620 1172 620 1172 643 1147.5 c 128,-1,4
 666 1123 666 1123 666 1088 c 0,5,6
 666 1054 666 1054 643 1030.5 c 128,-1,7
 620 1007 620 1007 580 1007 c 0,8,9
 495 1007 495 1007 495 1088 c 0,0,1
1070 761 m 1,10,-1
 1070 644 l 1,11,-1
 72 644 l 1,12,-1
 72 761 l 1,13,-1
 1070 761 l 1,10,-1
495 292 m 0,14,15
 495 326 495 326 517.5 350.5 c 128,-1,16
 540 375 540 375 580 375 c 256,17,18
 620 375 620 375 643 350.5 c 128,-1,19
 666 326 666 326 666 292 c 0,20,21
 666 210 666 210 580 210 c 0,22,23
 495 210 495 210 495 292 c 0,14,15
EndSplineSet
EndChar

StartChar: oslash
Encoding: 248 248 138
Width: 1141
GlyphClass: 2
Flags: W
AnchorPoint: "Anchor-5" 1141 1289 basechar 0
AnchorPoint: "Anchor-2" 1141 1600 basechar 0
AnchorPoint: "Anchor-0" 524 1289 basechar 0
LayerCount: 2
Fore
SplineSet
573 -20 m 0,0,1
 464 -20 464 -20 373 21 c 1,2,-1
 294 -140 l 1,3,-1
 201 -140 l 1,4,-1
 300 63 l 1,5,6
 89 211 89 211 89 525 c 2,7,-1
 89 557 l 2,8,9
 89 793 89 793 221 947.5 c 128,-1,10
 353 1102 353 1102 571 1102 c 0,11,12
 689 1102 689 1102 786 1054 c 1,13,-1
 864 1214 l 1,14,-1
 957 1214 l 1,15,-1
 857 1010 l 1,16,17
 1055 859 1055 859 1055 557 c 2,18,-1
 1055 525 l 2,19,20
 1055 288 1055 288 924 134 c 128,-1,21
 793 -20 793 -20 573 -20 c 0,0,1
209 525 m 2,22,23
 209 415 209 415 244.5 319.5 c 128,-1,24
 280 224 280 224 350 163 c 1,25,-1
 738 958 l 1,26,27
 664 1000 664 1000 571 1000 c 0,28,29
 396 1000 396 1000 302.5 866 c 128,-1,30
 209 732 209 732 209 557 c 2,31,-1
 209 525 l 2,22,23
935 557 m 2,32,33
 935 660 935 660 902.5 752 c 128,-1,34
 870 844 870 844 806 906 c 1,35,-1
 419 116 l 1,36,37
 489 82 489 82 573 82 c 0,38,39
 748 82 748 82 841.5 214 c 128,-1,40
 935 346 935 346 935 525 c 2,41,-1
 935 557 l 2,32,33
EndSplineSet
Substitution2: "'unic' Unicase lookup 2 subtable" Oslash
Substitution2: "'smcp' Lowercase to Small Capitals lookup 1 subtable" Oslash.smcp
EndChar

StartChar: thorn
Encoding: 254 254 139
Width: 1151
Flags: W
LayerCount: 2
Fore
SplineSet
619 -20 m 0,0,1
 504 -20 504 -20 419 22 c 128,-1,2
 334 64 334 64 279 137 c 1,3,-1
 279 -416 l 1,4,-1
 160 -416 l 1,5,-1
 160 1536 l 1,6,-1
 279 1536 l 1,7,-1
 279 932 l 1,8,9
 334 1012 334 1012 418 1057 c 128,-1,10
 502 1102 502 1102 616 1102 c 0,11,12
 815 1102 815 1102 923 952.5 c 128,-1,13
 1031 803 1031 803 1031 551 c 2,14,-1
 1031 530 l 2,15,16
 1031 288 1031 288 923.5 134 c 128,-1,17
 816 -20 816 -20 619 -20 c 0,0,1
589 998 m 0,18,19
 460 998 460 998 387 935 c 128,-1,20
 314 872 314 872 279 790 c 1,21,-1
 279 271 l 1,22,23
 319 190 319 190 394.5 136 c 128,-1,24
 470 82 470 82 591 82 c 0,25,26
 754 82 754 82 832.5 211.5 c 128,-1,27
 911 341 911 341 911 530 c 2,28,-1
 911 551 l 2,29,30
 911 740 911 740 832.5 869 c 128,-1,31
 754 998 754 998 589 998 c 0,18,19
EndSplineSet
Substitution2: "'unic' Unicase lookup 2 subtable" Thorn
Substitution2: "'smcp' Lowercase to Small Capitals lookup 1 subtable" Thorn.smcp
EndChar

StartChar: dcroat
Encoding: 273 273 140
Width: 1172
GlyphClass: 2
Flags: W
AnchorPoint: "Anchor-8" 847 1308 basechar 0
AnchorPoint: "Anchor-5" 1172 1612 basechar 0
AnchorPoint: "Anchor-3" 1138 -407 basechar 0
AnchorPoint: "Anchor-2" 1138 1600 basechar 0
AnchorPoint: "Anchor-1" 607 0 basechar 0
AnchorPoint: "Anchor-0" 542 1612 basechar 0
LayerCount: 2
Fore
SplineSet
868 0 m 1,0,-1
 862 145 l 1,1,2
 809 68 809 68 725 24 c 128,-1,3
 641 -20 641 -20 524 -20 c 0,4,5
 333 -20 333 -20 221 134 c 128,-1,6
 109 288 109 288 109 530 c 2,7,-1
 109 551 l 2,8,9
 109 803 109 803 221 952.5 c 128,-1,10
 333 1102 333 1102 526 1102 c 0,11,12
 641 1102 641 1102 723.5 1057 c 128,-1,13
 806 1012 806 1012 860 931 c 1,14,-1
 860 1258 l 1,15,-1
 542 1258 l 1,16,-1
 542 1359 l 1,17,-1
 860 1359 l 1,18,-1
 860 1536 l 1,19,-1
 980 1536 l 1,20,-1
 980 1359 l 1,21,-1
 1154 1359 l 1,22,-1
 1154 1258 l 1,23,-1
 980 1258 l 1,24,-1
 980 0 l 1,25,-1
 868 0 l 1,0,-1
229 530 m 2,26,27
 229 341 229 341 306.5 212.5 c 128,-1,28
 384 84 384 84 547 84 c 0,29,30
 669 84 669 84 744.5 139.5 c 128,-1,31
 820 195 820 195 860 279 c 1,32,-1
 860 790 l 1,33,34
 825 872 825 872 752 935 c 128,-1,35
 679 998 679 998 549 998 c 0,36,37
 384 998 384 998 306.5 869 c 128,-1,38
 229 740 229 740 229 551 c 2,39,-1
 229 530 l 2,26,27
EndSplineSet
Substitution2: "'unic' Unicase lookup 2 subtable" Dcroat
Substitution2: "'smcp' Lowercase to Small Capitals lookup 1 subtable" Dcroat.smcp
EndChar

StartChar: Hbar
Encoding: 294 294 141
Width: 1412
GlyphClass: 2
Flags: W
AnchorPoint: "Anchor-5" 1412 1612 basechar 0
AnchorPoint: "Anchor-1" 705 10 basechar 0
AnchorPoint: "Anchor-0" 705 1612 basechar 0
LayerCount: 2
Fore
SplineSet
1116 0 m 1,0,-1
 1116 698 l 1,1,-1
 285 698 l 1,2,-1
 285 0 l 1,3,-1
 161 0 l 1,4,-1
 161 1026 l 1,5,-1
 25 1026 l 1,6,-1
 25 1123 l 1,7,-1
 161 1123 l 1,8,-1
 161 1456 l 1,9,-1
 285 1456 l 1,10,-1
 285 1123 l 1,11,-1
 1116 1123 l 1,12,-1
 1116 1456 l 1,13,-1
 1240 1456 l 1,14,-1
 1240 1123 l 1,15,-1
 1384 1123 l 1,16,-1
 1384 1026 l 1,17,-1
 1240 1026 l 1,18,-1
 1240 0 l 1,19,-1
 1116 0 l 1,0,-1
285 803 m 1,20,-1
 1116 803 l 1,21,-1
 1116 1026 l 1,22,-1
 285 1026 l 1,23,-1
 285 803 l 1,20,-1
EndSplineSet
Substitution2: "'c2sc' Capitals to Small Capitals lookup 0 subtable" Hbar.smcp
Position2: "'cpsp' Capital Spacing lookup 0 subtable" dx=36 dy=0 dh=72 dv=0
EndChar

StartChar: dotlessi
Encoding: 305 305 142
Width: 456
GlyphClass: 2
Flags: W
AnchorPoint: "Anchor-5" 456 1278 basechar 0
AnchorPoint: "Anchor-4" 244 654 basechar 0
AnchorPoint: "Anchor-1" 229 10 basechar 0
AnchorPoint: "Anchor-0" 231 1278 basechar 0
LayerCount: 2
Fore
SplineSet
288 1082 m 1,0,-1
 288 0 l 1,1,-1
 168 0 l 1,2,-1
 168 1082 l 1,3,-1
 288 1082 l 1,0,-1
EndSplineSet
Substitution2: "'smcp' Lowercase to Small Capitals lookup 1 subtable" I.smcp
EndChar

StartChar: kgreenlandic
Encoding: 312 312 143
Width: 1112
GlyphClass: 2
Flags: W
AnchorPoint: "Anchor-5" 1112 1290 basechar 0
AnchorPoint: "Anchor-1" 574 10 basechar 0
AnchorPoint: "Anchor-0" 574 1290 basechar 0
LayerCount: 2
Fore
SplineSet
904 0 m 1,0,-1
 423 496 l 1,1,-1
 283 496 l 1,2,-1
 283 0 l 1,3,-1
 163 0 l 1,4,-1
 163 1082 l 1,5,-1
 283 1082 l 1,6,-1
 283 603 l 1,7,-1
 418 603 l 1,8,-1
 861 1082 l 1,9,-1
 1007 1082 l 1,10,-1
 528 555 l 1,11,-1
 1057 0 l 1,12,-1
 904 0 l 1,0,-1
EndSplineSet
EndChar

StartChar: Lslash
Encoding: 321 321 144
Width: 1082
GlyphClass: 2
Flags: W
AnchorPoint: "Anchor-5" 1082 1572 basechar 0
AnchorPoint: "Anchor-1" 614 10 basechar 0
AnchorPoint: "Anchor-0" 239 1572 basechar 0
LayerCount: 2
Fore
SplineSet
1023 104 m 1,0,-1
 1023 0 l 1,1,-1
 180 0 l 1,2,-1
 180 687 l 1,3,-1
 22 637 l 1,4,-1
 22 728 l 1,5,-1
 180 778 l 1,6,-1
 180 1456 l 1,7,-1
 304 1456 l 1,8,-1
 304 818 l 1,9,-1
 611 915 l 1,10,-1
 611 824 l 1,11,-1
 304 727 l 1,12,-1
 304 104 l 1,13,-1
 1023 104 l 1,0,-1
EndSplineSet
Substitution2: "'c2sc' Capitals to Small Capitals lookup 0 subtable" Lslash.smcp
Position2: "'cpsp' Capital Spacing lookup 0 subtable" dx=36 dy=0 dh=72 dv=0
EndChar

StartChar: lslash
Encoding: 322 322 145
Width: 529
GlyphClass: 2
Flags: W
AnchorPoint: "Anchor-5" 529 1685 basechar 0
AnchorPoint: "Anchor-1" 269 10 basechar 0
AnchorPoint: "Anchor-0" 269 1685 basechar 0
LayerCount: 2
Fore
SplineSet
505 840 m 1,0,-1
 325 770 l 1,1,-1
 325 0 l 1,2,-1
 205 0 l 1,3,-1
 205 723 l 1,4,-1
 26 653 l 1,5,-1
 26 743 l 1,6,-1
 205 813 l 1,7,-1
 205 1536 l 1,8,-1
 325 1536 l 1,9,-1
 325 860 l 1,10,-1
 505 930 l 1,11,-1
 505 840 l 1,0,-1
EndSplineSet
Substitution2: "'smcp' Lowercase to Small Capitals lookup 1 subtable" Lslash.smcp
EndChar

StartChar: Eng
Encoding: 330 330 146
Width: 1435
GlyphClass: 2
Flags: W
AnchorPoint: "Anchor-5" 1435 1607 basechar 0
AnchorPoint: "Anchor-1" 723 10 basechar 0
AnchorPoint: "Anchor-0" 726 1607 basechar 0
LayerCount: 2
Fore
SplineSet
181 0 m 1,0,-1
 181 1456 l 1,1,-1
 304 1456 l 1,2,-1
 1134 206 l 1,3,-1
 1134 1456 l 1,4,-1
 1258 1456 l 1,5,-1
 1258 -87 l 2,6,7
 1258 -256 1258 -256 1176.5 -346.5 c 128,-1,8
 1095 -437 1095 -437 952 -437 c 0,9,10
 896 -437 896 -437 838 -418 c 1,11,-1
 852 -316 l 1,12,13
 894 -332 894 -332 950 -332 c 0,14,15
 1134 -332 1134 -332 1134 -87 c 2,16,-1
 1134 0 l 1,17,-1
 304 1252 l 1,18,-1
 304 0 l 1,19,-1
 181 0 l 1,0,-1
EndSplineSet
Substitution2: "'c2sc' Capitals to Small Capitals lookup 0 subtable" Eng.smcp
Position2: "'cpsp' Capital Spacing lookup 0 subtable" dx=36 dy=0 dh=72 dv=0
EndChar

StartChar: eng
Encoding: 331 331 147
Width: 1141
GlyphClass: 2
Flags: W
AnchorPoint: "Anchor-7" 770 -306 basechar 0
AnchorPoint: "Anchor-5" 1141 1290 basechar 0
AnchorPoint: "Anchor-1" 570 10 basechar 0
AnchorPoint: "Anchor-0" 575 1290 basechar 0
LayerCount: 2
Fore
SplineSet
981 -89 m 2,0,1
 981 -258 981 -258 900.5 -347.5 c 128,-1,2
 820 -437 820 -437 678 -437 c 0,3,4
 615 -437 615 -437 554 -418 c 1,5,-1
 567 -315 l 1,6,7
 613 -331 613 -331 678 -331 c 0,8,9
 862 -331 862 -331 862 -89 c 2,10,-1
 862 658 l 2,11,12
 862 856 862 856 788 927 c 128,-1,13
 714 998 714 998 594 998 c 0,14,15
 464 998 464 998 388 934.5 c 128,-1,16
 312 871 312 871 278 776 c 1,17,-1
 278 0 l 1,18,-1
 158 0 l 1,19,-1
 158 1082 l 1,20,-1
 265 1082 l 1,21,-1
 275 900 l 1,22,23
 327 994 327 994 414 1048 c 128,-1,24
 501 1102 501 1102 622 1102 c 0,25,26
 793 1102 793 1102 887 998 c 128,-1,27
 981 894 981 894 981 659 c 2,28,-1
 981 -89 l 2,0,1
EndSplineSet
Substitution2: "'unic' Unicase lookup 2 subtable" Eng
Substitution2: "'smcp' Lowercase to Small Capitals lookup 1 subtable" Eng.smcp
EndChar

StartChar: OE
Encoding: 338 338 148
Width: 1913
GlyphClass: 2
Flags: W
AnchorPoint: "Anchor-5" 1913 1618 basechar 0
AnchorPoint: "Anchor-3" 1913 -407 basechar 0
AnchorPoint: "Anchor-2" 1913 1600 basechar 0
AnchorPoint: "Anchor-1" 955 -1 basechar 0
AnchorPoint: "Anchor-0" 955 1618 basechar 0
LayerCount: 2
Fore
SplineSet
1801 104 m 1,0,-1
 1801 0 l 1,1,-1
 957 0 l 1,2,3
 886 -8 886 -8 807 -14.5 c 128,-1,4
 728 -21 728 -21 646 -21 c 0,5,6
 408 -21 408 -21 258 145 c 128,-1,7
 108 311 108 311 108 576 c 2,8,-1
 108 880 l 2,9,10
 108 1145 108 1145 257 1310.5 c 128,-1,11
 406 1476 406 1476 644 1476 c 0,12,13
 726 1476 726 1476 806 1470 c 128,-1,14
 886 1464 886 1464 957 1456 c 1,15,-1
 1796 1456 l 1,16,-1
 1796 1351 l 1,17,-1
 1019 1351 l 1,18,-1
 1019 803 l 1,19,-1
 1699 803 l 1,20,-1
 1699 698 l 1,21,-1
 1019 698 l 1,22,-1
 1019 104 l 1,23,-1
 1801 104 l 1,0,-1
228 576 m 2,24,25
 228 348 228 348 342 214.5 c 128,-1,26
 456 81 456 81 646 81 c 0,27,28
 778 81 778 81 896 95 c 1,29,-1
 896 1361 l 1,30,31
 783 1375 783 1375 644 1375 c 0,32,33
 454 1375 454 1375 341 1243.5 c 128,-1,34
 228 1112 228 1112 228 882 c 2,35,-1
 228 576 l 2,24,25
EndSplineSet
Substitution2: "'c2sc' Capitals to Small Capitals lookup 0 subtable" OE.smcp
Position2: "'cpsp' Capital Spacing lookup 0 subtable" dx=36 dy=0 dh=72 dv=0
EndChar

StartChar: oe
Encoding: 339 339 149
Width: 1892
GlyphClass: 2
Flags: W
AnchorPoint: "Anchor-5" 1892 1290 basechar 0
AnchorPoint: "Anchor-3" 1892 -407 basechar 0
AnchorPoint: "Anchor-2" 1892 1600 basechar 0
AnchorPoint: "Anchor-1" 960 -6 basechar 0
AnchorPoint: "Anchor-0" 960 1290 basechar 0
LayerCount: 2
Fore
SplineSet
1788 118 m 1,0,1
 1732 60 1732 60 1640.5 20 c 128,-1,2
 1549 -20 1549 -20 1412 -20 c 0,3,4
 1273 -20 1273 -20 1163.5 53 c 128,-1,5
 1054 126 1054 126 996 249 c 1,6,7
 939 126 939 126 830.5 53 c 128,-1,8
 722 -20 722 -20 574 -20 c 0,9,10
 354 -20 354 -20 224.5 134 c 128,-1,11
 95 288 95 288 95 525 c 2,12,-1
 95 557 l 2,13,14
 95 793 95 793 224.5 947.5 c 128,-1,15
 354 1102 354 1102 572 1102 c 0,16,17
 721 1102 721 1102 830.5 1028.5 c 128,-1,18
 940 955 940 955 997 830 c 1,19,20
 1055 956 1055 956 1162 1029.5 c 128,-1,21
 1269 1103 1269 1103 1396 1102 c 0,22,23
 1598 1102 1598 1102 1711 975.5 c 128,-1,24
 1824 849 1824 849 1824 640 c 2,25,-1
 1824 538 l 1,26,-1
 1059 538 l 1,27,-1
 1059 510 l 2,28,29
 1059 332 1059 332 1155.5 206.5 c 128,-1,30
 1252 81 1252 81 1412 81 c 0,31,32
 1529 81 1529 81 1606.5 114 c 128,-1,33
 1684 147 1684 147 1737 201 c 1,34,-1
 1788 118 l 1,0,1
1396 1000 m 0,35,36
 1262 1000 1262 1000 1172.5 897 c 128,-1,37
 1083 794 1083 794 1064 640 c 1,38,-1
 1704 640 l 1,39,-1
 1704 669 l 2,40,41
 1704 806 1704 806 1624 903 c 128,-1,42
 1544 1000 1544 1000 1396 1000 c 0,35,36
214 557 m 2,43,-1
 214 525 l 2,44,45
 214 346 214 346 305.5 213.5 c 128,-1,46
 397 81 397 81 574 81 c 0,47,48
 750 81 750 81 841 213.5 c 128,-1,49
 932 346 932 346 932 525 c 2,50,-1
 932 557 l 2,51,52
 932 732 932 732 840.5 866 c 128,-1,53
 749 1000 749 1000 572 1000 c 0,54,55
 396 1000 396 1000 305 866 c 128,-1,56
 214 732 214 732 214 557 c 2,43,-1
EndSplineSet
Substitution2: "'unic' Unicase lookup 2 subtable" OE
Substitution2: "'smcp' Lowercase to Small Capitals lookup 1 subtable" OE.smcp
EndChar

StartChar: longs
Encoding: 383 383 150
Width: 465
GlyphClass: 2
Flags: W
AnchorPoint: "Anchor-5" 465 1716 basechar 0
AnchorPoint: "Anchor-1" 223 10 basechar 0
AnchorPoint: "Anchor-0" 403 1716 basechar 0
LayerCount: 2
Fore
SplineSet
287 0 m 1,0,-1
 167 0 l 1,1,-1
 167 1217 l 2,2,3
 167 1381 167 1381 250 1469 c 128,-1,4
 333 1557 333 1557 478 1557 c 0,5,6
 549 1557 549 1557 613 1538 c 1,7,-1
 598 1442 l 1,8,9
 575 1448 575 1448 551.5 1451.5 c 128,-1,10
 528 1455 528 1455 493 1455 c 0,11,12
 395 1455 395 1455 341 1392.5 c 128,-1,13
 287 1330 287 1330 287 1217 c 2,14,-1
 287 0 l 1,0,-1
EndSplineSet
EndChar

StartChar: Bhook
Encoding: 385 385 152
Width: 1441
Flags: W
LayerCount: 2
Fore
SplineSet
25 1172 m 0,0,1
 25 1456 25 1456 371 1456 c 1,2,-1
 371 1456 l 1,3,-1
 801 1456 l 2,4,5
 1022 1456 1022 1456 1149 1365 c 128,-1,6
 1276 1274 1276 1274 1276 1076 c 0,7,8
 1276 964 1276 964 1215.5 880 c 128,-1,9
 1155 796 1155 796 1046 760 c 1,10,11
 1175 732 1175 732 1252 634.5 c 128,-1,12
 1329 537 1329 537 1329 410 c 0,13,14
 1329 211 1329 211 1200.5 105.5 c 128,-1,15
 1072 0 1072 0 863 0 c 2,16,-1
 371 0 l 1,17,-1
 371 1351 l 1,18,19
 130 1350 130 1350 130 1149 c 0,20,21
 130 1107 130 1107 144 1065 c 1,22,-1
 43 1058 l 1,23,24
 25 1117 25 1117 25 1172 c 0,0,1
494 1351 m 1,25,-1
 494 804 l 1,26,-1
 813 804 l 2,27,28
 974 804 974 804 1063 873.5 c 128,-1,29
 1152 943 1152 943 1152 1078 c 0,30,31
 1152 1351 1152 1351 801 1351 c 2,32,-1
 494 1351 l 1,25,-1
1205 408 m 0,33,34
 1205 532 1205 532 1123.5 616.5 c 128,-1,35
 1042 701 1042 701 872 701 c 2,36,-1
 494 701 l 1,37,-1
 494 104 l 1,38,-1
 863 104 l 2,39,40
 1024 104 1024 104 1114.5 185 c 128,-1,41
 1205 266 1205 266 1205 408 c 0,33,34
EndSplineSet
EndChar

StartChar: btopbar
Encoding: 387 387 154
Width: 1135
Flags: W
LayerCount: 2
Fore
SplineSet
155 0 m 1,0,-1
 155 1536 l 1,1,-1
 869 1536 l 1,2,-1
 869 1434 l 1,3,-1
 275 1434 l 1,4,-1
 275 926 l 1,5,6
 329 1009 329 1009 412.5 1055.5 c 128,-1,7
 496 1102 496 1102 613 1102 c 0,8,9
 811 1102 811 1102 919.5 952.5 c 128,-1,10
 1028 803 1028 803 1028 551 c 2,11,-1
 1028 530 l 2,12,13
 1028 288 1028 288 919.5 134 c 128,-1,14
 811 -20 811 -20 615 -20 c 0,15,16
 497 -20 497 -20 411.5 25.5 c 128,-1,17
 326 71 326 71 273 149 c 1,18,-1
 267 0 l 1,19,-1
 155 0 l 1,0,-1
590 998 m 0,20,21
 455 998 455 998 381.5 930.5 c 128,-1,22
 308 863 308 863 275 777 c 1,23,-1
 275 288 l 1,24,25
 312 202 312 202 390 143 c 128,-1,26
 468 84 468 84 592 84 c 0,27,28
 756 84 756 84 831.5 212.5 c 128,-1,29
 907 341 907 341 907 530 c 2,30,-1
 907 551 l 2,31,32
 907 740 907 740 832.5 869 c 128,-1,33
 758 998 758 998 590 998 c 0,20,21
EndSplineSet
EndChar

StartChar: Tonesix
Encoding: 388 388 155
Width: 1288
Flags: W
LayerCount: 2
Fore
SplineSet
1196 414 m 0,0,1
 1196 232 1196 232 1072.5 116 c 128,-1,2
 949 0 949 0 713 0 c 2,3,-1
 230 0 l 1,4,-1
 230 967 l 1,5,-1
 94 1182 l 1,6,-1
 94 1240 l 1,7,-1
 230 1456 l 1,8,-1
 353 1456 l 1,9,-1
 353 824 l 1,10,-1
 713 824 l 2,11,12
 949 824 949 824 1072.5 711 c 128,-1,13
 1196 598 1196 598 1196 414 c 0,0,1
353 104 m 1,14,-1
 713 104 l 2,15,16
 904 104 904 104 988 198 c 128,-1,17
 1072 292 1072 292 1072 416 c 0,18,19
 1072 537 1072 537 988 628.5 c 128,-1,20
 904 720 904 720 713 720 c 2,21,-1
 353 720 l 1,22,-1
 353 104 l 1,14,-1
EndSplineSet
EndChar

StartChar: tonesix
Encoding: 389 389 156
Width: 1187
Flags: W
LayerCount: 2
Fore
SplineSet
1092 530 m 2,0,1
 1092 288 1092 288 983 134 c 128,-1,2
 874 -20 874 -20 678 -20 c 0,3,4
 560 -20 560 -20 475 25.5 c 128,-1,5
 390 71 390 71 337 149 c 1,6,-1
 331 0 l 1,7,-1
 219 0 l 1,8,-1
 219 1047 l 1,9,-1
 84 1262 l 1,10,-1
 84 1320 l 1,11,-1
 219 1536 l 1,12,-1
 339 1536 l 1,13,-1
 339 926 l 1,14,15
 393 1009 393 1009 476.5 1055.5 c 128,-1,16
 560 1102 560 1102 676 1102 c 0,17,18
 875 1102 875 1102 983.5 952.5 c 128,-1,19
 1092 803 1092 803 1092 551 c 2,20,-1
 1092 530 l 2,0,1
654 998 m 0,21,22
 519 998 519 998 446 930.5 c 128,-1,23
 373 863 373 863 339 778 c 1,24,-1
 339 287 l 1,25,26
 377 201 377 201 454.5 142.5 c 128,-1,27
 532 84 532 84 656 84 c 0,28,29
 820 84 820 84 895.5 212.5 c 128,-1,30
 971 341 971 341 971 530 c 2,31,-1
 971 551 l 2,32,33
 971 740 971 740 896.5 869 c 128,-1,34
 822 998 822 998 654 998 c 0,21,22
EndSplineSet
EndChar

StartChar: Oopen
Encoding: 390 390 157
Width: 1330
Flags: W
LayerCount: 2
Fore
SplineSet
115 455 m 1,0,-1
 238 455 l 1,1,2
 260 279 260 279 357 182 c 128,-1,3
 454 85 454 85 642 85 c 0,4,5
 844 85 844 85 959.5 236.5 c 128,-1,6
 1075 388 1075 388 1075 635 c 2,7,-1
 1075 819 l 2,8,9
 1075 1060 1075 1060 964.5 1216 c 128,-1,10
 854 1372 854 1372 651 1372 c 0,11,12
 458 1372 458 1372 360 1279 c 128,-1,13
 262 1186 262 1186 238 1002 c 1,14,-1
 115 1002 l 1,15,16
 138 1224 138 1224 274 1350 c 128,-1,17
 410 1476 410 1476 651 1476 c 0,18,19
 899 1476 899 1476 1048.5 1295 c 128,-1,20
 1198 1114 1198 1114 1198 819 c 2,21,-1
 1198 637 l 2,22,23
 1198 342 1198 342 1047.5 161 c 128,-1,24
 897 -20 897 -20 642 -20 c 0,25,26
 409 -20 409 -20 273.5 105.5 c 128,-1,27
 138 231 138 231 115 455 c 1,0,-1
EndSplineSet
EndChar

StartChar: Chook
Encoding: 391 391 158
Width: 1426
Flags: W
LayerCount: 2
Fore
SplineSet
1399 1418 m 0,0,1
 1215 1418 1215 1418 1215 1177 c 2,2,-1
 1215 1001 l 1,3,-1
 1092 1001 l 1,4,5
 1070 1177 1070 1177 973 1274 c 128,-1,6
 876 1371 876 1371 688 1371 c 0,7,8
 486 1371 486 1371 370.5 1219.5 c 128,-1,9
 255 1068 255 1068 255 821 c 2,10,-1
 255 637 l 2,11,12
 255 396 255 396 366 240 c 128,-1,13
 477 84 477 84 680 84 c 0,14,15
 873 84 873 84 971 177 c 128,-1,16
 1069 270 1069 270 1092 454 c 1,17,-1
 1215 454 l 1,18,19
 1192 232 1192 232 1056 106 c 128,-1,20
 920 -20 920 -20 680 -20 c 0,21,22
 431 -20 431 -20 281.5 161 c 128,-1,23
 132 342 132 342 132 637 c 2,24,-1
 132 819 l 2,25,26
 132 1114 132 1114 282.5 1295 c 128,-1,27
 433 1476 433 1476 688 1476 c 0,28,29
 979 1476 979 1476 1117 1283 c 1,30,31
 1153 1525 1153 1525 1376 1525 c 0,32,33
 1432 1525 1432 1525 1489 1507 c 1,34,-1
 1482 1404 l 1,35,36
 1442 1418 1442 1418 1399 1418 c 0,0,1
EndSplineSet
EndChar

StartChar: chook
Encoding: 392 392 159
Width: 1262
Flags: W
LayerCount: 2
Fore
SplineSet
1145 1049 m 0,0,1
 972 1049 972 1049 972 818 c 2,2,-1
 972 718 l 1,3,-1
 858 718 l 1,4,5
 850 849 850 849 764 924.5 c 128,-1,6
 678 1000 678 1000 555 1000 c 0,7,8
 370 1000 370 1000 292 867 c 128,-1,9
 214 734 214 734 214 562 c 2,10,-1
 214 520 l 2,11,12
 214 347 214 347 292 214.5 c 128,-1,13
 370 82 370 82 557 82 c 0,14,15
 670 82 670 82 759.5 146.5 c 128,-1,16
 849 211 849 211 858 335 c 1,17,-1
 972 335 l 1,18,19
 964 180 964 180 843 80 c 128,-1,20
 722 -20 722 -20 557 -20 c 0,21,22
 329 -20 329 -20 212 136 c 128,-1,23
 95 292 95 292 95 520 c 2,24,-1
 95 562 l 2,25,26
 95 790 95 790 212 946 c 128,-1,27
 329 1102 329 1102 555 1102 c 0,28,29
 776 1102 776 1102 893 948 c 1,30,31
 934 1143 934 1143 1125 1143 c 0,32,33
 1177 1143 1177 1143 1231 1125 c 1,34,-1
 1224 1036 l 1,35,36
 1189 1049 1189 1049 1145 1049 c 0,0,1
EndSplineSet
EndChar

StartChar: Dhook
Encoding: 394 394 161
Width: 1532
Flags: W
LayerCount: 2
Fore
SplineSet
25 1172 m 0,0,1
 25 1456 25 1456 371 1456 c 1,2,-1
 371 1456 l 1,3,-1
 778 1456 l 2,4,5
 1050 1456 1050 1456 1224.5 1275 c 128,-1,6
 1399 1094 1399 1094 1399 795 c 2,7,-1
 1399 661 l 2,8,9
 1399 361 1399 361 1224.5 180.5 c 128,-1,10
 1050 0 1050 0 769 0 c 2,11,-1
 371 0 l 1,12,-1
 371 1351 l 1,13,14
 130 1350 130 1350 130 1149 c 0,15,16
 130 1107 130 1107 144 1065 c 1,17,-1
 43 1058 l 1,18,19
 25 1117 25 1117 25 1172 c 0,0,1
778 1351 m 2,20,-1
 494 1351 l 1,21,-1
 494 104 l 1,22,-1
 769 104 l 2,23,24
 1003 104 1003 104 1140 258.5 c 128,-1,25
 1277 413 1277 413 1277 661 c 2,26,-1
 1277 797 l 2,27,28
 1277 1049 1277 1049 1140 1200 c 128,-1,29
 1003 1351 1003 1351 778 1351 c 2,20,-1
EndSplineSet
EndChar

StartChar: Dtopbar
Encoding: 395 395 162
Width: 1241
Flags: W
LayerCount: 2
Fore
SplineSet
1059 0 m 1,0,-1
 576 0 l 2,1,2
 340 0 340 0 216.5 116 c 128,-1,3
 93 232 93 232 93 414 c 0,4,5
 93 598 93 598 216 711 c 128,-1,6
 339 824 339 824 576 824 c 2,7,-1
 936 824 l 1,8,-1
 936 1351 l 1,9,-1
 181 1351 l 1,10,-1
 181 1456 l 1,11,-1
 1059 1456 l 1,12,-1
 1059 0 l 1,0,-1
936 104 m 1,13,-1
 936 720 l 1,14,-1
 576 720 l 2,15,16
 385 720 385 720 301 628.5 c 128,-1,17
 217 537 217 537 217 416 c 0,18,19
 217 292 217 292 301 198 c 128,-1,20
 385 104 385 104 576 104 c 2,21,-1
 936 104 l 1,13,-1
EndSplineSet
EndChar

StartChar: dtopbar
Encoding: 396 396 163
Width: 1138
Flags: W
LayerCount: 2
Fore
SplineSet
267 1434 m 1,0,-1
 267 1536 l 1,1,-1
 980 1536 l 1,2,-1
 980 0 l 1,3,-1
 868 0 l 1,4,-1
 862 145 l 1,5,6
 809 68 809 68 725 24 c 128,-1,7
 641 -20 641 -20 524 -20 c 0,8,9
 333 -20 333 -20 221 134 c 128,-1,10
 109 288 109 288 109 530 c 2,11,-1
 109 551 l 2,12,13
 109 803 109 803 221 952.5 c 128,-1,14
 333 1102 333 1102 526 1102 c 0,15,16
 641 1102 641 1102 723.5 1057 c 128,-1,17
 806 1012 806 1012 860 931 c 1,18,-1
 860 1434 l 1,19,-1
 267 1434 l 1,0,-1
229 530 m 2,20,21
 229 341 229 341 306.5 212.5 c 128,-1,22
 384 84 384 84 547 84 c 0,23,24
 669 84 669 84 744.5 139.5 c 128,-1,25
 820 195 820 195 860 279 c 1,26,-1
 860 790 l 1,27,28
 825 872 825 872 752 935 c 128,-1,29
 679 998 679 998 549 998 c 0,30,31
 384 998 384 998 306.5 869 c 128,-1,32
 229 740 229 740 229 551 c 2,33,-1
 229 530 l 2,20,21
EndSplineSet
EndChar

StartChar: deltaturn
Encoding: 397 397 164
Width: 1141
Flags: W
LayerCount: 2
Fore
SplineSet
888 -375 m 1,0,-1
 192 -375 l 1,1,-1
 192 -276 l 1,2,-1
 722 -276 l 1,3,4
 664 -228 664 -228 578 -168 c 128,-1,5
 492 -108 492 -108 395 -19 c 0,6,7
 258 106 258 106 175 245.5 c 128,-1,8
 92 385 92 385 92 544 c 2,9,-1
 92 576 l 2,10,11
 92 804 92 804 221 953 c 128,-1,12
 350 1102 350 1102 569 1102 c 0,13,14
 789 1102 789 1102 918.5 953 c 128,-1,15
 1048 804 1048 804 1048 576 c 2,16,-1
 1048 544 l 2,17,18
 1048 342 1048 342 914.5 203 c 128,-1,19
 781 64 781 64 559 52 c 0,20,21
 546 52 546 52 517 52.5 c 128,-1,22
 488 53 488 53 460 61 c 1,23,24
 564 -40 564 -40 693 -132.5 c 128,-1,25
 822 -225 822 -225 888 -292 c 1,26,-1
 888 -375 l 1,0,-1
929 544 m 2,27,-1
 929 576 l 2,28,29
 929 746 929 746 837.5 873 c 128,-1,30
 746 1000 746 1000 569 1000 c 0,31,32
 394 1000 394 1000 302.5 873 c 128,-1,33
 211 746 211 746 211 576 c 2,34,-1
 211 544 l 2,35,36
 211 399 211 399 272.5 298 c 128,-1,37
 334 197 334 197 389 156 c 1,38,39
 461 138 461 138 537 138 c 0,40,41
 728 138 728 138 828.5 261 c 128,-1,42
 929 384 929 384 929 544 c 2,27,-1
EndSplineSet
EndChar

StartChar: Eturn
Encoding: 398 398 165
Width: 1165
Flags: W
LayerCount: 2
Fore
SplineSet
75 1352 m 1,0,-1
 75 1456 l 1,1,-1
 980 1456 l 1,2,-1
 980 0 l 1,3,-1
 80 0 l 1,4,-1
 80 105 l 1,5,-1
 857 105 l 1,6,-1
 857 682 l 1,7,-1
 177 682 l 1,8,-1
 177 786 l 1,9,-1
 857 786 l 1,10,-1
 857 1352 l 1,11,-1
 75 1352 l 1,0,-1
EndSplineSet
EndChar

StartChar: Schwa
Encoding: 399 399 166
Width: 1434
GlyphClass: 2
Flags: W
AnchorPoint: "Anchor-5" 1434 1618 basechar 0
AnchorPoint: "Anchor-1" 719 -1 basechar 0
AnchorPoint: "Anchor-0" 702 1618 basechar 0
LayerCount: 2
Fore
SplineSet
1313 672 m 2,0,1
 1313 467 1313 467 1235 311.5 c 128,-1,2
 1157 156 1157 156 1024.5 68 c 128,-1,3
 892 -20 892 -20 726 -20 c 0,4,5
 442 -20 442 -20 283.5 151 c 128,-1,6
 125 322 125 322 125 615 c 2,7,-1
 125 738 l 1,8,-1
 1189 738 l 1,9,-1
 1189 805 l 2,10,11
 1189 1040 1189 1040 1070.5 1205 c 128,-1,12
 952 1370 952 1370 684 1370 c 0,13,14
 546 1370 546 1370 445 1334.5 c 128,-1,15
 344 1299 344 1299 274 1250 c 1,16,-1
 236 1343 l 1,17,18
 290 1386 290 1386 395 1431 c 128,-1,19
 500 1476 500 1476 684 1476 c 0,20,21
 988 1476 988 1476 1150.5 1288 c 128,-1,22
 1313 1100 1313 1100 1313 805 c 2,23,-1
 1313 672 l 2,0,1
726 85 m 0,24,25
 938 85 938 85 1059 245.5 c 128,-1,26
 1180 406 1180 406 1188 638 c 1,27,-1
 248 638 l 1,28,-1
 248 584 l 2,29,30
 248 376 248 376 364.5 230.5 c 128,-1,31
 481 85 481 85 726 85 c 0,24,25
EndSplineSet
EndChar

StartChar: Epsilon1
Encoding: 400 400 167
Width: 1278
GlyphClass: 2
Flags: W
AnchorPoint: "Anchor-5" 1278 1618 basechar 0
AnchorPoint: "Anchor-1" 616 -1 basechar 0
AnchorPoint: "Anchor-0" 616 1618 basechar 0
LayerCount: 2
Fore
SplineSet
620 796 m 2,0,-1
 794 796 l 1,1,-1
 794 690 l 1,2,-1
 620 690 l 2,3,4
 424 690 424 690 322 620 c 128,-1,5
 220 550 220 550 220 392 c 0,6,7
 220 243 220 243 327 163 c 128,-1,8
 434 83 434 83 624 83 c 0,9,10
 797 83 797 83 902.5 174.5 c 128,-1,11
 1008 266 1008 266 1008 404 c 1,12,-1
 1132 404 l 1,13,14
 1132 256 1132 256 1056.5 162.5 c 128,-1,15
 981 69 981 69 864 24 c 128,-1,16
 747 -21 747 -21 624 -21 c 0,17,18
 403 -21 403 -21 250 79 c 128,-1,19
 97 179 97 179 97 396 c 0,20,21
 97 667 97 667 376 745 c 1,22,23
 119 833 119 833 119 1073 c 0,24,25
 119 1271 119 1271 257 1373.5 c 128,-1,26
 395 1476 395 1476 624 1476 c 0,27,28
 821 1476 821 1476 966 1368.5 c 128,-1,29
 1111 1261 1111 1261 1111 1075 c 1,30,-1
 987 1075 l 1,31,32
 987 1211 987 1211 881 1291.5 c 128,-1,33
 775 1372 775 1372 624 1372 c 0,34,35
 425 1372 425 1372 334 1288 c 128,-1,36
 243 1204 243 1204 243 1077 c 256,37,38
 243 950 243 950 330.5 873 c 128,-1,39
 418 796 418 796 620 796 c 2,0,-1
EndSplineSet
EndChar

StartChar: Fhook
Encoding: 401 401 168
Width: 1183
Flags: W
LayerCount: 2
Fore
SplineSet
1117 1351 m 1,0,-1
 339 1351 l 1,1,-1
 339 786 l 1,2,-1
 1017 786 l 1,3,-1
 1017 680 l 1,4,-1
 339 680 l 1,5,-1
 339 -89 l 2,6,7
 339 -258 339 -258 257.5 -347.5 c 128,-1,8
 176 -437 176 -437 33 -437 c 0,9,10
 -22 -437 -22 -437 -79 -418 c 1,11,-1
 -65 -314 l 1,12,13
 -48 -319 -48 -319 -20 -324 c 128,-1,14
 8 -329 8 -329 33 -329 c 0,15,16
 215 -329 215 -329 215 -89 c 2,17,-1
 215 1456 l 1,18,-1
 1117 1456 l 1,19,-1
 1117 1351 l 1,0,-1
EndSplineSet
EndChar

StartChar: florin
Encoding: 402 402 169
Width: 671
Flags: W
LayerCount: 2
Fore
SplineSet
601 1082 m 1,0,-1
 601 984 l 1,1,-1
 356 984 l 1,2,-1
 356 -89 l 2,3,4
 356 -258 356 -258 276 -347.5 c 128,-1,5
 196 -437 196 -437 53 -437 c 0,6,7
 -3 -437 -3 -437 -59 -418 c 1,8,-1
 -46 -320 l 1,9,10
 -30 -326 -30 -326 1 -330.5 c 128,-1,11
 32 -335 32 -335 53 -335 c 0,12,13
 236 -335 236 -335 236 -89 c 2,14,-1
 236 984 l 1,15,-1
 57 984 l 1,16,-1
 57 1082 l 1,17,-1
 236 1082 l 1,18,-1
 236 1217 l 2,19,20
 236 1381 236 1381 319 1469 c 128,-1,21
 402 1557 402 1557 547 1557 c 0,22,23
 616 1557 616 1557 682 1538 c 1,24,-1
 667 1440 l 1,25,26
 617 1453 617 1453 559 1453 c 0,27,28
 356 1453 356 1453 356 1217 c 2,29,-1
 356 1082 l 1,30,-1
 601 1082 l 1,0,-1
EndSplineSet
EndChar

StartChar: Ghook
Encoding: 403 403 170
Width: 1444
Flags: W
LayerCount: 2
Fore
SplineSet
1235 1177 m 2,0,-1
 1235 1046 l 1,1,-1
 1111 1046 l 1,2,3
 1089 1176 1089 1176 998 1273.5 c 128,-1,4
 907 1371 907 1371 710 1371 c 0,5,6
 497 1371 497 1371 383 1220.5 c 128,-1,7
 269 1070 269 1070 269 824 c 2,8,-1
 269 645 l 2,9,10
 269 391 269 391 395.5 237.5 c 128,-1,11
 522 84 522 84 730 84 c 0,12,13
 896 84 896 84 989 128.5 c 128,-1,14
 1082 173 1082 173 1113 211 c 1,15,-1
 1113 587 l 1,16,-1
 722 587 l 1,17,-1
 722 692 l 1,18,-1
 1235 692 l 1,19,-1
 1235 174 l 1,20,21
 1197 119 1197 119 1077.5 49.5 c 128,-1,22
 958 -20 958 -20 729 -20 c 0,23,24
 472 -20 472 -20 308.5 160 c 128,-1,25
 145 340 145 340 145 645 c 2,26,-1
 145 822 l 2,27,28
 145 1122 145 1122 296.5 1299 c 128,-1,29
 448 1476 448 1476 710 1476 c 0,30,31
 862 1476 862 1476 969 1425.5 c 128,-1,32
 1076 1375 1076 1375 1140 1289 c 1,33,34
 1177 1525 1177 1525 1395 1525 c 0,35,36
 1452 1525 1452 1525 1509 1507 c 1,37,-1
 1502 1407 l 1,38,39
 1460 1421 1460 1421 1419 1421 c 0,40,41
 1235 1421 1235 1421 1235 1177 c 2,0,-1
EndSplineSet
EndChar

StartChar: Gamma1
Encoding: 404 404 171
Width: 1255
Flags: W
LayerCount: 2
Fore
SplineSet
822 -185 m 0,0,1
 822 -280 822 -280 769.5 -331 c 128,-1,2
 717 -382 717 -382 627 -382 c 0,3,4
 434 -382 434 -382 434 -185 c 0,5,6
 434 -118 434 -118 469 -35 c 128,-1,7
 504 48 504 48 560 184 c 1,8,-1
 568 202 l 1,9,-1
 27 1456 l 1,10,-1
 164 1456 l 1,11,-1
 625 340 l 1,12,-1
 1091 1456 l 1,13,-1
 1227 1456 l 1,14,-1
 685 197 l 1,15,-1
 690 184 l 2,16,17
 746 48 746 48 784 -35 c 128,-1,18
 822 -118 822 -118 822 -185 c 0,0,1
551 -185 m 0,19,20
 551 -278 551 -278 627 -278 c 0,21,22
 702 -278 702 -278 702 -185 c 0,23,24
 702 -110 702 -110 627 64 c 1,25,26
 551 -113 551 -113 551 -185 c 0,19,20
EndSplineSet
EndChar

StartChar: hv
Encoding: 405 405 172
Width: 1745
Flags: W
LayerCount: 2
Fore
SplineSet
628 1102 m 0,0,1
 827 1102 827 1102 900 988 c 128,-1,2
 973 874 973 874 973 698 c 2,3,-1
 973 453 l 2,4,5
 973 247 973 247 1046.5 165.5 c 128,-1,6
 1120 84 1120 84 1223 84 c 256,7,8
 1326 84 1326 84 1399 165.5 c 128,-1,9
 1472 247 1472 247 1472 453 c 2,10,-1
 1472 1082 l 1,11,-1
 1592 1082 l 1,12,-1
 1592 455 l 2,13,14
 1592 202 1592 202 1492.5 90.5 c 128,-1,15
 1393 -21 1393 -21 1223 -21 c 0,16,17
 1052 -21 1052 -21 952.5 90.5 c 128,-1,18
 853 202 853 202 853 455 c 2,19,-1
 853 697 l 2,20,21
 853 840 853 840 798.5 919.5 c 128,-1,22
 744 999 744 999 598 999 c 0,23,24
 472 999 472 999 391.5 920.5 c 128,-1,25
 311 842 311 842 276 744 c 1,26,-1
 276 0 l 1,27,-1
 156 0 l 1,28,-1
 156 1536 l 1,29,-1
 276 1536 l 1,30,-1
 276 901 l 1,31,32
 332 992 332 992 422 1047 c 128,-1,33
 512 1102 512 1102 628 1102 c 0,0,1
EndSplineSet
EndChar

StartChar: Khook
Encoding: 408 408 174
Width: 1292
Flags: W
LayerCount: 2
Fore
SplineSet
1106 0 m 1,0,-1
 519 716 l 1,1,-1
 308 461 l 1,2,-1
 308 0 l 1,3,-1
 185 0 l 1,4,-1
 185 1456 l 1,5,-1
 308 1456 l 1,6,-1
 308 626 l 1,7,-1
 506 879 l 1,8,-1
 822 1285 l 2,9,10
 883 1362 883 1362 942.5 1419 c 128,-1,11
 1002 1476 1002 1476 1099 1476 c 0,12,13
 1159 1476 1159 1476 1212.5 1447 c 128,-1,14
 1266 1418 1266 1418 1304 1380 c 1,15,-1
 1251 1296 l 1,16,17
 1226 1319 1226 1319 1191 1340.5 c 128,-1,18
 1156 1362 1156 1362 1107 1362 c 0,19,20
 1045 1362 1045 1362 1005 1323.5 c 128,-1,21
 965 1285 965 1285 923 1231 c 2,22,-1
 596 811 l 1,23,-1
 1256 0 l 1,24,-1
 1106 0 l 1,0,-1
EndSplineSet
EndChar

StartChar: khook
Encoding: 409 409 175
Width: 1004
Flags: W
LayerCount: 2
Fore
SplineSet
449 1463 m 0,0,1
 276 1463 276 1463 276 1232 c 2,2,-1
 276 554 l 1,3,-1
 389 676 l 1,4,-1
 804 1082 l 1,5,-1
 955 1082 l 1,6,-1
 496 626 l 1,7,-1
 995 0 l 1,8,-1
 851 0 l 1,9,-1
 413 545 l 1,10,-1
 276 413 l 1,11,-1
 276 0 l 1,12,-1
 157 0 l 1,13,-1
 157 1232 l 2,14,15
 157 1390 157 1390 228.5 1473.5 c 128,-1,16
 300 1557 300 1557 429 1557 c 0,17,18
 481 1557 481 1557 535 1539 c 1,19,-1
 528 1450 l 1,20,21
 493 1463 493 1463 449 1463 c 0,0,1
EndSplineSet
EndChar

StartChar: lambdabar
Encoding: 411 411 177
Width: 1128
Flags: W
AnchorPoint: "Anchor-5" 961 1612 basechar 0
LayerCount: 2
Fore
SplineSet
1085 -1 m 1,0,1
 1057 -11 1057 -11 1018 -11 c 0,2,3
 918 -11 918 -11 871 45.5 c 128,-1,4
 824 102 824 102 788 199 c 2,5,-1
 529 891 l 1,6,-1
 182 0 l 1,7,-1
 50 0 l 1,8,-1
 467 1052 l 1,9,-1
 417 1180 l 1,10,-1
 215 1101 l 1,11,-1
 215 1210 l 1,12,-1
 381 1275 l 1,13,14
 354 1341 354 1341 322.5 1378.5 c 128,-1,15
 291 1416 291 1416 230 1416 c 0,16,17
 206 1416 206 1416 182 1412 c 1,18,-1
 177 1507 l 1,19,20
 206 1518 206 1518 253 1518 c 0,21,22
 366 1518 366 1518 417.5 1454.5 c 128,-1,23
 469 1391 469 1391 496 1320 c 1,24,-1
 694 1397 l 1,25,-1
 694 1288 l 1,26,-1
 532 1225 l 1,27,-1
 903 236 l 2,28,29
 930 166 930 166 958 130.5 c 128,-1,30
 986 95 986 95 1035 95 c 0,31,32
 1060 95 1060 95 1078 100 c 1,33,-1
 1085 -1 l 1,0,1
EndSplineSet
EndChar

StartChar: mcapturn
Encoding: 412 412 178
Width: 1890
Flags: W
LayerCount: 2
Fore
SplineSet
1588 0 m 1,0,-1
 1585 149 l 1,1,2
 1535 70 1535 70 1450 24.5 c 128,-1,3
 1365 -21 1365 -21 1241 -21 c 0,4,5
 1127 -21 1127 -21 1042.5 33 c 128,-1,6
 958 87 958 87 918 211 c 1,7,8
 873 104 873 104 781 41.5 c 128,-1,9
 689 -21 689 -21 542 -21 c 0,10,11
 382 -21 382 -21 284.5 87.5 c 128,-1,12
 187 196 187 196 187 455 c 2,13,-1
 187 1456 l 1,14,-1
 306 1456 l 1,15,-1
 306 453 l 2,16,17
 306 247 306 247 379.5 165.5 c 128,-1,18
 453 84 453 84 556 84 c 0,19,20
 715 84 715 84 792 165.5 c 128,-1,21
 869 247 869 247 889 365 c 1,22,23
 885 407 885 407 885 455 c 2,24,-1
 885 1456 l 1,25,-1
 1005 1456 l 1,26,-1
 1005 453 l 2,27,28
 1005 247 1005 247 1078 165.5 c 128,-1,29
 1151 84 1151 84 1254 84 c 0,30,31
 1405 84 1405 84 1482 158 c 128,-1,32
 1559 232 1559 232 1583 341 c 1,33,-1
 1583 1456 l 1,34,-1
 1703 1456 l 1,35,-1
 1703 0 l 1,36,-1
 1588 0 l 1,0,-1
EndSplineSet
EndChar

StartChar: Nhook
Encoding: 413 413 179
Width: 1485
Flags: W
LayerCount: 2
Fore
SplineSet
1176 0 m 1,0,-1
 339 1246 l 1,1,-1
 339 -89 l 2,2,3
 339 -258 339 -258 257.5 -347.5 c 128,-1,4
 176 -437 176 -437 33 -437 c 0,5,6
 -22 -437 -22 -437 -79 -418 c 1,7,-1
 -65 -314 l 1,8,9
 -48 -319 -48 -319 -20 -324 c 128,-1,10
 8 -329 8 -329 33 -329 c 0,11,12
 215 -329 215 -329 215 -89 c 2,13,-1
 215 1456 l 1,14,-1
 339 1456 l 1,15,-1
 1177 210 l 1,16,-1
 1177 1456 l 1,17,-1
 1299 1456 l 1,18,-1
 1299 0 l 1,19,-1
 1176 0 l 1,0,-1
EndSplineSet
EndChar

StartChar: Ohorn
Encoding: 416 416 180
Width: 1429
GlyphClass: 2
Flags: W
AnchorPoint: "Anchor-5" 1429 1609 basechar 0
AnchorPoint: "Anchor-1" 692 0 basechar 0
AnchorPoint: "Anchor-0" 714 1609 basechar 0
LayerCount: 2
Fore
SplineSet
1267 650 m 2,0,1
 1267 344 1267 344 1113.5 162 c 128,-1,2
 960 -20 960 -20 701 -20 c 0,3,4
 447 -20 447 -20 290 162 c 128,-1,5
 133 344 133 344 133 650 c 2,6,-1
 133 806 l 2,7,8
 133 1111 133 1111 289 1293.5 c 128,-1,9
 445 1476 445 1476 699 1476 c 0,10,11
 968 1476 968 1476 1124 1280 c 1,12,13
 1248 1286 1248 1286 1293 1360.5 c 128,-1,14
 1338 1435 1338 1435 1338 1566 c 1,15,-1
 1448 1566 l 1,16,17
 1448 1404 1448 1404 1384.5 1308 c 128,-1,18
 1321 1212 1321 1212 1182 1191 c 1,19,20
 1267 1029 1267 1029 1267 806 c 2,21,-1
 1267 650 l 2,0,1
1145 650 m 2,22,-1
 1145 808 l 2,23,24
 1145 1066 1145 1066 1027.5 1217 c 128,-1,25
 910 1368 910 1368 699 1368 c 0,26,27
 493 1368 493 1368 374.5 1217 c 128,-1,28
 256 1066 256 1066 256 808 c 2,29,-1
 256 650 l 2,30,31
 256 390 256 390 375.5 239 c 128,-1,32
 495 88 495 88 701 88 c 0,33,34
 913 88 913 88 1029 239 c 128,-1,35
 1145 390 1145 390 1145 650 c 2,22,-1
EndSplineSet
EndChar

StartChar: ohorn
Encoding: 417 417 181
Width: 1146
GlyphClass: 2
Flags: W
AnchorPoint: "Anchor-5" 1146 1290 basechar 0
AnchorPoint: "Anchor-1" 582 -10 basechar 0
AnchorPoint: "Anchor-0" 582 1290 basechar 0
LayerCount: 2
Fore
SplineSet
1055 525 m 2,0,1
 1055 288 1055 288 924 134 c 128,-1,2
 793 -20 793 -20 573 -20 c 256,3,4
 353 -20 353 -20 221 134 c 128,-1,5
 89 288 89 288 89 525 c 2,6,-1
 89 557 l 2,7,8
 89 793 89 793 221 947.5 c 128,-1,9
 353 1102 353 1102 571 1102 c 0,10,11
 781 1102 781 1102 914 959 c 1,12,13
 1021 966 1021 966 1051.5 1029 c 128,-1,14
 1082 1092 1082 1092 1082 1198 c 1,15,-1
 1184 1198 l 1,16,17
 1184 1065 1184 1065 1137 983 c 128,-1,18
 1090 901 1090 901 973 880 c 1,19,20
 1055 743 1055 743 1055 557 c 2,21,-1
 1055 525 l 2,0,1
209 557 m 2,22,-1
 209 525 l 2,23,24
 209 346 209 346 302.5 214 c 128,-1,25
 396 82 396 82 573 82 c 0,26,27
 748 82 748 82 841.5 214 c 128,-1,28
 935 346 935 346 935 525 c 2,29,-1
 935 557 l 2,30,31
 935 732 935 732 841.5 866 c 128,-1,32
 748 1000 748 1000 571 1000 c 0,33,34
 396 1000 396 1000 302.5 866 c 128,-1,35
 209 732 209 732 209 557 c 2,22,-1
EndSplineSet
EndChar

StartChar: OI
Encoding: 418 418 182
Width: 1674
Flags: W
LayerCount: 2
Fore
SplineSet
715 -21 m 0,0,1
 459 -21 459 -21 295.5 157 c 128,-1,2
 132 335 132 335 132 645 c 2,3,-1
 132 810 l 2,4,5
 132 1115 132 1115 295.5 1295.5 c 128,-1,6
 459 1476 459 1476 715 1476 c 0,7,8
 894 1476 894 1476 1004.5 1430.5 c 128,-1,9
 1115 1385 1115 1385 1171 1335 c 1,10,-1
 1391 1456 l 1,11,-1
 1488 1456 l 1,12,-1
 1488 -416 l 1,13,-1
 1368 -416 l 1,14,-1
 1368 1331 l 1,15,-1
 1220 1250 l 1,16,-1
 1220 174 l 1,17,18
 1182 120 1182 120 1063 49.5 c 128,-1,19
 944 -21 944 -21 715 -21 c 0,0,1
715 1372 m 0,20,21
 506 1372 506 1372 380 1219 c 128,-1,22
 254 1066 254 1066 254 810 c 2,23,-1
 254 645 l 2,24,25
 254 396 254 396 376.5 240 c 128,-1,26
 499 84 499 84 719 84 c 0,27,28
 885 84 885 84 977 129 c 128,-1,29
 1069 174 1069 174 1101 213 c 1,30,-1
 1101 1243 l 1,31,32
 1069 1282 1069 1282 976.5 1327 c 128,-1,33
 884 1372 884 1372 715 1372 c 0,20,21
EndSplineSet
EndChar

StartChar: oi
Encoding: 419 419 183
Width: 1275
Flags: W
LayerCount: 2
Fore
SplineSet
997 928 m 1,0,-1
 879 852 l 1,1,-1
 879 113 l 1,2,3
 756 -21 756 -21 558 -21 c 0,4,5
 331 -21 331 -21 213.5 135.5 c 128,-1,6
 96 292 96 292 96 520 c 2,7,-1
 96 562 l 2,8,9
 96 790 96 790 213 946 c 128,-1,10
 330 1102 330 1102 557 1102 c 0,11,12
 744 1102 744 1102 860 987 c 1,13,-1
 1020 1082 l 1,14,-1
 1117 1082 l 1,15,-1
 1117 -416 l 1,16,-1
 997 -416 l 1,17,-1
 997 928 l 1,0,-1
558 81 m 0,18,19
 677 81 677 81 760 146 c 1,20,-1
 760 930 l 1,21,22
 678 1000 678 1000 557 1000 c 0,23,24
 372 1000 372 1000 294 867 c 128,-1,25
 216 734 216 734 216 562 c 2,26,-1
 216 520 l 2,27,28
 216 327 216 327 301 204 c 128,-1,29
 386 81 386 81 558 81 c 0,18,19
EndSplineSet
EndChar

StartChar: Phook
Encoding: 420 420 184
Width: 1447
Flags: W
LayerCount: 2
Fore
SplineSet
25 1172 m 0,0,1
 25 1456 25 1456 371 1456 c 1,2,-1
 371 1456 l 1,3,-1
 867 1456 l 2,4,5
 1107 1456 1107 1456 1232 1335.5 c 128,-1,6
 1357 1215 1357 1215 1357 1022 c 0,7,8
 1357 820 1357 820 1232 706.5 c 128,-1,9
 1107 593 1107 593 867 593 c 2,10,-1
 494 593 l 1,11,-1
 494 0 l 1,12,-1
 371 0 l 1,13,-1
 371 1351 l 1,14,15
 130 1350 130 1350 130 1149 c 0,16,17
 130 1107 130 1107 144 1065 c 1,18,-1
 43 1058 l 1,19,20
 25 1117 25 1117 25 1172 c 0,0,1
494 1351 m 1,21,-1
 494 698 l 1,22,-1
 867 698 l 2,23,24
 1061 698 1061 698 1147.5 791 c 128,-1,25
 1234 884 1234 884 1234 1020 c 0,26,27
 1234 1154 1234 1154 1147.5 1252.5 c 128,-1,28
 1061 1351 1061 1351 867 1351 c 2,29,-1
 494 1351 l 1,21,-1
EndSplineSet
EndChar

StartChar: phook
Encoding: 421 421 185
Width: 1135
Flags: W
LayerCount: 2
Fore
SplineSet
614 -20 m 0,0,1
 499 -20 499 -20 414.5 22 c 128,-1,2
 330 64 330 64 275 137 c 1,3,-1
 275 -416 l 1,4,-1
 155 -416 l 1,5,-1
 155 1082 l 1,6,-1
 158 1082 l 1,7,8
 184 1349 184 1349 428 1349 c 0,9,10
 483 1349 483 1349 534 1331 c 1,11,-1
 527 1243 l 1,12,13
 512 1248 512 1248 490 1252 c 128,-1,14
 468 1256 468 1256 447 1256 c 0,15,16
 275 1256 275 1256 275 1024 c 2,17,-1
 275 932 l 1,18,19
 330 1012 330 1012 414 1057 c 128,-1,20
 498 1102 498 1102 612 1102 c 0,21,22
 810 1102 810 1102 918.5 952.5 c 128,-1,23
 1027 803 1027 803 1027 551 c 2,24,-1
 1027 530 l 2,25,26
 1027 288 1027 288 918.5 134 c 128,-1,27
 810 -20 810 -20 614 -20 c 0,0,1
585 998 m 0,28,29
 456 998 456 998 383 935.5 c 128,-1,30
 310 873 310 873 275 792 c 1,31,-1
 275 270 l 1,32,33
 314 189 314 189 390 135.5 c 128,-1,34
 466 82 466 82 587 82 c 0,35,36
 750 82 750 82 828.5 211.5 c 128,-1,37
 907 341 907 341 907 530 c 2,38,-1
 907 551 l 2,39,40
 907 740 907 740 828.5 869 c 128,-1,41
 750 998 750 998 585 998 c 0,28,29
EndSplineSet
EndChar

StartChar: YR
Encoding: 422 422 186
Width: 1374
Flags: W
LayerCount: 2
Fore
SplineSet
305 0 m 1,0,-1
 182 0 l 1,1,-1
 182 1547 l 1,2,-1
 305 1547 l 1,3,-1
 305 1456 l 1,4,-1
 655 1456 l 2,5,6
 882 1456 882 1456 1015.5 1346 c 128,-1,7
 1149 1236 1149 1236 1149 1027 c 0,8,9
 1149 882 1149 882 1065.5 776.5 c 128,-1,10
 982 671 982 671 848 632 c 1,11,-1
 1424 -342 l 1,12,-1
 1424 -355 l 1,13,-1
 1292 -355 l 1,14,-1
 730 607 l 1,15,-1
 305 607 l 1,16,-1
 305 0 l 1,0,-1
305 1351 m 1,17,-1
 305 711 l 1,18,-1
 682 711 l 2,19,20
 854 711 854 711 940 806.5 c 128,-1,21
 1026 902 1026 902 1026 1027 c 0,22,23
 1026 1177 1026 1177 930.5 1264 c 128,-1,24
 835 1351 835 1351 655 1351 c 2,25,-1
 305 1351 l 1,17,-1
EndSplineSet
EndChar

StartChar: Tonetwo
Encoding: 423 423 187
Width: 1213
Flags: W
LayerCount: 2
Fore
SplineSet
205 358 m 0,0,1
 205 235 205 235 307.5 159.5 c 128,-1,2
 410 84 410 84 581 84 c 0,3,4
 680 84 680 84 777 116 c 128,-1,5
 874 148 874 148 938 220.5 c 128,-1,6
 1002 293 1002 293 1002 416 c 1,7,-1
 1125 416 l 1,8,9
 1125 262 1125 262 1043 166 c 128,-1,10
 961 70 961 70 835.5 25 c 128,-1,11
 710 -20 710 -20 581 -20 c 0,12,13
 364 -20 364 -20 222 81 c 128,-1,14
 80 182 80 182 80 360 c 0,15,16
 80 537 80 537 206 633.5 c 128,-1,17
 332 730 332 730 564 793 c 0,18,19
 784 852 784 852 869.5 925 c 128,-1,20
 955 998 955 998 955 1103 c 0,21,22
 955 1212 955 1212 862.5 1291.5 c 128,-1,23
 770 1371 770 1371 590 1371 c 0,24,25
 411 1371 411 1371 312 1277.5 c 128,-1,26
 213 1184 213 1184 213 1041 c 1,27,-1
 90 1041 l 1,28,29
 90 1223 90 1223 225 1349.5 c 128,-1,30
 360 1476 360 1476 590 1476 c 0,31,32
 804 1476 804 1476 941 1372 c 128,-1,33
 1078 1268 1078 1268 1078 1100 c 0,34,35
 1078 928 1078 928 950 837 c 128,-1,36
 822 746 822 746 602 685 c 0,37,38
 376 621 376 621 290.5 550 c 128,-1,39
 205 479 205 479 205 358 c 0,0,1
EndSplineSet
EndChar

StartChar: tonetwo
Encoding: 424 424 188
Width: 1039
Flags: W
LayerCount: 2
Fore
SplineSet
234 276 m 0,0,1
 234 200 234 200 305 141 c 128,-1,2
 376 82 376 82 513 82 c 0,3,4
 616 82 616 82 713 129 c 128,-1,5
 810 176 810 176 818 304 c 1,6,-1
 937 304 l 1,7,8
 937 177 937 177 828 78.5 c 128,-1,9
 719 -20 719 -20 513 -20 c 0,10,11
 332 -20 332 -20 223.5 64 c 128,-1,12
 115 148 115 148 115 282 c 0,13,14
 115 411 115 411 205.5 483.5 c 128,-1,15
 296 556 296 556 493 601 c 0,16,17
 675 642 675 642 728.5 691 c 128,-1,18
 782 740 782 740 782 812 c 0,19,20
 782 880 782 880 721 940 c 128,-1,21
 660 1000 660 1000 520 1000 c 0,22,23
 385 1000 385 1000 313 931.5 c 128,-1,24
 241 863 241 863 241 779 c 1,25,-1
 120 779 l 1,26,27
 120 918 120 918 226 1010 c 128,-1,28
 332 1102 332 1102 520 1102 c 0,29,30
 696 1102 696 1102 798.5 1015.5 c 128,-1,31
 901 929 901 929 901 808 c 0,32,33
 901 674 901 674 803 608 c 128,-1,34
 705 542 705 542 524 504 c 256,35,36
 343 466 343 466 288.5 404.5 c 128,-1,37
 234 343 234 343 234 276 c 0,0,1
EndSplineSet
EndChar

StartChar: eshlooprev
Encoding: 426 426 190
Width: 954
Flags: W
LayerCount: 2
Fore
SplineSet
979 -405 m 1,0,1
 924 -424 924 -424 865 -424 c 0,2,3
 581 -424 581 -424 581 -76 c 2,4,-1
 581 980 l 1,5,6
 488 902 488 902 365 902 c 0,7,8
 227 902 227 902 129 993.5 c 128,-1,9
 31 1085 31 1085 31 1236 c 0,10,11
 31 1383 31 1383 131 1477.5 c 128,-1,12
 231 1572 231 1572 365 1572 c 0,13,14
 504 1572 504 1572 602.5 1476.5 c 128,-1,15
 701 1381 701 1381 701 1236 c 2,16,-1
 701 -76 l 2,17,18
 701 -319 701 -319 889 -319 c 0,19,20
 935 -319 935 -319 972 -306 c 1,21,-1
 979 -405 l 1,0,1
365 1013 m 0,22,23
 453 1013 453 1013 520 1070.5 c 128,-1,24
 587 1128 587 1128 587 1238 c 0,25,26
 587 1344 587 1344 520 1403 c 128,-1,27
 453 1462 453 1462 365 1462 c 0,28,29
 275 1462 275 1462 210 1403 c 128,-1,30
 145 1344 145 1344 145 1236 c 256,31,32
 145 1128 145 1128 210 1070.5 c 128,-1,33
 275 1013 275 1013 365 1013 c 0,22,23
EndSplineSet
EndChar

StartChar: tpalatalhook
Encoding: 427 427 191
Width: 659
Flags: W
LayerCount: 2
Fore
SplineSet
586 -76 m 2,0,1
 586 -234 586 -234 528.5 -318 c 128,-1,2
 471 -402 471 -402 341 -402 c 0,3,4
 291 -402 291 -402 235 -384 c 1,5,-1
 242 -295 l 1,6,7
 279 -308 279 -308 322 -308 c 0,8,9
 494 -308 494 -308 494 -76 c 2,10,-1
 494 -19 l 1,11,12
 476 -20 476 -20 458 -20 c 0,13,14
 354 -20 354 -20 288 40.5 c 128,-1,15
 222 101 222 101 222 264 c 2,16,-1
 222 984 l 1,17,-1
 24 984 l 1,18,-1
 24 1082 l 1,19,-1
 222 1082 l 1,20,-1
 222 1360 l 1,21,-1
 343 1360 l 1,22,-1
 343 1082 l 1,23,-1
 566 1082 l 1,24,-1
 566 984 l 1,25,-1
 343 984 l 1,26,-1
 343 264 l 2,27,28
 343 150 343 150 385.5 117.5 c 128,-1,29
 428 85 428 85 483 85 c 0,30,31
 511 85 511 85 535.5 88.5 c 128,-1,32
 560 92 560 92 581 96 c 1,33,-1
 586 -4 l 1,34,-1
 586 -76 l 2,0,1
EndSplineSet
EndChar

StartChar: Thook
Encoding: 428 428 192
Width: 1249
Flags: W
LayerCount: 2
Fore
SplineSet
25 1172 m 0,0,1
 25 1456 25 1456 373 1456 c 2,2,-1
 1198 1456 l 1,3,-1
 1198 1351 l 1,4,-1
 700 1351 l 1,5,-1
 700 0 l 1,6,-1
 577 0 l 1,7,-1
 577 1351 l 1,8,-1
 373 1351 l 2,9,10
 130 1351 130 1351 130 1149 c 0,11,12
 130 1107 130 1107 144 1065 c 1,13,-1
 43 1058 l 1,14,15
 25 1117 25 1117 25 1172 c 0,0,1
EndSplineSet
EndChar

StartChar: thook
Encoding: 429 429 193
Width: 664
Flags: W
LayerCount: 2
Fore
SplineSet
522 1478 m 0,0,1
 350 1478 350 1478 350 1246 c 2,2,-1
 350 1082 l 1,3,-1
 574 1082 l 1,4,-1
 574 984 l 1,5,-1
 350 984 l 1,6,-1
 350 277 l 2,7,8
 350 158 350 158 392.5 121.5 c 128,-1,9
 435 85 435 85 491 85 c 0,10,11
 518 85 518 85 543 88.5 c 128,-1,12
 568 92 568 92 588 96 c 1,13,-1
 593 -4 l 1,14,15
 547 -20 547 -20 465 -20 c 0,16,17
 362 -20 362 -20 295.5 45 c 128,-1,18
 229 110 229 110 229 277 c 2,19,-1
 229 984 l 1,20,-1
 31 984 l 1,21,-1
 31 1082 l 1,22,-1
 229 1082 l 1,23,-1
 229 1246 l 2,24,25
 229 1404 229 1404 301 1488 c 128,-1,26
 373 1572 373 1572 502 1572 c 0,27,28
 553 1572 553 1572 609 1554 c 1,29,-1
 601 1465 l 1,30,31
 566 1478 566 1478 522 1478 c 0,0,1
EndSplineSet
EndChar

StartChar: Trthook
Encoding: 430 430 194
Width: 1223
Flags: W
LayerCount: 2
Fore
SplineSet
52 1351 m 1,0,-1
 52 1456 l 1,1,-1
 1172 1456 l 1,2,-1
 1172 1351 l 1,3,-1
 673 1351 l 1,4,-1
 673 -89 l 2,5,6
 673 -332 673 -332 855 -332 c 0,7,8
 878 -332 878 -332 907.5 -326.5 c 128,-1,9
 937 -321 937 -321 953 -316 c 1,10,-1
 967 -418 l 1,11,12
 910 -437 910 -437 855 -437 c 0,13,14
 712 -437 712 -437 631.5 -347.5 c 128,-1,15
 551 -258 551 -258 551 -89 c 2,16,-1
 551 1351 l 1,17,-1
 52 1351 l 1,0,-1
EndSplineSet
EndChar

StartChar: Uhorn
Encoding: 431 431 195
Width: 1395
GlyphClass: 2
Flags: W
AnchorPoint: "Anchor-5" 1395 1612 basechar 0
AnchorPoint: "Anchor-1" 672 -5 basechar 0
AnchorPoint: "Anchor-0" 679 1612 basechar 0
LayerCount: 2
Fore
SplineSet
1187 470 m 2,0,1
 1187 224 1187 224 1037 102 c 128,-1,2
 887 -20 887 -20 674 -20 c 0,3,4
 456 -20 456 -20 309.5 102 c 128,-1,5
 163 224 163 224 163 470 c 2,6,-1
 163 1456 l 1,7,-1
 285 1456 l 1,8,-1
 285 470 l 2,9,10
 285 279 285 279 395 181.5 c 128,-1,11
 505 84 505 84 674 84 c 0,12,13
 844 84 844 84 954 181.5 c 128,-1,14
 1064 279 1064 279 1064 470 c 2,15,-1
 1064 1456 l 1,16,-1
 1187 1456 l 1,17,-1
 1187 1246 l 1,18,19
 1320 1255 1320 1255 1365 1331.5 c 128,-1,20
 1410 1408 1410 1408 1410 1545 c 1,21,-1
 1517 1545 l 1,22,23
 1517 1361 1517 1361 1442.5 1261 c 128,-1,24
 1368 1161 1368 1161 1187 1152 c 1,25,-1
 1187 470 l 2,0,1
EndSplineSet
EndChar

StartChar: uhorn
Encoding: 432 432 196
Width: 1200
GlyphClass: 2
Flags: W
AnchorPoint: "Anchor-5" 1200 1269 basechar 0
AnchorPoint: "Anchor-1" 561 0 basechar 0
AnchorPoint: "Anchor-0" 580 1269 basechar 0
LayerCount: 2
Fore
SplineSet
855 0 m 1,0,-1
 852 137 l 1,1,2
 802 64 802 64 717 22 c 128,-1,3
 632 -20 632 -20 508 -20 c 0,4,5
 349 -20 349 -20 250.5 74 c 128,-1,6
 152 168 152 168 152 390 c 2,7,-1
 152 1082 l 1,8,-1
 272 1082 l 1,9,-1
 272 388 l 2,10,11
 272 215 272 215 345.5 149.5 c 128,-1,12
 419 84 419 84 522 84 c 0,13,14
 665 84 665 84 742.5 144.5 c 128,-1,15
 820 205 820 205 850 297 c 1,16,-1
 850 1082 l 1,17,-1
 970 1082 l 1,18,-1
 970 950 l 1,19,20
 1086 956 1086 956 1114.5 1013.5 c 128,-1,21
 1143 1071 1143 1071 1143 1180 c 1,22,-1
 1241 1180 l 1,23,24
 1241 1032 1241 1032 1184 952.5 c 128,-1,25
 1127 873 1127 873 970 866 c 1,26,-1
 970 0 l 1,27,-1
 855 0 l 1,0,-1
EndSplineSet
EndChar

StartChar: Upsilon2
Encoding: 433 433 197
Width: 1361
Flags: W
LayerCount: 2
Fore
SplineSet
1092 726 m 2,0,1
 1092 1005 1092 1005 992 1148.5 c 128,-1,2
 892 1292 892 1292 762 1336 c 1,3,-1
 762 1456 l 1,4,-1
 1225 1456 l 1,5,-1
 1225 1351 l 1,6,-1
 935 1351 l 1,7,8
 1055 1262 1055 1262 1136 1101.5 c 128,-1,9
 1217 941 1217 941 1217 726 c 2,10,-1
 1217 611 l 2,11,12
 1217 328 1217 328 1067.5 154 c 128,-1,13
 918 -20 918 -20 679 -20 c 256,14,15
 440 -20 440 -20 291 154 c 128,-1,16
 142 328 142 328 142 611 c 2,17,-1
 142 726 l 2,18,19
 142 941 142 941 222.5 1101.5 c 128,-1,20
 303 1262 303 1262 423 1351 c 1,21,-1
 137 1351 l 1,22,-1
 137 1456 l 1,23,-1
 597 1456 l 1,24,-1
 597 1336 l 1,25,26
 469 1292 469 1292 367.5 1148.5 c 128,-1,27
 266 1005 266 1005 266 726 c 2,28,-1
 266 609 l 2,29,30
 266 373 266 373 377 228.5 c 128,-1,31
 488 84 488 84 679 84 c 0,32,33
 869 84 869 84 980.5 228.5 c 128,-1,34
 1092 373 1092 373 1092 609 c 2,35,-1
 1092 726 l 2,0,1
EndSplineSet
EndChar

StartChar: Vcursive
Encoding: 434 434 198
Width: 1366
Flags: W
LayerCount: 2
Fore
SplineSet
683 -21 m 0,0,1
 465 -21 465 -21 318 101.5 c 128,-1,2
 171 224 171 224 171 470 c 2,3,-1
 171 1456 l 1,4,-1
 293 1456 l 1,5,-1
 293 470 l 2,6,7
 293 279 293 279 403.5 181.5 c 128,-1,8
 514 84 514 84 683 84 c 0,9,10
 853 84 853 84 962.5 181.5 c 128,-1,11
 1072 279 1072 279 1072 470 c 2,12,-1
 1072 1128 l 2,13,14
 1072 1249 1072 1249 1031 1309.5 c 128,-1,15
 990 1370 990 1370 892 1370 c 0,16,17
 846 1370 846 1370 809 1357 c 1,18,-1
 802 1457 l 1,19,20
 857 1476 857 1476 915 1476 c 0,21,22
 1195 1476 1195 1476 1195 1128 c 2,23,-1
 1195 470 l 2,24,25
 1195 224 1195 224 1045 101.5 c 128,-1,26
 895 -21 895 -21 683 -21 c 0,0,1
EndSplineSet
EndChar

StartChar: Yhook
Encoding: 435 435 199
Width: 1276
Flags: W
LayerCount: 2
Fore
SplineSet
1005 1117 m 2,0,-1
 673 545 l 1,1,-1
 673 0 l 1,2,-1
 550 0 l 1,3,-1
 550 547 l 1,4,-1
 24 1456 l 1,5,-1
 170 1456 l 1,6,-1
 612 653 l 1,7,-1
 898 1169 l 2,8,9
 964 1291 964 1291 1032 1383.5 c 128,-1,10
 1100 1476 1100 1476 1217 1476 c 0,11,12
 1279 1476 1279 1476 1334.5 1447 c 128,-1,13
 1390 1418 1390 1418 1428 1380 c 1,14,-1
 1375 1296 l 1,15,16
 1350 1319 1350 1319 1315.5 1340.5 c 128,-1,17
 1281 1362 1281 1362 1232 1362 c 0,18,19
 1154 1362 1154 1362 1107 1290 c 128,-1,20
 1060 1218 1060 1218 1005 1117 c 2,0,-1
EndSplineSet
EndChar

StartChar: yhook
Encoding: 436 436 200
Width: 1217
Flags: W
LayerCount: 2
Fore
SplineSet
486 -174 m 2,0,1
 468 -224 468 -224 434.5 -286 c 128,-1,2
 401 -348 401 -348 340.5 -392.5 c 128,-1,3
 280 -437 280 -437 181 -437 c 0,4,5
 162 -437 162 -437 133 -432.5 c 128,-1,6
 104 -428 104 -428 91 -424 c 1,7,-1
 91 -324 l 1,8,9
 101 -327 101 -327 122.5 -329 c 128,-1,10
 144 -331 144 -331 154 -331 c 0,11,12
 248 -331 248 -331 300 -282 c 128,-1,13
 352 -233 352 -233 389 -133 c 2,14,-1
 442 9 l 1,15,-1
 33 1082 l 1,16,-1
 163 1082 l 1,17,-1
 461 278 l 1,18,-1
 497 163 l 1,19,-1
 806 1047 l 2,20,21
 840 1145 840 1145 900.5 1240.5 c 128,-1,22
 961 1336 961 1336 1089 1336 c 0,23,24
 1146 1336 1146 1336 1196 1315 c 128,-1,25
 1246 1294 1246 1294 1286 1263 c 1,26,-1
 1248 1184 l 1,27,28
 1217 1206 1217 1206 1179.5 1221.5 c 128,-1,29
 1142 1237 1142 1237 1102 1237 c 0,30,31
 1037 1237 1037 1237 994 1178.5 c 128,-1,32
 951 1120 951 1120 918 1026 c 2,33,-1
 486 -174 l 2,0,1
EndSplineSet
EndChar

StartChar: Zbar
Encoding: 437 437 201
Width: 1225
GlyphClass: 2
Flags: W
AnchorPoint: "Anchor-5" 1225 1607 basechar 0
AnchorPoint: "Anchor-1" 628 10 basechar 0
AnchorPoint: "Anchor-0" 613 1607 basechar 0
LayerCount: 2
Fore
SplineSet
117 1352 m 1,0,-1
 117 1456 l 1,1,-1
 1106 1456 l 1,2,-1
 1106 1368 l 1,3,-1
 714 797 l 1,4,-1
 1044 797 l 1,5,-1
 1044 696 l 1,6,-1
 645 696 l 1,7,-1
 239 104 l 1,8,-1
 1138 104 l 1,9,-1
 1138 0 l 1,10,-1
 90 0 l 1,11,-1
 90 93 l 1,12,-1
 505 696 l 1,13,-1
 156 696 l 1,14,-1
 156 797 l 1,15,-1
 574 797 l 1,16,-1
 956 1352 l 1,17,-1
 117 1352 l 1,0,-1
EndSplineSet
EndChar

StartChar: zbar
Encoding: 438 438 202
Width: 1006
GlyphClass: 2
Flags: W
AnchorPoint: "Anchor-5" 1006 1292 basechar 0
AnchorPoint: "Anchor-1" 521 10 basechar 0
AnchorPoint: "Anchor-0" 501 1292 basechar 0
LayerCount: 2
Fore
SplineSet
113 979 m 1,0,-1
 113 1082 l 1,1,-1
 899 1082 l 1,2,-1
 899 994 l 1,3,-1
 610 602 l 1,4,-1
 839 602 l 1,5,-1
 839 500 l 1,6,-1
 535 500 l 1,7,-1
 241 102 l 1,8,-1
 944 102 l 1,9,-1
 944 0 l 1,10,-1
 93 0 l 1,11,-1
 93 89 l 1,12,-1
 396 500 l 1,13,-1
 165 500 l 1,14,-1
 165 602 l 1,15,-1
 471 602 l 1,16,-1
 748 979 l 1,17,-1
 113 979 l 1,0,-1
EndSplineSet
EndChar

StartChar: uni01B7
Encoding: 439 439 203
Width: 1296
Flags: W
LayerCount: 2
Fore
SplineSet
102 1352 m 1,0,-1
 102 1456 l 1,1,-1
 1089 1456 l 1,2,-1
 1089 1369 l 1,3,-1
 539 752 l 1,4,-1
 611 752 l 2,5,6
 866 752 866 752 1017 605 c 128,-1,7
 1168 458 1168 458 1168 163 c 256,8,9
 1168 -132 1168 -132 1018 -279.5 c 128,-1,10
 868 -427 868 -427 620 -427 c 0,11,12
 379 -427 379 -427 243.5 -300.5 c 128,-1,13
 108 -174 108 -174 86 47 c 1,14,-1
 209 47 l 1,15,16
 233 -138 233 -138 329 -230.5 c 128,-1,17
 425 -323 425 -323 620 -323 c 0,18,19
 824 -323 824 -323 934.5 -200 c 128,-1,20
 1045 -77 1045 -77 1045 163 c 0,21,22
 1045 412 1045 412 930 531.5 c 128,-1,23
 815 651 815 651 611 651 c 2,24,-1
 387 651 l 1,25,-1
 387 743 l 1,26,-1
 932 1352 l 1,27,-1
 102 1352 l 1,0,-1
EndSplineSet
EndChar

StartChar: uni01B8
Encoding: 440 440 204
Width: 1296
Flags: W
LayerCount: 2
Fore
SplineSet
909 743 m 1,0,-1
 909 651 l 1,1,-1
 685 651 l 2,2,3
 481 651 481 651 366 531.5 c 128,-1,4
 251 412 251 412 251 163 c 0,5,6
 251 -77 251 -77 361.5 -200 c 128,-1,7
 472 -323 472 -323 676 -323 c 0,8,9
 871 -323 871 -323 967 -230.5 c 128,-1,10
 1063 -138 1063 -138 1087 47 c 1,11,-1
 1210 47 l 1,12,13
 1188 -174 1188 -174 1052.5 -300.5 c 128,-1,14
 917 -427 917 -427 676 -427 c 0,15,16
 428 -427 428 -427 278 -279.5 c 128,-1,17
 128 -132 128 -132 128 163 c 256,18,19
 128 458 128 458 279 605 c 128,-1,20
 430 752 430 752 685 752 c 2,21,-1
 757 752 l 1,22,-1
 207 1369 l 1,23,-1
 207 1456 l 1,24,-1
 1194 1456 l 1,25,-1
 1194 1352 l 1,26,-1
 364 1352 l 1,27,-1
 909 743 l 1,0,-1
EndSplineSet
EndChar

StartChar: uni01B9
Encoding: 441 441 205
Width: 1161
Flags: W
LayerCount: 2
Fore
SplineSet
302 979 m 1,0,-1
 732 468 l 1,1,-1
 732 366 l 1,2,-1
 626 366 l 2,3,4
 454 366 454 366 354 284.5 c 128,-1,5
 254 203 254 203 254 17 c 0,6,7
 254 -123 254 -123 343 -208 c 128,-1,8
 432 -293 432 -293 596 -293 c 0,9,10
 749 -293 749 -293 842 -200.5 c 128,-1,11
 935 -108 935 -108 935 29 c 1,12,-1
 1056 29 l 1,13,14
 1056 -118 1056 -118 988 -212 c 128,-1,15
 920 -306 920 -306 814 -350.5 c 128,-1,16
 708 -395 708 -395 596 -395 c 0,17,18
 396 -395 396 -395 265 -286 c 128,-1,19
 134 -177 134 -177 134 21 c 0,20,21
 134 227 134 227 254 340.5 c 128,-1,22
 374 454 374 454 591 461 c 1,23,-1
 153 990 l 1,24,-1
 155 1082 l 1,25,-1
 1024 1082 l 1,26,-1
 1024 979 l 1,27,-1
 302 979 l 1,0,-1
EndSplineSet
EndChar

StartChar: uni01BA
Encoding: 442 442 206
Width: 1045
Flags: W
LayerCount: 2
Fore
SplineSet
751 395 m 0,0,1
 751 462 751 462 690 516 c 128,-1,2
 629 570 629 570 489 570 c 2,3,-1
 349 570 l 1,4,-1
 349 651 l 1,5,-1
 738 980 l 1,6,-1
 110 980 l 1,7,-1
 110 1082 l 1,8,-1
 915 1082 l 1,9,-1
 916 1001 l 1,10,-1
 548 669 l 1,11,12
 698 655 698 655 784.5 578 c 128,-1,13
 871 501 871 501 871 391 c 0,14,15
 871 254 871 254 771.5 189 c 128,-1,16
 672 124 672 124 491 85 c 0,17,18
 316 47 316 47 260 -13.5 c 128,-1,19
 204 -74 204 -74 204 -141 c 0,20,21
 204 -217 204 -217 275 -276 c 128,-1,22
 346 -335 346 -335 483 -335 c 0,23,24
 585 -335 585 -335 682 -287.5 c 128,-1,25
 779 -240 779 -240 787 -113 c 1,26,-1
 907 -113 l 1,27,28
 907 -240 907 -240 797.5 -338.5 c 128,-1,29
 688 -437 688 -437 483 -437 c 0,30,31
 301 -437 301 -437 192.5 -352.5 c 128,-1,32
 84 -268 84 -268 84 -134 c 0,33,34
 84 -2 84 -2 181.5 70 c 128,-1,35
 279 142 279 142 469 184 c 0,36,37
 632 220 632 220 691.5 265.5 c 128,-1,38
 751 311 751 311 751 395 c 0,0,1
EndSplineSet
EndChar

StartChar: uni01BB
Encoding: 443 443 207
Width: 1139
Flags: W
LayerCount: 2
Fore
SplineSet
1050 102 m 1,0,-1
 1050 0 l 1,1,-1
 137 0 l 1,2,-1
 137 93 l 1,3,-1
 614 633 l 2,4,5
 629 649 629 649 642 665 c 1,6,-1
 342 665 l 1,7,-1
 342 767 l 1,8,-1
 725 767 l 1,9,10
 796 862 796 862 826.5 934 c 128,-1,11
 857 1006 857 1006 857 1075 c 0,12,13
 857 1207 857 1207 779 1290.5 c 128,-1,14
 701 1374 701 1374 553 1374 c 0,15,16
 401 1374 401 1374 313 1278.5 c 128,-1,17
 225 1183 225 1183 225 1036 c 1,18,-1
 105 1036 l 1,19,20
 105 1217 105 1217 224 1346.5 c 128,-1,21
 343 1476 343 1476 553 1476 c 0,22,23
 750 1476 750 1476 863.5 1372.5 c 128,-1,24
 977 1269 977 1269 977 1086 c 0,25,26
 977 1007 977 1007 943 926.5 c 128,-1,27
 909 846 909 846 856 767 c 1,28,-1
 1049 767 l 1,29,-1
 1049 665 l 1,30,-1
 780 665 l 1,31,32
 742 618 742 618 691 560 c 2,33,-1
 284 102 l 1,34,-1
 1050 102 l 1,0,-1
EndSplineSet
EndChar

StartChar: Tonefive
Encoding: 444 444 208
Width: 1136
Flags: W
LayerCount: 2
Fore
SplineSet
62 1345 m 1,0,-1
 62 1456 l 1,1,-1
 1018 1456 l 1,2,-1
 1018 1345 l 1,3,-1
 393 1345 l 1,4,-1
 341 853 l 1,5,6
 378 880 378 880 451 907 c 128,-1,7
 524 934 524 934 615 934 c 0,8,9
 810 934 810 934 928.5 808 c 128,-1,10
 1047 682 1047 682 1047 464 c 0,11,12
 1047 255 1047 255 942.5 117.5 c 128,-1,13
 838 -20 838 -20 611 -20 c 0,14,15
 438 -20 438 -20 312 79 c 128,-1,16
 186 178 186 178 168 383 c 1,17,-1
 283 383 l 1,18,19
 317 82 317 82 611 82 c 0,20,21
 766 82 766 82 846.5 181 c 128,-1,22
 927 280 927 280 927 462 c 0,23,24
 927 616 927 616 840.5 720.5 c 128,-1,25
 754 825 754 825 594 825 c 0,26,27
 490 825 490 825 428 796.5 c 128,-1,28
 366 768 366 768 313 720 c 1,29,-1
 219 747 l 1,30,-1
 279 1345 l 1,31,-1
 62 1345 l 1,0,-1
EndSplineSet
EndChar

StartChar: tonefive
Encoding: 445 445 209
Width: 1031
Flags: W
LayerCount: 2
Fore
SplineSet
46 974 m 1,0,-1
 46 1082 l 1,1,-1
 878 1082 l 1,2,-1
 878 974 l 1,3,-1
 332 974 l 1,4,-1
 290 651 l 1,5,6
 332 682 332 682 394.5 707.5 c 128,-1,7
 457 733 457 733 558 735 c 0,8,9
 725 738 725 738 827 640 c 128,-1,10
 929 542 929 542 929 367 c 0,11,12
 929 203 929 203 834.5 93 c 128,-1,13
 740 -17 740 -17 523 -17 c 0,14,15
 381 -17 381 -17 257.5 61 c 128,-1,16
 134 139 134 139 134 306 c 1,17,-1
 250 314 l 1,18,19
 250 204 250 204 326 144.5 c 128,-1,20
 402 85 402 85 523 85 c 0,21,22
 674 85 674 85 741 159 c 128,-1,23
 808 233 808 233 808 365 c 0,24,25
 808 486 808 486 740 559.5 c 128,-1,26
 672 633 672 633 541 633 c 0,27,28
 423 633 423 633 358.5 592.5 c 128,-1,29
 294 552 294 552 262 490 c 1,30,-1
 162 503 l 1,31,-1
 220 974 l 1,32,-1
 46 974 l 1,0,-1
EndSplineSet
EndChar

StartChar: glottalstopbarinv
Encoding: 446 446 210
Width: 986
Flags: W
LayerCount: 2
Fore
SplineSet
904 282 m 0,0,1
 904 148 904 148 794 64 c 128,-1,2
 684 -20 684 -20 505 -20 c 0,3,4
 299 -20 299 -20 190 78.5 c 128,-1,5
 81 177 81 177 81 304 c 1,6,-1
 201 304 l 1,7,8
 208 176 208 176 305 129 c 128,-1,9
 402 82 402 82 505 82 c 0,10,11
 642 82 642 82 713 141 c 128,-1,12
 784 200 784 200 784 276 c 0,13,14
 784 362 784 362 725.5 404.5 c 128,-1,15
 667 447 667 447 590.5 486 c 128,-1,16
 514 525 514 525 455.5 595.5 c 128,-1,17
 397 666 397 666 397 808 c 2,18,-1
 397 984 l 1,19,-1
 199 984 l 1,20,-1
 199 1082 l 1,21,-1
 397 1082 l 1,22,-1
 397 1360 l 1,23,-1
 517 1360 l 1,24,-1
 517 1082 l 1,25,-1
 741 1082 l 1,26,-1
 741 984 l 1,27,-1
 517 984 l 1,28,-1
 517 812 l 2,29,30
 517 713 517 713 556 658 c 128,-1,31
 595 603 595 603 652.5 569.5 c 128,-1,32
 710 536 710 536 768 504 c 128,-1,33
 826 472 826 472 865 422 c 128,-1,34
 904 372 904 372 904 282 c 0,0,1
EndSplineSet
EndChar

StartChar: wynn
Encoding: 447 447 211
Width: 1135
Flags: W
LayerCount: 2
Fore
SplineSet
1027 563 m 2,0,1
 1027 271 1027 271 820.5 122.5 c 128,-1,2
 614 -26 614 -26 275 -104 c 1,3,-1
 275 -416 l 1,4,-1
 155 -416 l 1,5,-1
 155 1082 l 1,6,-1
 266 1082 l 1,7,-1
 273 929 l 1,8,9
 327 1010 327 1010 411.5 1056 c 128,-1,10
 496 1102 496 1102 612 1102 c 0,11,12
 810 1102 810 1102 918.5 962.5 c 128,-1,13
 1027 823 1027 823 1027 584 c 2,14,-1
 1027 563 l 2,0,1
585 998 m 0,15,16
 456 998 456 998 383 935.5 c 128,-1,17
 310 873 310 873 275 792 c 1,18,-1
 275 -3 l 1,19,20
 550 55 550 55 728.5 186 c 128,-1,21
 907 317 907 317 907 563 c 2,22,-1
 907 584 l 2,23,24
 907 761 907 761 828.5 879.5 c 128,-1,25
 750 998 750 998 585 998 c 0,15,16
EndSplineSet
EndChar

StartChar: pipe
Encoding: 448 448 212
Width: 528
Flags: W
LayerCount: 2
Fore
SplineSet
315 1456 m 1,0,-1
 315 0 l 1,1,-1
 213 0 l 1,2,-1
 213 1456 l 1,3,-1
 315 1456 l 1,0,-1
EndSplineSet
EndChar

StartChar: uni01C5
Encoding: 453 453 217
Width: 2173
Flags: W
LayerCount: 2
Fore
SplineSet
1517 1494 m 1,0,-1
 1683 1326 l 1,1,-1
 1850 1494 l 1,2,-1
 1965 1494 l 1,3,-1
 1965 1477 l 1,4,-1
 1732 1252 l 1,5,-1
 1634 1252 l 1,6,-1
 1402 1477 l 1,7,-1
 1402 1494 l 1,8,-1
 1517 1494 l 1,0,-1
185 0 m 1,9,-1
 185 1456 l 1,10,-1
 592 1456 l 2,11,12
 864 1456 864 1456 1038.5 1275 c 128,-1,13
 1213 1094 1213 1094 1213 795 c 2,14,-1
 1213 661 l 2,15,16
 1213 361 1213 361 1038.5 180.5 c 128,-1,17
 864 0 864 0 583 0 c 2,18,-1
 185 0 l 1,9,-1
592 1351 m 2,19,-1
 308 1351 l 1,20,-1
 308 104 l 1,21,-1
 583 104 l 2,22,23
 817 104 817 104 954 258.5 c 128,-1,24
 1091 413 1091 413 1091 661 c 2,25,-1
 1091 797 l 2,26,27
 1091 1049 1091 1049 954 1200 c 128,-1,28
 817 1351 817 1351 592 1351 c 2,19,-1
1284 979 m 1,29,-1
 1284 1082 l 1,30,-1
 2071 1082 l 1,31,-1
 2071 994 l 1,32,-1
 1413 102 l 1,33,-1
 2115 102 l 1,34,-1
 2115 0 l 1,35,-1
 1264 0 l 1,36,-1
 1264 89 l 1,37,-1
 1919 979 l 1,38,-1
 1284 979 l 1,29,-1
EndSplineSet
EndChar

StartChar: uni01C6
Encoding: 454 454 218
Width: 1967
Flags: W
LayerCount: 2
Fore
SplineSet
872 0 m 1,0,-1
 864 146 l 1,1,2
 810 69 810 69 725.5 24 c 128,-1,3
 641 -21 641 -21 524 -21 c 0,4,5
 333 -21 333 -21 221 133.5 c 128,-1,6
 109 288 109 288 109 530 c 2,7,-1
 109 551 l 2,8,9
 109 803 109 803 221 952.5 c 128,-1,10
 333 1102 333 1102 526 1102 c 0,11,12
 641 1102 641 1102 723.5 1057 c 128,-1,13
 806 1012 806 1012 860 931 c 1,14,-1
 860 1560 l 1,15,-1
 980 1560 l 1,16,-1
 980 0 l 1,17,-1
 872 0 l 1,0,-1
1311 1494 m 1,18,-1
 1477 1326 l 1,19,-1
 1644 1494 l 1,20,-1
 1758 1494 l 1,21,-1
 1758 1477 l 1,22,-1
 1525 1252 l 1,23,-1
 1428 1252 l 1,24,-1
 1196 1477 l 1,25,-1
 1196 1494 l 1,26,-1
 1311 1494 l 1,18,-1
1077 979 m 1,27,-1
 1077 1082 l 1,28,-1
 1864 1082 l 1,29,-1
 1864 994 l 1,30,-1
 1206 102 l 1,31,-1
 1908 102 l 1,32,-1
 1908 0 l 1,33,-1
 1058 0 l 1,34,-1
 1058 89 l 1,35,-1
 1713 979 l 1,36,-1
 1077 979 l 1,27,-1
229 530 m 2,37,38
 229 341 229 341 306.5 212.5 c 128,-1,39
 384 84 384 84 547 84 c 0,40,41
 669 84 669 84 744.5 139.5 c 128,-1,42
 820 195 820 195 860 279 c 1,43,-1
 860 790 l 1,44,45
 825 872 825 872 752 935 c 128,-1,46
 679 998 679 998 549 998 c 0,47,48
 384 998 384 998 306.5 869 c 128,-1,49
 229 740 229 740 229 551 c 2,50,-1
 229 530 l 2,37,38
EndSplineSet
EndChar

StartChar: Gbar
Encoding: 484 484 219
Width: 1401
GlyphClass: 2
Flags: W
AnchorPoint: "Anchor-5" 1401 1633 basechar 0
AnchorPoint: "Anchor-1" 702 -5 basechar 0
AnchorPoint: "Anchor-0" 687 1633 basechar 0
LayerCount: 2
Fore
SplineSet
1235 174 m 1,0,1
 1197 119 1197 119 1077.5 49.5 c 128,-1,2
 958 -20 958 -20 729 -20 c 0,3,4
 472 -20 472 -20 308.5 160 c 128,-1,5
 145 340 145 340 145 645 c 2,6,-1
 145 822 l 2,7,8
 145 1122 145 1122 296.5 1299 c 128,-1,9
 448 1476 448 1476 710 1476 c 0,10,11
 953 1476 953 1476 1081.5 1353 c 128,-1,12
 1210 1230 1210 1230 1234 1046 c 1,13,-1
 1111 1046 l 1,14,15
 1089 1176 1089 1176 998 1273.5 c 128,-1,16
 907 1371 907 1371 710 1371 c 0,17,18
 497 1371 497 1371 383 1220.5 c 128,-1,19
 269 1070 269 1070 269 824 c 2,20,-1
 269 645 l 2,21,22
 269 391 269 391 395.5 237.5 c 128,-1,23
 522 84 522 84 730 84 c 0,24,25
 896 84 896 84 989 128.5 c 128,-1,26
 1082 173 1082 173 1113 211 c 1,27,-1
 1113 356 l 1,28,-1
 798 356 l 1,29,-1
 798 458 l 1,30,-1
 1113 458 l 1,31,-1
 1113 587 l 1,32,-1
 722 587 l 1,33,-1
 722 692 l 1,34,-1
 1235 692 l 1,35,-1
 1235 458 l 1,36,-1
 1409 458 l 1,37,-1
 1409 356 l 1,38,-1
 1235 356 l 1,39,-1
 1235 174 l 1,0,1
EndSplineSet
EndChar

StartChar: gbar
Encoding: 485 485 220
Width: 1137
GlyphClass: 2
Flags: W
AnchorPoint: "Anchor-9" 587 -125 basechar 0
AnchorPoint: "Anchor-5" 1137 1290 basechar 0
AnchorPoint: "Anchor-1" 560 -465 basechar 0
AnchorPoint: "Anchor-0" 568 1290 basechar 0
LayerCount: 2
Fore
SplineSet
1143 -163 m 1,0,-1
 967 -163 l 1,1,2
 929 -306 929 -306 820 -384.5 c 128,-1,3
 711 -463 711 -463 553 -463 c 0,4,5
 452 -463 452 -463 346.5 -417 c 128,-1,6
 241 -371 241 -371 175 -278 c 1,7,-1
 243 -206 l 1,8,9
 369 -362 369 -362 545 -362 c 0,10,11
 778 -362 778 -362 844 -163 c 1,12,-1
 36 -163 l 1,13,-1
 36 -79 l 1,14,-1
 863 -79 l 1,15,16
 866 -49 866 -49 866 -17 c 2,17,-1
 866 141 l 1,18,19
 812 66 812 66 729 23 c 128,-1,20
 646 -20 646 -20 531 -20 c 0,21,22
 338 -20 338 -20 226.5 134 c 128,-1,23
 115 288 115 288 115 530 c 2,24,-1
 115 551 l 2,25,26
 115 803 115 803 226 952.5 c 128,-1,27
 337 1102 337 1102 533 1102 c 0,28,29
 649 1102 649 1102 732.5 1055.5 c 128,-1,30
 816 1009 816 1009 869 927 c 1,31,-1
 875 1082 l 1,32,-1
 986 1082 l 1,33,-1
 986 -12 l 2,34,35
 986 -47 986 -47 983 -79 c 1,36,-1
 1143 -79 l 1,37,-1
 1143 -163 l 1,0,-1
235 530 m 2,38,39
 235 341 235 341 312.5 212.5 c 128,-1,40
 390 84 390 84 553 84 c 0,41,42
 676 84 676 84 751.5 140.5 c 128,-1,43
 827 197 827 197 866 283 c 1,44,-1
 866 786 l 1,45,46
 832 869 832 869 759.5 933.5 c 128,-1,47
 687 998 687 998 555 998 c 0,48,49
 390 998 390 998 312.5 869 c 128,-1,50
 235 740 235 740 235 551 c 2,51,-1
 235 530 l 2,38,39
EndSplineSet
EndChar

StartChar: uni01EF
Encoding: 495 495 222
Width: 1179
Flags: W
LayerCount: 2
Fore
SplineSet
395 1494 m 1,0,-1
 561 1326 l 1,1,-1
 728 1494 l 1,2,-1
 842 1494 l 1,3,-1
 842 1477 l 1,4,-1
 610 1252 l 1,5,-1
 512 1252 l 1,6,-1
 280 1477 l 1,7,-1
 280 1494 l 1,8,-1
 395 1494 l 1,0,-1
544 366 m 2,9,-1
 438 366 l 1,10,-1
 438 468 l 1,11,-1
 868 979 l 1,12,-1
 146 979 l 1,13,-1
 146 1082 l 1,14,-1
 1015 1082 l 1,15,-1
 1017 990 l 1,16,-1
 579 461 l 1,17,18
 796 454 796 454 916 340.5 c 128,-1,19
 1036 227 1036 227 1036 21 c 0,20,21
 1036 -177 1036 -177 905 -286 c 128,-1,22
 774 -395 774 -395 574 -395 c 0,23,24
 462 -395 462 -395 356 -350.5 c 128,-1,25
 250 -306 250 -306 182 -212 c 128,-1,26
 114 -118 114 -118 114 29 c 1,27,-1
 235 29 l 1,28,29
 235 -108 235 -108 328 -200.5 c 128,-1,30
 421 -293 421 -293 574 -293 c 0,31,32
 738 -293 738 -293 827 -208 c 128,-1,33
 916 -123 916 -123 916 17 c 0,34,35
 916 203 916 203 816 284.5 c 128,-1,36
 716 366 716 366 544 366 c 2,9,-1
EndSplineSet
EndChar

StartChar: uni01F6
Encoding: 502 502 223
Width: 2272
Flags: W
LayerCount: 2
Fore
SplineSet
1140 1456 m 1,0,-1
 1263 1456 l 1,1,-1
 1263 427 l 2,2,3
 1263 261 1263 261 1362.5 174 c 128,-1,4
 1462 87 1462 87 1622 87 c 0,5,6
 1784 87 1784 87 1882.5 174 c 128,-1,7
 1981 261 1981 261 1981 427 c 2,8,-1
 1981 1082 l 1,9,-1
 2105 1082 l 1,10,-1
 2105 427 l 2,11,12
 2105 209 2105 209 1965.5 95.5 c 128,-1,13
 1826 -18 1826 -18 1622 -18 c 0,14,15
 1412 -18 1412 -18 1276 95.5 c 128,-1,16
 1140 209 1140 209 1140 427 c 2,17,-1
 1140 698 l 1,18,-1
 308 698 l 1,19,-1
 308 0 l 1,20,-1
 185 0 l 1,21,-1
 185 1456 l 1,22,-1
 308 1456 l 1,23,-1
 308 803 l 1,24,-1
 1140 803 l 1,25,-1
 1140 1456 l 1,0,-1
EndSplineSet
EndChar

StartChar: uni01F7
Encoding: 503 503 224
Width: 1364
Flags: W
LayerCount: 2
Fore
SplineSet
1236 824 m 2,0,1
 1236 582 1236 582 1118 395 c 128,-1,2
 1000 208 1000 208 791 82 c 128,-1,3
 582 -44 582 -44 308 -101 c 1,4,-1
 308 -428 l 1,5,-1
 185 -428 l 1,6,-1
 185 1456 l 1,7,-1
 308 1456 l 1,8,-1
 308 1311 l 1,9,10
 424 1476 424 1476 680 1476 c 0,11,12
 935 1476 935 1476 1085.5 1327.5 c 128,-1,13
 1236 1179 1236 1179 1236 884 c 2,14,-1
 1236 824 l 2,0,1
680 1371 m 0,15,16
 533 1371 533 1371 442 1311 c 128,-1,17
 351 1251 351 1251 308 1140 c 1,18,-1
 308 4 l 1,19,20
 680 85 680 85 897 304 c 128,-1,21
 1114 523 1114 523 1114 824 c 2,22,-1
 1114 886 l 2,23,24
 1114 1134 1114 1134 999 1252.5 c 128,-1,25
 884 1371 884 1371 680 1371 c 0,15,16
EndSplineSet
EndChar

StartChar: uni021C
Encoding: 540 540 225
Width: 1229
Flags: W
LayerCount: 2
Fore
SplineSet
1121 335 m 0,0,1
 1121 108 1121 108 1006.5 -36.5 c 128,-1,2
 892 -181 892 -181 687 -273.5 c 128,-1,3
 482 -366 482 -366 212 -437 c 1,4,-1
 212 -330 l 1,5,6
 577 -232 577 -232 787.5 -89 c 128,-1,7
 998 54 998 54 998 336 c 0,8,9
 998 466 998 466 953 536.5 c 128,-1,10
 908 607 908 607 840 634 c 1,11,12
 729 561 729 561 571.5 496.5 c 128,-1,13
 414 432 414 432 212 366 c 1,14,-1
 211 465 l 1,15,16
 452 552 452 552 623 626.5 c 128,-1,17
 794 701 794 701 884.5 801.5 c 128,-1,18
 975 902 975 902 975 1065 c 0,19,20
 975 1198 975 1198 884.5 1285 c 128,-1,21
 794 1372 794 1372 594 1372 c 0,22,23
 446 1372 446 1372 338 1291 c 128,-1,24
 230 1210 230 1210 230 1074 c 1,25,-1
 107 1074 l 1,26,27
 107 1260 107 1260 252.5 1368 c 128,-1,28
 398 1476 398 1476 594 1476 c 0,29,30
 825 1476 825 1476 961.5 1372 c 128,-1,31
 1098 1268 1098 1268 1098 1063 c 0,32,33
 1098 848 1098 848 927 699 c 1,34,35
 1016 659 1016 659 1068.5 571.5 c 128,-1,36
 1121 484 1121 484 1121 335 c 0,0,1
EndSplineSet
EndChar

StartChar: uni021D
Encoding: 541 541 226
Width: 1029
Flags: W
LayerCount: 2
Fore
SplineSet
920 201 m 0,0,1
 920 -51 920 -51 728 -207.5 c 128,-1,2
 536 -364 536 -364 175 -437 c 1,3,-1
 175 -334 l 1,4,5
 475 -261 475 -261 637 -132.5 c 128,-1,6
 799 -4 799 -4 799 199 c 0,7,8
 799 389 799 389 675 442 c 1,9,10
 583 386 583 386 457 338.5 c 128,-1,11
 331 291 331 291 175 246 c 1,12,-1
 174 343 l 1,13,14
 328 393 328 393 466.5 446.5 c 128,-1,15
 605 500 605 500 692.5 580.5 c 128,-1,16
 780 661 780 661 780 792 c 0,17,18
 780 878 780 878 717 939.5 c 128,-1,19
 654 1001 654 1001 506 1001 c 0,20,21
 393 1001 393 1001 309.5 942 c 128,-1,22
 226 883 226 883 226 790 c 1,23,-1
 106 790 l 1,24,25
 106 933 106 933 226 1017.5 c 128,-1,26
 346 1102 346 1102 506 1102 c 0,27,28
 690 1102 690 1102 795.5 1022.5 c 128,-1,29
 901 943 901 943 901 792 c 0,30,31
 901 622 901 622 758 502 c 1,32,33
 920 424 920 424 920 201 c 0,0,1
EndSplineSet
EndChar

StartChar: uni0220
Encoding: 544 544 227
Width: 1332
Flags: W
LayerCount: 2
Fore
SplineSet
1170 1032 m 2,0,-1
 1170 -428 l 1,1,-1
 1050 -428 l 1,2,-1
 1050 1032 l 2,3,4
 1050 1198 1050 1198 945 1285.5 c 128,-1,5
 840 1373 840 1373 677 1373 c 0,6,7
 561 1373 561 1373 466 1339.5 c 128,-1,8
 371 1306 371 1306 304 1251 c 1,9,-1
 304 0 l 1,10,-1
 185 0 l 1,11,-1
 185 1456 l 1,12,-1
 304 1456 l 1,13,-1
 304 1360 l 1,14,15
 368 1407 368 1407 464 1441.5 c 128,-1,16
 560 1476 560 1476 677 1476 c 0,17,18
 880 1476 880 1476 1025 1363 c 128,-1,19
 1170 1250 1170 1250 1170 1032 c 2,0,-1
EndSplineSet
EndChar

StartChar: uni0221
Encoding: 545 545 228
Width: 1443
Flags: W
LayerCount: 2
Fore
SplineSet
860 1536 m 1,0,-1
 980 1536 l 1,1,-1
 980 -4 l 1,2,3
 1070 52 1070 52 1166 52 c 0,4,5
 1270 52 1270 52 1341.5 -9 c 128,-1,6
 1413 -70 1413 -70 1413 -189 c 0,7,8
 1413 -292 1413 -292 1344 -364.5 c 128,-1,9
 1275 -437 1275 -437 1151 -437 c 0,10,11
 1032 -437 1032 -437 964.5 -385.5 c 128,-1,12
 897 -334 897 -334 874 -245 c 1,13,-1
 758 -398 l 1,14,-1
 681 -328 l 1,15,-1
 860 -103 l 1,16,-1
 860 141 l 1,17,18
 806 66 806 66 722.5 23 c 128,-1,19
 639 -20 639 -20 524 -20 c 0,20,21
 333 -20 333 -20 221 134 c 128,-1,22
 109 288 109 288 109 530 c 2,23,-1
 109 551 l 2,24,25
 109 803 109 803 221 952.5 c 128,-1,26
 333 1102 333 1102 526 1102 c 0,27,28
 641 1102 641 1102 723.5 1057 c 128,-1,29
 806 1012 806 1012 860 931 c 1,30,-1
 860 1536 l 1,0,-1
229 530 m 2,31,32
 229 341 229 341 306.5 212.5 c 128,-1,33
 384 84 384 84 547 84 c 0,34,35
 669 84 669 84 744.5 139.5 c 128,-1,36
 820 195 820 195 860 279 c 1,37,-1
 860 790 l 1,38,39
 825 872 825 872 752 935 c 128,-1,40
 679 998 679 998 549 998 c 0,41,42
 384 998 384 998 306.5 869 c 128,-1,43
 229 740 229 740 229 551 c 2,44,-1
 229 530 l 2,31,32
980 -153 m 2,45,46
 980 -236 980 -236 1017.5 -285.5 c 128,-1,47
 1055 -335 1055 -335 1152 -335 c 0,48,49
 1220 -335 1220 -335 1256.5 -292.5 c 128,-1,50
 1293 -250 1293 -250 1293 -189 c 256,51,52
 1293 -128 1293 -128 1254.5 -89 c 128,-1,53
 1216 -50 1216 -50 1149 -50 c 0,54,55
 1064 -50 1064 -50 980 -126 c 1,56,-1
 980 -153 l 2,45,46
EndSplineSet
EndChar

StartChar: uni0222
Encoding: 546 546 229
Width: 1390
Flags: W
LayerCount: 2
Fore
SplineSet
1257 425 m 0,0,1
 1257 204 1257 204 1101.5 92 c 128,-1,2
 946 -20 946 -20 710 -20 c 2,3,-1
 677 -20 l 2,4,5
 441 -20 441 -20 286 92 c 128,-1,6
 131 204 131 204 131 423 c 0,7,8
 131 567 131 567 203 664.5 c 128,-1,9
 275 762 275 762 397 811 c 1,10,11
 276 847 276 847 203.5 925 c 128,-1,12
 131 1003 131 1003 131 1135 c 0,13,14
 131 1302 131 1302 237.5 1385 c 128,-1,15
 344 1468 344 1468 501 1476 c 1,16,-1
 501 1376 l 1,17,18
 253 1343 253 1343 253 1135 c 0,19,20
 253 978 253 978 376.5 925 c 128,-1,21
 500 872 500 872 673 872 c 2,22,-1
 715 872 l 2,23,24
 887 872 887 872 1010.5 925 c 128,-1,25
 1134 978 1134 978 1134 1135 c 0,26,27
 1134 1343 1134 1343 887 1376 c 1,28,-1
 887 1476 l 1,29,30
 1044 1468 1044 1468 1150.5 1385 c 128,-1,31
 1257 1302 1257 1302 1257 1135 c 0,32,33
 1257 1003 1257 1003 1184 924.5 c 128,-1,34
 1111 846 1111 846 991 811 c 1,35,36
 1113 762 1113 762 1185 665 c 128,-1,37
 1257 568 1257 568 1257 425 c 0,0,1
710 764 m 2,38,-1
 677 764 l 2,39,40
 501 764 501 764 377.5 681.5 c 128,-1,41
 254 599 254 599 254 423 c 0,42,43
 254 248 254 248 377.5 167.5 c 128,-1,44
 501 87 501 87 677 87 c 2,45,-1
 710 87 l 2,46,47
 887 87 887 87 1010.5 167.5 c 128,-1,48
 1134 248 1134 248 1134 425 c 0,49,50
 1134 600 1134 600 1010.5 682 c 128,-1,51
 887 764 887 764 710 764 c 2,38,-1
EndSplineSet
EndChar

StartChar: uni0223
Encoding: 547 547 230
Width: 1371
Flags: W
LayerCount: 2
Fore
SplineSet
1247 421 m 0,0,1
 1247 204 1247 204 1092 92 c 128,-1,2
 937 -20 937 -20 701 -20 c 2,3,-1
 669 -20 l 2,4,5
 433 -20 433 -20 278.5 91.5 c 128,-1,6
 124 203 124 203 124 419 c 0,7,8
 124 565 124 565 198 662.5 c 128,-1,9
 272 760 272 760 398 807 c 1,10,11
 274 847 274 847 199 935.5 c 128,-1,12
 124 1024 124 1024 124 1169 c 0,13,14
 124 1340 124 1340 228 1445 c 128,-1,15
 332 1550 332 1550 508 1557 c 1,16,-1
 508 1460 l 1,17,18
 244 1418 244 1418 244 1169 c 0,19,20
 244 994 244 994 368 928 c 128,-1,21
 492 862 492 862 664 862 c 2,22,-1
 706 862 l 2,23,24
 879 862 879 862 1003 928 c 128,-1,25
 1127 994 1127 994 1127 1170 c 0,26,27
 1127 1286 1127 1286 1066.5 1362 c 128,-1,28
 1006 1438 1006 1438 878 1460 c 1,29,-1
 878 1557 l 1,30,31
 1043 1549 1043 1549 1145 1445.5 c 128,-1,32
 1247 1342 1247 1342 1247 1170 c 0,33,34
 1247 1024 1247 1024 1172 936 c 128,-1,35
 1097 848 1097 848 973 807 c 1,36,37
 1098 760 1098 760 1172.5 663 c 128,-1,38
 1247 566 1247 566 1247 421 c 0,0,1
701 760 m 2,39,-1
 669 760 l 2,40,41
 494 760 494 760 369 676.5 c 128,-1,42
 244 593 244 593 244 419 c 0,43,44
 244 246 244 246 369 163.5 c 128,-1,45
 494 81 494 81 669 81 c 2,46,-1
 701 81 l 2,47,48
 879 81 879 81 1003 164 c 128,-1,49
 1127 247 1127 247 1127 421 c 0,50,51
 1127 594 1127 594 1003 677 c 128,-1,52
 879 760 879 760 701 760 c 2,39,-1
EndSplineSet
EndChar

StartChar: uni0224
Encoding: 548 548 231
Width: 1238
Flags: W
LayerCount: 2
Fore
SplineSet
117 1352 m 1,0,-1
 117 1456 l 1,1,-1
 1106 1456 l 1,2,-1
 1106 1368 l 1,3,-1
 239 104 l 1,4,-1
 829 104 l 2,5,6
 1177 104 1177 104 1177 -182 c 0,7,8
 1177 -239 1177 -239 1159 -296 c 1,9,-1
 1056 -289 l 1,10,11
 1070 -254 1070 -254 1070 -206 c 0,12,13
 1070 0 1070 0 829 0 c 2,14,-1
 90 0 l 1,15,-1
 90 93 l 1,16,-1
 956 1352 l 1,17,-1
 117 1352 l 1,0,-1
EndSplineSet
EndChar

StartChar: uni0225
Encoding: 549 549 232
Width: 1014
Flags: W
LayerCount: 2
Fore
SplineSet
894 994 m 1,0,-1
 237 102 l 1,1,-1
 620 102 l 2,2,3
 968 102 968 102 968 -169 c 0,4,5
 968 -224 968 -224 950 -283 c 1,6,-1
 850 -276 l 1,7,8
 864 -239 864 -239 864 -192 c 0,9,10
 864 0 864 0 620 0 c 2,11,-1
 88 0 l 1,12,-1
 88 89 l 1,13,-1
 743 979 l 1,14,-1
 108 979 l 1,15,-1
 108 1082 l 1,16,-1
 894 1082 l 1,17,-1
 894 994 l 1,0,-1
EndSplineSet
EndChar

StartChar: uni0234
Encoding: 564 564 233
Width: 782
Flags: W
LayerCount: 2
Fore
SplineSet
199 1536 m 1,0,-1
 319 1536 l 1,1,-1
 319 -3 l 1,2,3
 409 52 409 52 505 52 c 0,4,5
 608 52 608 52 680 -9 c 128,-1,6
 752 -70 752 -70 752 -189 c 0,7,8
 752 -292 752 -292 683 -364.5 c 128,-1,9
 614 -437 614 -437 490 -437 c 0,10,11
 371 -437 371 -437 303.5 -385.5 c 128,-1,12
 236 -334 236 -334 213 -245 c 1,13,-1
 97 -398 l 1,14,-1
 20 -328 l 1,15,-1
 199 -103 l 1,16,-1
 199 1536 l 1,0,-1
319 -153 m 2,17,18
 319 -236 319 -236 356.5 -285.5 c 128,-1,19
 394 -335 394 -335 491 -335 c 0,20,21
 559 -335 559 -335 595.5 -292.5 c 128,-1,22
 632 -250 632 -250 632 -189 c 256,23,24
 632 -128 632 -128 594 -89 c 128,-1,25
 556 -50 556 -50 488 -50 c 0,26,27
 403 -50 403 -50 319 -126 c 1,28,-1
 319 -153 l 2,17,18
EndSplineSet
EndChar

StartChar: uni0235
Encoding: 565 565 234
Width: 1436
Flags: W
LayerCount: 2
Fore
SplineSet
628 1102 m 0,0,1
 789 1102 789 1102 881 1010.5 c 128,-1,2
 973 919 973 919 973 705 c 2,3,-1
 973 -4 l 1,4,5
 1063 52 1063 52 1159 52 c 0,6,7
 1262 52 1262 52 1334 -9 c 128,-1,8
 1406 -70 1406 -70 1406 -189 c 0,9,10
 1406 -292 1406 -292 1337 -364.5 c 128,-1,11
 1268 -437 1268 -437 1144 -437 c 0,12,13
 1025 -437 1025 -437 957.5 -385.5 c 128,-1,14
 890 -334 890 -334 867 -245 c 1,15,-1
 752 -398 l 1,16,-1
 674 -328 l 1,17,-1
 853 -103 l 1,18,-1
 853 705 l 2,19,20
 853 873 853 873 784.5 936 c 128,-1,21
 716 999 716 999 598 999 c 0,22,23
 472 999 472 999 391.5 920.5 c 128,-1,24
 311 842 311 842 276 744 c 1,25,-1
 276 0 l 1,26,-1
 156 0 l 1,27,-1
 156 1082 l 1,28,-1
 271 1082 l 1,29,-1
 275 899 l 1,30,31
 331 991 331 991 421.5 1046.5 c 128,-1,32
 512 1102 512 1102 628 1102 c 0,0,1
973 -153 m 2,33,34
 973 -236 973 -236 1010.5 -285.5 c 128,-1,35
 1048 -335 1048 -335 1145 -335 c 0,36,37
 1213 -335 1213 -335 1249.5 -292.5 c 128,-1,38
 1286 -250 1286 -250 1286 -189 c 256,39,40
 1286 -128 1286 -128 1248 -89 c 128,-1,41
 1210 -50 1210 -50 1143 -50 c 0,42,43
 1058 -50 1058 -50 973 -126 c 1,44,-1
 973 -153 l 2,33,34
EndSplineSet
EndChar

StartChar: uni0236
Encoding: 566 566 235
Width: 815
Flags: W
LayerCount: 2
Fore
SplineSet
785 228 m 0,0,1
 785 124 785 124 716 52 c 128,-1,2
 647 -20 647 -20 523 -20 c 0,3,4
 404 -20 404 -20 336.5 31.5 c 128,-1,5
 269 83 269 83 246 173 c 1,6,-1
 131 19 l 1,7,-1
 54 89 l 1,8,-1
 233 315 l 1,9,-1
 233 984 l 1,10,-1
 34 984 l 1,11,-1
 34 1082 l 1,12,-1
 233 1082 l 1,13,-1
 233 1360 l 1,14,-1
 353 1360 l 1,15,-1
 353 1082 l 1,16,-1
 577 1082 l 1,17,-1
 577 984 l 1,18,-1
 353 984 l 1,19,-1
 353 415 l 1,20,21
 444 469 444 469 538 469 c 0,22,23
 642 469 642 469 713.5 407.5 c 128,-1,24
 785 346 785 346 785 228 c 0,0,1
353 264 m 2,25,26
 353 181 353 181 390 131.5 c 128,-1,27
 427 82 427 82 524 82 c 0,28,29
 592 82 592 82 628.5 124 c 128,-1,30
 665 166 665 166 665 228 c 256,31,32
 665 290 665 290 627.5 328.5 c 128,-1,33
 590 367 590 367 522 367 c 0,34,35
 437 367 437 367 353 292 c 1,36,-1
 353 264 l 2,25,26
EndSplineSet
EndChar

StartChar: uni0237
Encoding: 567 567 236
Width: 469
GlyphClass: 2
Flags: W
AnchorPoint: "Anchor-5" 469 1249 basechar 0
AnchorPoint: "Anchor-0" 237 1249 basechar 0
LayerCount: 2
Fore
SplineSet
179 1082 m 1,0,-1
 299 1082 l 1,1,-1
 299 -89 l 2,2,3
 299 -258 299 -258 218.5 -347.5 c 128,-1,4
 138 -437 138 -437 -5 -437 c 0,5,6
 -60 -437 -60 -437 -117 -418 c 1,7,-1
 -103 -320 l 1,8,9
 -88 -326 -88 -326 -57 -330.5 c 128,-1,10
 -26 -335 -26 -335 -5 -335 c 0,11,12
 179 -335 179 -335 179 -89 c 2,13,-1
 179 1082 l 1,0,-1
EndSplineSet
EndChar

StartChar: uni0238
Encoding: 568 568 237
Width: 1841
Flags: W
LayerCount: 2
Fore
SplineSet
1733 530 m 2,0,1
 1733 288 1733 288 1624.5 134 c 128,-1,2
 1516 -20 1516 -20 1320 -20 c 0,3,4
 1203 -20 1203 -20 1118.5 24.5 c 128,-1,5
 1034 69 1034 69 980 146 c 1,6,-1
 980 0 l 1,7,-1
 868 0 l 1,8,-1
 862 145 l 1,9,10
 809 68 809 68 725 24 c 128,-1,11
 641 -20 641 -20 524 -20 c 0,12,13
 333 -20 333 -20 221 134 c 128,-1,14
 109 288 109 288 109 530 c 2,15,-1
 109 551 l 2,16,17
 109 803 109 803 221 952.5 c 128,-1,18
 333 1102 333 1102 526 1102 c 0,19,20
 641 1102 641 1102 723.5 1057 c 128,-1,21
 806 1012 806 1012 860 931 c 1,22,-1
 860 1536 l 1,23,-1
 980 1536 l 1,24,-1
 980 926 l 1,25,26
 1034 1009 1034 1009 1117.5 1055.5 c 128,-1,27
 1201 1102 1201 1102 1318 1102 c 0,28,29
 1516 1102 1516 1102 1624.5 952.5 c 128,-1,30
 1733 803 1733 803 1733 551 c 2,31,-1
 1733 530 l 2,0,1
1295 998 m 0,32,33
 1160 998 1160 998 1086.5 930.5 c 128,-1,34
 1013 863 1013 863 980 777 c 1,35,-1
 980 288 l 1,36,37
 1017 202 1017 202 1095 143 c 128,-1,38
 1173 84 1173 84 1297 84 c 0,39,40
 1460 84 1460 84 1536 212.5 c 128,-1,41
 1612 341 1612 341 1612 530 c 2,42,-1
 1612 551 l 2,43,44
 1612 740 1612 740 1537.5 869 c 128,-1,45
 1463 998 1463 998 1295 998 c 0,32,33
229 530 m 2,46,47
 229 341 229 341 306.5 212.5 c 128,-1,48
 384 84 384 84 547 84 c 0,49,50
 669 84 669 84 744.5 139.5 c 128,-1,51
 820 195 820 195 860 279 c 1,52,-1
 860 790 l 1,53,54
 825 872 825 872 752 935 c 128,-1,55
 679 998 679 998 549 998 c 0,56,57
 384 998 384 998 306.5 869 c 128,-1,58
 229 740 229 740 229 551 c 2,59,-1
 229 530 l 2,46,47
EndSplineSet
EndChar

StartChar: uni0239
Encoding: 569 569 238
Width: 1840
Flags: W
LayerCount: 2
Fore
SplineSet
1319 -20 m 0,0,1
 1204 -20 1204 -20 1119 22 c 128,-1,2
 1034 64 1034 64 979 138 c 1,3,-1
 979 -416 l 1,4,-1
 860 -416 l 1,5,-1
 860 134 l 1,6,7
 805 62 805 62 722 21 c 128,-1,8
 639 -20 639 -20 526 -20 c 0,9,10
 330 -20 330 -20 219.5 134 c 128,-1,11
 109 288 109 288 109 530 c 2,12,-1
 109 551 l 2,13,14
 109 803 109 803 219.5 952.5 c 128,-1,15
 330 1102 330 1102 528 1102 c 0,16,17
 641 1102 641 1102 724 1058 c 128,-1,18
 807 1014 807 1014 862 936 c 1,19,-1
 867 1082 l 1,20,-1
 972 1082 l 1,21,-1
 977 928 l 1,22,23
 1032 1010 1032 1010 1116.5 1056 c 128,-1,24
 1201 1102 1201 1102 1317 1102 c 0,25,26
 1515 1102 1515 1102 1623.5 952.5 c 128,-1,27
 1732 803 1732 803 1732 551 c 2,28,-1
 1732 530 l 2,29,30
 1732 288 1732 288 1624 134 c 128,-1,31
 1516 -20 1516 -20 1319 -20 c 0,0,1
229 530 m 2,32,33
 229 341 229 341 307.5 211.5 c 128,-1,34
 386 82 386 82 549 82 c 0,35,36
 668 82 668 82 743.5 135.5 c 128,-1,37
 819 189 819 189 860 270 c 1,38,-1
 860 798 l 1,39,40
 823 877 823 877 749.5 938.5 c 128,-1,41
 676 1000 676 1000 551 1000 c 0,42,43
 386 1000 386 1000 307.5 870 c 128,-1,44
 229 740 229 740 229 551 c 2,45,-1
 229 530 l 2,32,33
1290 998 m 0,46,47
 1160 998 1160 998 1087 934.5 c 128,-1,48
 1014 871 1014 871 979 789 c 1,49,-1
 979 273 l 1,50,51
 1018 190 1018 190 1094 136 c 128,-1,52
 1170 82 1170 82 1292 82 c 0,53,54
 1456 82 1456 82 1534 211.5 c 128,-1,55
 1612 341 1612 341 1612 530 c 2,56,-1
 1612 551 l 2,57,58
 1612 740 1612 740 1533.5 869 c 128,-1,59
 1455 998 1455 998 1290 998 c 0,46,47
EndSplineSet
EndChar

StartChar: uni023A
Encoding: 570 570 239
Width: 1280
Flags: W
LayerCount: 2
Fore
SplineSet
-183 -125 m 1,0,-1
 134 272 l 1,1,-1
 581 1456 l 1,2,-1
 698 1456 l 1,3,-1
 820 1133 l 1,4,-1
 1171 1572 l 1,5,-1
 1284 1572 l 1,6,-1
 857 1036 l 1,7,-1
 1249 0 l 1,8,-1
 1121 0 l 1,9,-1
 971 408 l 1,10,-1
 356 408 l 1,11,-1
 269 299 l 1,12,-1
 159 0 l 1,13,-1
 31 0 l 1,14,-1
 31 1 l 1,15,-1
 -69 -125 l 1,16,-1
 -183 -125 l 1,0,-1
640 1307 m 1,17,-1
 366 563 l 1,18,-1
 741 1033 l 1,19,-1
 640 1307 l 1,17,-1
440 513 m 1,20,-1
 932 513 l 1,21,-1
 777 936 l 1,22,-1
 440 513 l 1,20,-1
EndSplineSet
EndChar

StartChar: uni023B
Encoding: 571 571 240
Width: 1330
Flags: W
LayerCount: 2
Fore
SplineSet
680 -20 m 0,0,1
 558 -20 558 -20 456 26 c 1,2,-1
 398 -125 l 1,3,-1
 303 -125 l 1,4,-1
 378 71 l 1,5,6
 262 153 262 153 197 299 c 128,-1,7
 132 445 132 445 132 637 c 2,8,-1
 132 819 l 2,9,10
 132 1114 132 1114 282.5 1295 c 128,-1,11
 433 1476 433 1476 688 1476 c 0,12,13
 809 1476 809 1476 906 1441 c 1,14,-1
 956 1572 l 1,15,-1
 1051 1572 l 1,16,-1
 986 1403 l 1,17,18
 1187 1284 1187 1284 1215 1001 c 1,19,-1
 1092 1001 l 1,20,21
 1066 1206 1066 1206 945 1297 c 1,22,-1
 495 127 l 1,23,24
 578 84 578 84 680 84 c 0,25,26
 873 84 873 84 971 177 c 128,-1,27
 1069 270 1069 270 1092 454 c 1,28,-1
 1215 454 l 1,29,30
 1192 232 1192 232 1056 106 c 128,-1,31
 920 -20 920 -20 680 -20 c 0,0,1
255 637 m 2,32,33
 255 329 255 329 420 180 c 1,34,-1
 867 1341 l 1,35,36
 790 1371 790 1371 688 1371 c 0,37,38
 486 1371 486 1371 370.5 1219.5 c 128,-1,39
 255 1068 255 1068 255 821 c 2,40,-1
 255 637 l 2,32,33
EndSplineSet
EndChar

StartChar: uni023C
Encoding: 572 572 241
Width: 1056
Flags: W
LayerCount: 2
Fore
SplineSet
557 -20 m 0,0,1
 450 -20 450 -20 363 19 c 1,2,-1
 191 -416 l 1,3,-1
 95 -416 l 1,4,-1
 285 65 l 1,5,6
 191 136 191 136 143 255 c 128,-1,7
 95 374 95 374 95 520 c 2,8,-1
 95 562 l 2,9,10
 95 790 95 790 212 946 c 128,-1,11
 329 1102 329 1102 555 1102 c 0,12,13
 625 1102 625 1102 688 1084 c 1,14,-1
 835 1456 l 1,15,-1
 930 1456 l 1,16,-1
 770 1051 l 1,17,18
 859 1005 859 1005 913 919 c 128,-1,19
 967 833 967 833 972 718 c 1,20,-1
 858 718 l 1,21,22
 849 873 849 873 730 951 c 1,23,-1
 401 116 l 1,24,25
 469 82 469 82 557 82 c 0,26,27
 670 82 670 82 759.5 146.5 c 128,-1,28
 849 211 849 211 858 335 c 1,29,-1
 972 335 l 1,30,31
 964 180 964 180 843 80 c 128,-1,32
 722 -20 722 -20 557 -20 c 0,0,1
214 520 m 2,33,34
 214 417 214 417 240.5 325 c 128,-1,35
 267 233 267 233 327 171 c 1,36,-1
 650 987 l 1,37,38
 605 1000 605 1000 555 1000 c 0,39,40
 370 1000 370 1000 292 867 c 128,-1,41
 214 734 214 734 214 562 c 2,42,-1
 214 520 l 2,33,34
EndSplineSet
EndChar

StartChar: uni023E
Encoding: 574 574 243
Width: 1223
Flags: W
LayerCount: 2
Fore
SplineSet
52 1351 m 1,0,-1
 52 1456 l 1,1,-1
 895 1456 l 1,2,-1
 947 1572 l 1,3,-1
 1045 1572 l 1,4,-1
 993 1456 l 1,5,-1
 1172 1456 l 1,6,-1
 1172 1351 l 1,7,-1
 947 1351 l 1,8,-1
 673 737 l 1,9,-1
 673 0 l 1,10,-1
 551 0 l 1,11,-1
 551 463 l 1,12,-1
 289 -125 l 1,13,-1
 190 -125 l 1,14,-1
 551 684 l 1,15,-1
 551 1351 l 1,16,-1
 52 1351 l 1,0,-1
673 1351 m 1,17,-1
 673 958 l 1,18,-1
 848 1351 l 1,19,-1
 673 1351 l 1,17,-1
EndSplineSet
EndChar

StartChar: uni023F
Encoding: 575 575 244
Width: 1038
Flags: W
LayerCount: 2
Fore
SplineSet
804 276 m 0,0,1
 804 346 804 346 746 406 c 128,-1,2
 688 466 688 466 516 503 c 0,3,4
 335 543 335 543 235.5 608 c 128,-1,5
 136 673 136 673 136 808 c 0,6,7
 136 929 136 929 239 1015.5 c 128,-1,8
 342 1102 342 1102 518 1102 c 0,9,10
 706 1102 706 1102 811.5 1010 c 128,-1,11
 917 918 917 918 917 779 c 1,12,-1
 797 779 l 1,13,14
 797 863 797 863 724.5 931.5 c 128,-1,15
 652 1000 652 1000 518 1000 c 0,16,17
 378 1000 378 1000 317 940 c 128,-1,18
 256 880 256 880 256 812 c 0,19,20
 256 714 256 714 333.5 673 c 128,-1,21
 411 632 411 632 550 600 c 0,22,23
 731 559 731 559 827 487 c 128,-1,24
 923 415 923 415 923 282 c 0,25,26
 923 148 923 148 814.5 63.5 c 128,-1,27
 706 -21 706 -21 524 -21 c 0,28,29
 419 -21 419 -21 337 13 c 1,30,31
 422 -167 422 -167 482 -252 c 128,-1,32
 542 -337 542 -337 614 -337 c 0,33,34
 664 -337 664 -337 705 -310 c 128,-1,35
 746 -283 746 -283 771 -256 c 1,36,-1
 822 -329 l 1,37,38
 787 -367 787 -367 732.5 -402 c 128,-1,39
 678 -437 678 -437 611 -437 c 0,40,41
 451 -437 451 -437 298 -138 c 1,42,-1
 93 251 l 1,43,-1
 189 295 l 1,44,45
 236 174 236 174 329 127.5 c 128,-1,46
 422 81 422 81 524 81 c 0,47,48
 660 81 660 81 732 140.5 c 128,-1,49
 804 200 804 200 804 276 c 0,0,1
EndSplineSet
EndChar

StartChar: uni0240
Encoding: 576 576 245
Width: 1010
Flags: W
LayerCount: 2
Fore
SplineSet
108 979 m 1,0,-1
 108 1082 l 1,1,-1
 894 1082 l 1,2,-1
 894 994 l 1,3,-1
 237 102 l 1,4,-1
 363 102 l 2,5,6
 482 102 482 102 550.5 35.5 c 128,-1,7
 619 -31 619 -31 663 -117.5 c 128,-1,8
 707 -204 707 -204 748.5 -270.5 c 128,-1,9
 790 -337 790 -337 855 -337 c 0,10,11
 901 -337 901 -337 938 -316 c 128,-1,12
 975 -295 975 -295 1005 -264 c 1,13,-1
 1055 -339 l 1,14,15
 1019 -375 1019 -375 967.5 -406 c 128,-1,16
 916 -437 916 -437 850 -437 c 0,17,18
 749 -437 749 -437 694 -371 c 128,-1,19
 639 -305 639 -305 597 -218.5 c 128,-1,20
 555 -132 555 -132 495.5 -66 c 128,-1,21
 436 0 436 0 327 0 c 2,22,-1
 88 0 l 1,23,-1
 88 89 l 1,24,-1
 743 979 l 1,25,-1
 108 979 l 1,0,-1
EndSplineSet
EndChar

StartChar: uni0241
Encoding: 577 577 246
Width: 1070
Flags: W
LayerCount: 2
Fore
SplineSet
412 0 m 1,0,-1
 412 428 l 1,1,-1
 475 428 l 2,2,3
 661 428 661 428 739 557.5 c 128,-1,4
 817 687 817 687 817 861 c 2,5,-1
 817 936 l 2,6,7
 817 1108 817 1108 739 1238 c 128,-1,8
 661 1368 661 1368 476 1368 c 0,9,10
 354 1368 354 1368 268 1295 c 128,-1,11
 182 1222 182 1222 174 1086 c 1,12,-1
 56 1086 l 1,13,14
 64 1268 64 1268 183.5 1372 c 128,-1,15
 303 1476 303 1476 476 1476 c 0,16,17
 702 1476 702 1476 820.5 1320 c 128,-1,18
 939 1164 939 1164 939 936 c 2,19,-1
 939 861 l 2,20,21
 939 649 939 649 836.5 497.5 c 128,-1,22
 734 346 734 346 536 323 c 1,23,-1
 536 0 l 1,24,-1
 412 0 l 1,0,-1
EndSplineSet
EndChar

StartChar: uni0242
Encoding: 578 578 247
Width: 940
Flags: W
LayerCount: 2
Fore
SplineSet
390 0 m 1,0,-1
 390 430 l 1,1,-1
 441 430 l 2,2,3
 603 430 603 430 663.5 508.5 c 128,-1,4
 724 587 724 587 724 706 c 0,5,6
 724 820 724 820 663 910 c 128,-1,7
 602 1000 602 1000 436 1000 c 0,8,9
 315 1000 315 1000 240 918 c 128,-1,10
 165 836 165 836 165 700 c 1,11,-1
 45 700 l 1,12,13
 45 886 45 886 158 993.5 c 128,-1,14
 271 1101 271 1101 436 1101 c 0,15,16
 636 1101 636 1101 740 994.5 c 128,-1,17
 844 888 844 888 844 702 c 0,18,19
 844 564 844 564 765.5 464.5 c 128,-1,20
 687 365 687 365 510 348 c 1,21,-1
 510 0 l 1,22,-1
 390 0 l 1,0,-1
EndSplineSet
EndChar

